<svg width="805" height="68" viewBox="0 0 805 68" fill="none" xmlns="http://www.w3.org/2000/svg">
<g clip-path="url(#clip0_303_3417)" filter="url(#filter0_f_303_3417)">
<path d="M224.449 42.5415L207.849 19.9999H221.579L238.179 42.5415H224.449Z" fill="url(#paint0_linear_303_3417)"/>
<path d="M128.84 42.5415L112.239 19.9999H126.094L142.819 42.5415H128.84Z" fill="url(#paint1_linear_303_3417)"/>
<path d="M186.256 42.5415L169.53 19.9999H183.26L199.861 42.5415H186.256Z" fill="url(#paint2_linear_303_3417)"/>
<path d="M167.159 42.5415L150.433 19.9999H164.163L180.888 42.5415H167.159Z" fill="url(#paint3_linear_303_3417)"/>
<path d="M205.228 42.5415L188.627 19.9999H202.482L219.082 42.5415H205.228Z" fill="url(#paint4_linear_303_3417)"/>
<path d="M109.993 42.5415L93.3921 19.9999H106.872L123.473 42.5415H109.993Z" fill="url(#paint5_linear_303_3417)"/>
<path d="M148.187 42.5415L131.461 19.9999H145.066L161.792 42.5415H148.187Z" fill="url(#paint6_linear_303_3417)"/>
<path d="M20 42.5415V31.018L28.3627 42.5415H20Z" fill="url(#paint7_linear_303_3417)"/>
<path d="M33.7298 42.5415L20 23.74V19.9999H30.7342L47.3348 42.5415H33.7298Z" fill="url(#paint8_linear_303_3417)"/>
<path d="M71.9237 42.5415L55.1982 19.9999H69.1777L85.7783 42.5415H71.9237Z" fill="url(#paint9_linear_303_3417)"/>
<path d="M91.1454 42.5415L74.5448 19.9999H88.025L104.626 42.5415H91.1454Z" fill="url(#paint10_linear_303_3417)"/>
<path d="M52.7019 42.5415L36.1013 19.9999H49.8311L66.5566 42.5415H52.7019Z" fill="url(#paint11_linear_303_3417)"/>
<path d="M719.222 42.6426L735.823 20.101H749.677L733.077 42.6426H719.222Z" fill="url(#paint12_linear_303_3417)"/>
<path d="M544.229 42.6426L475.455 42.5415L470.463 48C428.4 48 386.336 48 344.273 48L338.906 42.5415L260.397 42.6426V42.5415H243.422L226.821 19.9999H240.551L256.028 41.0253L259.398 38.296L245.918 19.9999H260.646C288.855 19.9999 315.565 19.9999 343.774 19.9999L349.016 25.4584H465.47L470.588 19.9999H548.723V20.101H558.958L545.477 38.3971L548.848 41.1263L564.325 20.101H578.055L561.454 42.6426H544.229Z" fill="url(#paint13_linear_303_3417)"/>
<path d="M662.181 42.6426L678.781 20.101H692.761L676.16 42.6426H662.181Z" fill="url(#paint14_linear_303_3417)"/>
<path d="M681.527 42.6426L698.128 20.101H711.608L694.883 42.6426H681.527Z" fill="url(#paint15_linear_303_3417)"/>
<path d="M700.25 42.6426L716.975 20.101H730.456L713.855 42.6426H700.25Z" fill="url(#paint16_linear_303_3417)"/>
<path d="M757.666 42.6426L774.266 20.101H785V23.9422L771.146 42.6426H757.666Z" fill="url(#paint17_linear_303_3417)"/>
<path d="M776.513 42.6426L785 31.2202V42.6426H776.513Z" fill="url(#paint18_linear_303_3417)"/>
<path d="M738.444 42.6426L755.044 20.101H768.899L752.298 42.6426H738.444Z" fill="url(#paint19_linear_303_3417)"/>
<path d="M566.821 42.6426L583.422 20.101H597.151L580.426 42.6426H566.821Z" fill="url(#paint20_linear_303_3417)"/>
<path d="M585.793 42.6426L602.519 20.101H616.373L599.773 42.6426H585.793Z" fill="url(#paint21_linear_303_3417)"/>
<path d="M624.112 42.6426L640.837 20.101H654.567L637.842 42.6426H624.112Z" fill="url(#paint22_linear_303_3417)"/>
<path d="M643.209 42.6426L659.934 20.101H673.414L656.814 42.6426H643.209Z" fill="url(#paint23_linear_303_3417)"/>
<path d="M605.14 42.6426L621.74 20.101H635.47L618.745 42.6426H605.14Z" fill="url(#paint24_linear_303_3417)"/>
</g>
<g clip-path="url(#clip1_303_3417)">
<path d="M224.449 42.5415L207.849 19.9999H221.579L238.179 42.5415H224.449Z" fill="url(#paint25_linear_303_3417)"/>
<path d="M128.84 42.5415L112.239 19.9999H126.094L142.819 42.5415H128.84Z" fill="url(#paint26_linear_303_3417)"/>
<path d="M186.256 42.5415L169.53 19.9999H183.26L199.861 42.5415H186.256Z" fill="url(#paint27_linear_303_3417)"/>
<path d="M167.159 42.5415L150.433 19.9999H164.163L180.888 42.5415H167.159Z" fill="url(#paint28_linear_303_3417)"/>
<path d="M205.228 42.5415L188.627 19.9999H202.482L219.082 42.5415H205.228Z" fill="url(#paint29_linear_303_3417)"/>
<path d="M109.993 42.5415L93.3921 19.9999H106.872L123.473 42.5415H109.993Z" fill="url(#paint30_linear_303_3417)"/>
<path d="M148.187 42.5415L131.461 19.9999H145.066L161.792 42.5415H148.187Z" fill="url(#paint31_linear_303_3417)"/>
<path d="M20 42.5415V31.018L28.3627 42.5415H20Z" fill="url(#paint32_linear_303_3417)"/>
<path d="M33.7298 42.5415L20 23.74V19.9999H30.7342L47.3348 42.5415H33.7298Z" fill="url(#paint33_linear_303_3417)"/>
<path d="M71.9237 42.5415L55.1982 19.9999H69.1777L85.7783 42.5415H71.9237Z" fill="url(#paint34_linear_303_3417)"/>
<path d="M91.1454 42.5415L74.5448 19.9999H88.025L104.626 42.5415H91.1454Z" fill="url(#paint35_linear_303_3417)"/>
<path d="M52.7019 42.5415L36.1013 19.9999H49.8311L66.5566 42.5415H52.7019Z" fill="url(#paint36_linear_303_3417)"/>
<path d="M719.222 42.6426L735.823 20.101H749.677L733.077 42.6426H719.222Z" fill="url(#paint37_linear_303_3417)"/>
<path d="M544.229 42.6426L475.455 42.5415L470.463 48C428.4 48 386.336 48 344.273 48L338.906 42.5415L260.397 42.6426V42.5415H243.422L226.821 19.9999H240.551L256.028 41.0253L259.398 38.296L245.918 19.9999H260.646C288.855 19.9999 315.565 19.9999 343.774 19.9999L349.016 25.4584H465.47L470.588 19.9999H548.723V20.101H558.958L545.477 38.3971L548.848 41.1263L564.325 20.101H578.055L561.454 42.6426H544.229Z" fill="url(#paint38_linear_303_3417)"/>
<path d="M662.181 42.6426L678.781 20.101H692.761L676.16 42.6426H662.181Z" fill="url(#paint39_linear_303_3417)"/>
<path d="M681.527 42.6426L698.128 20.101H711.608L694.883 42.6426H681.527Z" fill="url(#paint40_linear_303_3417)"/>
<path d="M700.25 42.6426L716.975 20.101H730.456L713.855 42.6426H700.25Z" fill="url(#paint41_linear_303_3417)"/>
<path d="M757.666 42.6426L774.266 20.101H785V23.9422L771.146 42.6426H757.666Z" fill="url(#paint42_linear_303_3417)"/>
<path d="M776.513 42.6426L785 31.2202V42.6426H776.513Z" fill="url(#paint43_linear_303_3417)"/>
<path d="M738.444 42.6426L755.044 20.101H768.899L752.298 42.6426H738.444Z" fill="url(#paint44_linear_303_3417)"/>
<path d="M566.821 42.6426L583.422 20.101H597.151L580.426 42.6426H566.821Z" fill="url(#paint45_linear_303_3417)"/>
<path d="M585.793 42.6426L602.519 20.101H616.373L599.773 42.6426H585.793Z" fill="url(#paint46_linear_303_3417)"/>
<path d="M624.112 42.6426L640.837 20.101H654.567L637.842 42.6426H624.112Z" fill="url(#paint47_linear_303_3417)"/>
<path d="M643.209 42.6426L659.934 20.101H673.414L656.814 42.6426H643.209Z" fill="url(#paint48_linear_303_3417)"/>
<path d="M605.14 42.6426L621.74 20.101H635.47L618.745 42.6426H605.14Z" fill="url(#paint49_linear_303_3417)"/>
<path d="M357.62 40.89H359.72V33.63L359.87 32.745L359.27 33.45L357.62 34.635L357.05 33.87L360.35 31.32H360.89V40.89H362.945V42H357.62V40.89ZM364.819 36.75C364.819 34.95 365.109 33.595 365.689 32.685C366.279 31.775 367.134 31.32 368.254 31.32C369.464 31.32 370.339 31.77 370.879 32.67C371.429 33.56 371.704 34.92 371.704 36.75C371.704 38.55 371.409 39.905 370.819 40.815C370.239 41.725 369.384 42.18 368.254 42.18C367.064 42.18 366.194 41.705 365.644 40.755C365.094 39.805 364.819 38.47 364.819 36.75ZM366.064 36.75C366.064 37.4 366.104 37.995 366.184 38.535C366.274 39.065 366.409 39.525 366.589 39.915C366.769 40.295 366.994 40.595 367.264 40.815C367.544 41.025 367.874 41.13 368.254 41.13C369.014 41.13 369.569 40.78 369.919 40.08C370.279 39.37 370.459 38.26 370.459 36.75C370.459 36.11 370.419 35.52 370.339 34.98C370.269 34.44 370.144 33.975 369.964 33.585C369.794 33.195 369.569 32.895 369.289 32.685C369.009 32.475 368.664 32.37 368.254 32.37C367.504 32.37 366.949 32.725 366.589 33.435C366.239 34.145 366.064 35.25 366.064 36.75ZM373.083 41.31C373.083 41.04 373.158 40.83 373.308 40.68C373.468 40.52 373.678 40.44 373.938 40.44C374.208 40.44 374.423 40.52 374.583 40.68C374.743 40.83 374.823 41.04 374.823 41.31C374.823 41.57 374.743 41.78 374.583 41.94C374.423 42.1 374.208 42.18 373.938 42.18C373.678 42.18 373.468 42.1 373.308 41.94C373.158 41.78 373.083 41.57 373.083 41.31ZM376.201 36.75C376.201 34.95 376.491 33.595 377.071 32.685C377.661 31.775 378.516 31.32 379.636 31.32C380.846 31.32 381.721 31.77 382.261 32.67C382.811 33.56 383.086 34.92 383.086 36.75C383.086 38.55 382.791 39.905 382.201 40.815C381.621 41.725 380.766 42.18 379.636 42.18C378.446 42.18 377.576 41.705 377.026 40.755C376.476 39.805 376.201 38.47 376.201 36.75ZM377.446 36.75C377.446 37.4 377.486 37.995 377.566 38.535C377.656 39.065 377.791 39.525 377.971 39.915C378.151 40.295 378.376 40.595 378.646 40.815C378.926 41.025 379.256 41.13 379.636 41.13C380.396 41.13 380.951 40.78 381.301 40.08C381.661 39.37 381.841 38.26 381.841 36.75C381.841 36.11 381.801 35.52 381.721 34.98C381.651 34.44 381.526 33.975 381.346 33.585C381.176 33.195 380.951 32.895 380.671 32.685C380.391 32.475 380.046 32.37 379.636 32.37C378.886 32.37 378.331 32.725 377.971 33.435C377.621 34.145 377.446 35.25 377.446 36.75ZM384.375 36.75C384.375 34.95 384.665 33.595 385.245 32.685C385.835 31.775 386.69 31.32 387.81 31.32C389.02 31.32 389.895 31.77 390.435 32.67C390.985 33.56 391.26 34.92 391.26 36.75C391.26 38.55 390.965 39.905 390.375 40.815C389.795 41.725 388.94 42.18 387.81 42.18C386.62 42.18 385.75 41.705 385.2 40.755C384.65 39.805 384.375 38.47 384.375 36.75ZM385.62 36.75C385.62 37.4 385.66 37.995 385.74 38.535C385.83 39.065 385.965 39.525 386.145 39.915C386.325 40.295 386.55 40.595 386.82 40.815C387.1 41.025 387.43 41.13 387.81 41.13C388.57 41.13 389.125 40.78 389.475 40.08C389.835 39.37 390.015 38.26 390.015 36.75C390.015 36.11 389.975 35.52 389.895 34.98C389.825 34.44 389.7 33.975 389.52 33.585C389.35 33.195 389.125 32.895 388.845 32.685C388.565 32.475 388.22 32.37 387.81 32.37C387.06 32.37 386.505 32.725 386.145 33.435C385.795 34.145 385.62 35.25 385.62 36.75ZM392.549 36.75C392.549 34.95 392.839 33.595 393.419 32.685C394.009 31.775 394.864 31.32 395.984 31.32C397.194 31.32 398.069 31.77 398.609 32.67C399.159 33.56 399.434 34.92 399.434 36.75C399.434 38.55 399.139 39.905 398.549 40.815C397.969 41.725 397.114 42.18 395.984 42.18C394.794 42.18 393.924 41.705 393.374 40.755C392.824 39.805 392.549 38.47 392.549 36.75ZM393.794 36.75C393.794 37.4 393.834 37.995 393.914 38.535C394.004 39.065 394.139 39.525 394.319 39.915C394.499 40.295 394.724 40.595 394.994 40.815C395.274 41.025 395.604 41.13 395.984 41.13C396.744 41.13 397.299 40.78 397.649 40.08C398.009 39.37 398.189 38.26 398.189 36.75C398.189 36.11 398.149 35.52 398.069 34.98C397.999 34.44 397.874 33.975 397.694 33.585C397.524 33.195 397.299 32.895 397.019 32.685C396.739 32.475 396.394 32.37 395.984 32.37C395.234 32.37 394.679 32.725 394.319 33.435C393.969 34.145 393.794 35.25 393.794 36.75ZM410.091 39.33C410.091 38.91 409.966 38.57 409.716 38.31C409.466 38.04 409.151 37.805 408.771 37.605C408.401 37.395 407.996 37.2 407.556 37.02C407.116 36.84 406.706 36.625 406.326 36.375C405.956 36.115 405.646 35.8 405.396 35.43C405.146 35.05 405.021 34.57 405.021 33.99C405.021 33.17 405.306 32.52 405.876 32.04C406.446 31.56 407.256 31.32 408.306 31.32C408.916 31.32 409.471 31.365 409.971 31.455C410.471 31.545 410.861 31.66 411.141 31.8L410.766 32.895C410.536 32.785 410.196 32.68 409.746 32.58C409.306 32.48 408.806 32.43 408.246 32.43C407.586 32.43 407.091 32.58 406.761 32.88C406.431 33.17 406.266 33.515 406.266 33.915C406.266 34.305 406.391 34.63 406.641 34.89C406.891 35.15 407.201 35.385 407.571 35.595C407.951 35.795 408.361 35.995 408.801 36.195C409.241 36.395 409.646 36.63 410.016 36.9C410.396 37.16 410.711 37.475 410.961 37.845C411.211 38.215 411.336 38.675 411.336 39.225C411.336 39.675 411.256 40.08 411.096 40.44C410.936 40.8 410.701 41.11 410.391 41.37C410.081 41.63 409.706 41.83 409.266 41.97C408.826 42.11 408.326 42.18 407.766 42.18C407.016 42.18 406.396 42.12 405.906 42C405.416 41.89 405.036 41.765 404.766 41.625L405.186 40.5C405.416 40.63 405.756 40.76 406.206 40.89C406.656 41.01 407.161 41.07 407.721 41.07C408.051 41.07 408.361 41.04 408.651 40.98C408.941 40.91 409.191 40.805 409.401 40.665C409.611 40.515 409.776 40.33 409.896 40.11C410.026 39.89 410.091 39.63 410.091 39.33ZM414.28 34.5V38.775C414.28 39.165 414.3 39.51 414.34 39.81C414.39 40.1 414.47 40.345 414.58 40.545C414.69 40.735 414.84 40.88 415.03 40.98C415.22 41.08 415.46 41.13 415.75 41.13C416.02 41.13 416.26 41.09 416.47 41.01C416.68 40.92 416.865 40.8 417.025 40.65C417.195 40.5 417.34 40.33 417.46 40.14C417.59 39.94 417.695 39.73 417.775 39.51V34.5H418.975V39.87C418.975 40.23 418.985 40.605 419.005 40.995C419.035 41.375 419.08 41.71 419.14 42H418.315L418.015 40.815H417.94C417.71 41.205 417.4 41.53 417.01 41.79C416.62 42.05 416.125 42.18 415.525 42.18C415.125 42.18 414.77 42.13 414.46 42.03C414.16 41.94 413.905 41.775 413.695 41.535C413.495 41.295 413.34 40.975 413.23 40.575C413.13 40.165 413.08 39.65 413.08 39.03V34.5H414.28ZM421.286 34.5H422.111L422.336 35.4H422.396C422.626 35.05 422.921 34.785 423.281 34.605C423.651 34.415 424.071 34.32 424.541 34.32C425.541 34.32 426.286 34.615 426.776 35.205C427.266 35.795 427.511 36.76 427.511 38.1C427.511 38.73 427.426 39.3 427.256 39.81C427.096 40.31 426.866 40.735 426.566 41.085C426.266 41.435 425.901 41.705 425.471 41.895C425.051 42.085 424.581 42.18 424.061 42.18C423.691 42.18 423.396 42.155 423.176 42.105C422.966 42.065 422.736 41.99 422.486 41.88V45H421.286V34.5ZM424.316 35.37C423.806 35.37 423.401 35.505 423.101 35.775C422.811 36.035 422.606 36.435 422.486 36.975V40.695C422.666 40.835 422.871 40.945 423.101 41.025C423.331 41.095 423.636 41.13 424.016 41.13C424.706 41.13 425.251 40.875 425.651 40.365C426.061 39.845 426.266 39.085 426.266 38.085C426.266 37.675 426.231 37.305 426.161 36.975C426.091 36.635 425.976 36.35 425.816 36.12C425.666 35.88 425.466 35.695 425.216 35.565C424.976 35.435 424.676 35.37 424.316 35.37ZM429.401 34.5H430.226L430.451 35.4H430.511C430.741 35.05 431.036 34.785 431.396 34.605C431.766 34.415 432.186 34.32 432.656 34.32C433.656 34.32 434.401 34.615 434.891 35.205C435.381 35.795 435.626 36.76 435.626 38.1C435.626 38.73 435.541 39.3 435.371 39.81C435.211 40.31 434.981 40.735 434.681 41.085C434.381 41.435 434.016 41.705 433.586 41.895C433.166 42.085 432.696 42.18 432.176 42.18C431.806 42.18 431.511 42.155 431.291 42.105C431.081 42.065 430.851 41.99 430.601 41.88V45H429.401V34.5ZM432.431 35.37C431.921 35.37 431.516 35.505 431.216 35.775C430.926 36.035 430.721 36.435 430.601 36.975V40.695C430.781 40.835 430.986 40.945 431.216 41.025C431.446 41.095 431.751 41.13 432.131 41.13C432.821 41.13 433.366 40.875 433.766 40.365C434.176 39.845 434.381 39.085 434.381 38.085C434.381 37.675 434.346 37.305 434.276 36.975C434.206 36.635 434.091 36.35 433.931 36.12C433.781 35.88 433.581 35.695 433.331 35.565C433.091 35.435 432.791 35.37 432.431 35.37ZM438.852 40.155C438.852 40.505 438.912 40.755 439.032 40.905C439.152 41.055 439.322 41.13 439.542 41.13C439.672 41.13 439.812 41.12 439.962 41.1C440.112 41.08 440.282 41.035 440.472 40.965L440.607 41.91C440.447 41.99 440.222 42.055 439.932 42.105C439.652 42.155 439.407 42.18 439.197 42.18C438.747 42.18 438.377 42.055 438.087 41.805C437.797 41.545 437.652 41.11 437.652 40.5V31.5H438.852V40.155ZM444.101 39.36L444.521 40.8H444.596L444.926 39.345L446.381 34.5H447.596L445.376 41.235C445.206 41.725 445.036 42.2 444.866 42.66C444.706 43.12 444.526 43.53 444.326 43.89C444.126 44.25 443.901 44.535 443.651 44.745C443.401 44.965 443.111 45.075 442.781 45.075C442.421 45.075 442.126 45.025 441.896 44.925L442.106 43.89C442.236 43.94 442.361 43.965 442.481 43.965C442.761 43.965 443.031 43.815 443.291 43.515C443.551 43.225 443.766 42.72 443.936 42L440.921 34.5H442.301L444.101 39.36Z" fill="white"/>
<path d="M357.62 40.89V40.59H357.32V40.89H357.62ZM359.72 40.89V41.19H360.02V40.89H359.72ZM359.72 33.63L359.424 33.5799L359.42 33.6048V33.63H359.72ZM359.87 32.745L360.166 32.7951L360.348 31.7206L359.642 32.5506L359.87 32.745ZM359.27 33.45L359.445 33.6937L359.475 33.6723L359.499 33.6444L359.27 33.45ZM357.62 34.635L357.38 34.8142L357.556 35.0506L357.795 34.8787L357.62 34.635ZM357.05 33.87L356.867 33.6326L356.634 33.8129L356.81 34.0492L357.05 33.87ZM360.35 31.32V31.02H360.248L360.167 31.0826L360.35 31.32ZM360.89 31.32H361.19V31.02H360.89V31.32ZM360.89 40.89H360.59V41.19H360.89V40.89ZM362.945 40.89H363.245V40.59H362.945V40.89ZM362.945 42V42.3H363.245V42H362.945ZM357.62 42H357.32V42.3H357.62V42ZM357.62 41.19H359.72V40.59H357.62V41.19ZM360.02 40.89V33.63H359.42V40.89H360.02ZM360.016 33.6801L360.166 32.7951L359.574 32.6949L359.424 33.5799L360.016 33.6801ZM359.642 32.5506L359.042 33.2556L359.499 33.6444L360.099 32.9394L359.642 32.5506ZM359.095 33.2063L357.445 34.3913L357.795 34.8787L359.445 33.6937L359.095 33.2063ZM357.861 34.4558L357.291 33.6908L356.81 34.0492L357.38 34.8142L357.861 34.4558ZM357.234 34.1074L360.534 31.5574L360.167 31.0826L356.867 33.6326L357.234 34.1074ZM360.35 31.62H360.89V31.02H360.35V31.62ZM360.59 31.32V40.89H361.19V31.32H360.59ZM360.89 41.19H362.945V40.59H360.89V41.19ZM362.645 40.89V42H363.245V40.89H362.645ZM362.945 41.7H357.62V42.3H362.945V41.7ZM357.92 42V40.89H357.32V42H357.92ZM365.689 32.685L365.437 32.5218L365.436 32.5238L365.689 32.685ZM370.879 32.67L370.622 32.8244L370.624 32.8277L370.879 32.67ZM370.819 40.815L370.567 40.6518L370.566 40.6538L370.819 40.815ZM365.644 40.755L365.384 40.9053L365.644 40.755ZM366.184 38.535L365.887 38.579L365.888 38.5852L366.184 38.535ZM366.589 39.915L366.317 40.0407L366.318 40.0434L366.589 39.915ZM367.264 40.815L367.074 41.0478L367.084 41.055L367.264 40.815ZM369.919 40.08L369.651 39.9443L369.651 39.9458L369.919 40.08ZM370.339 34.98L370.042 35.0186L370.042 35.024L370.339 34.98ZM369.964 33.585L369.689 33.7049L369.692 33.7107L369.964 33.585ZM369.289 32.685L369.469 32.445L369.469 32.445L369.289 32.685ZM366.589 33.435L366.321 33.2993L366.32 33.3024L366.589 33.435ZM365.119 36.75C365.119 34.973 365.407 33.6857 365.942 32.8462L365.436 32.5238C364.811 33.5043 364.519 34.927 364.519 36.75H365.119ZM365.941 32.8482C366.473 32.0268 367.232 31.62 368.254 31.62V31.02C367.036 31.02 366.085 31.5232 365.437 32.5218L365.941 32.8482ZM368.254 31.62C369.378 31.62 370.145 32.03 370.622 32.8243L371.136 32.5157C370.533 31.51 369.55 31.02 368.254 31.02V31.62ZM370.624 32.8277C371.13 33.6467 371.404 34.9393 371.404 36.75H372.004C372.004 34.9007 371.728 33.4733 371.134 32.5123L370.624 32.8277ZM371.404 36.75C371.404 38.5264 371.111 39.8128 370.567 40.6518L371.071 40.9782C371.707 39.9972 372.004 38.5736 372.004 36.75H371.404ZM370.566 40.6538C370.044 41.4725 369.287 41.88 368.254 41.88V42.48C369.481 42.48 370.434 41.9775 371.072 40.9762L370.566 40.6538ZM368.254 41.88C367.16 41.88 366.395 41.4529 365.904 40.6047L365.384 40.9053C365.993 41.9571 366.968 42.48 368.254 42.48V41.88ZM365.904 40.6047C365.391 39.7193 365.119 38.4444 365.119 36.75H364.519C364.519 38.4956 364.797 39.8907 365.384 40.9053L365.904 40.6047ZM365.764 36.75C365.764 37.412 365.805 38.022 365.887 38.579L366.481 38.491C366.403 37.968 366.364 37.388 366.364 36.75H365.764ZM365.888 38.5852C365.982 39.1351 366.123 39.6216 366.317 40.0407L366.861 39.7893C366.695 39.4284 366.566 38.9949 366.48 38.4848L365.888 38.5852ZM366.318 40.0434C366.513 40.4555 366.764 40.7941 367.075 41.0476L367.454 40.5824C367.225 40.3959 367.025 40.1345 366.86 39.7866L366.318 40.0434ZM367.084 41.055C367.421 41.3073 367.815 41.43 368.254 41.43V40.83C367.933 40.83 367.668 40.7427 367.444 40.575L367.084 41.055ZM368.254 41.43C368.682 41.43 369.068 41.331 369.4 41.1213C369.732 40.9118 369.993 40.6037 370.187 40.2142L369.651 39.9458C369.495 40.2563 369.303 40.4732 369.08 40.6137C368.858 40.754 368.587 40.83 368.254 40.83V41.43ZM370.187 40.2157C370.58 39.4407 370.759 38.2721 370.759 36.75H370.159C370.159 38.2479 369.979 39.2993 369.652 39.9443L370.187 40.2157ZM370.759 36.75C370.759 36.0977 370.718 35.4928 370.636 34.936L370.042 35.024C370.12 35.5472 370.159 36.1223 370.159 36.75H370.759ZM370.637 34.9414C370.564 34.3789 370.432 33.8831 370.236 33.4593L369.692 33.7107C369.856 34.0669 369.974 34.5011 370.042 35.0186L370.637 34.9414ZM370.239 33.4651C370.053 33.0377 369.799 32.6922 369.469 32.445L369.109 32.925C369.339 33.0978 369.535 33.3523 369.689 33.7049L370.239 33.4651ZM369.469 32.445C369.129 32.1897 368.717 32.07 368.254 32.07V32.67C368.611 32.67 368.89 32.7603 369.109 32.925L369.469 32.445ZM368.254 32.07C367.83 32.07 367.446 32.171 367.114 32.3835C366.782 32.5954 366.521 32.9065 366.322 33.2993L366.857 33.5707C367.017 33.2535 367.213 33.0321 367.437 32.889C367.66 32.7465 367.928 32.67 368.254 32.67V32.07ZM366.32 33.3024C365.939 34.076 365.764 35.2381 365.764 36.75H366.364C366.364 35.2619 366.54 34.214 366.858 33.5676L366.32 33.3024ZM373.308 40.68L373.096 40.4679L373.096 40.4679L373.308 40.68ZM374.583 40.68L374.371 40.8922L374.378 40.8989L374.583 40.68ZM374.583 41.94L374.795 42.1521L374.795 42.1521L374.583 41.94ZM373.308 41.94L373.089 42.1453L373.096 42.1521L373.308 41.94ZM373.383 41.31C373.383 41.0968 373.441 40.9716 373.52 40.8921L373.096 40.4679C372.875 40.6884 372.783 40.9832 372.783 41.31H373.383ZM373.52 40.8921C373.615 40.7969 373.745 40.74 373.938 40.74V40.14C373.611 40.14 373.321 40.2431 373.096 40.4679L373.52 40.8921ZM373.938 40.74C374.145 40.74 374.278 40.7991 374.371 40.8921L374.795 40.4679C374.568 40.2409 374.271 40.14 373.938 40.14V40.74ZM374.378 40.8989C374.464 40.9795 374.523 41.1024 374.523 41.31H375.123C375.123 40.9776 375.022 40.6805 374.788 40.4611L374.378 40.8989ZM374.523 41.31C374.523 41.5033 374.466 41.6326 374.371 41.7279L374.795 42.1521C375.02 41.9274 375.123 41.6367 375.123 41.31H374.523ZM374.371 41.7279C374.278 41.8209 374.145 41.88 373.938 41.88V42.48C374.271 42.48 374.568 42.3791 374.795 42.1521L374.371 41.7279ZM373.938 41.88C373.745 41.88 373.615 41.8231 373.52 41.7279L373.096 42.1521C373.321 42.3769 373.611 42.48 373.938 42.48V41.88ZM373.527 41.7348C373.438 41.6405 373.383 41.5088 373.383 41.31H372.783C372.783 41.6312 372.877 41.9195 373.089 42.1452L373.527 41.7348ZM377.071 32.685L376.819 32.5218L376.818 32.5238L377.071 32.685ZM382.261 32.67L382.004 32.8244L382.006 32.8277L382.261 32.67ZM382.201 40.815L381.949 40.6518L381.948 40.6538L382.201 40.815ZM377.026 40.755L376.766 40.9053L377.026 40.755ZM377.566 38.535L377.269 38.579L377.27 38.5852L377.566 38.535ZM377.971 39.915L377.699 40.0407L377.7 40.0434L377.971 39.915ZM378.646 40.815L378.456 41.0478L378.466 41.055L378.646 40.815ZM381.301 40.08L381.033 39.9443L381.033 39.9458L381.301 40.08ZM381.721 34.98L381.423 35.0186L381.424 35.024L381.721 34.98ZM381.346 33.585L381.071 33.7049L381.074 33.7107L381.346 33.585ZM380.671 32.685L380.851 32.445L380.851 32.445L380.671 32.685ZM377.971 33.435L377.703 33.2993L377.702 33.3024L377.971 33.435ZM376.501 36.75C376.501 34.973 376.789 33.6857 377.324 32.8462L376.818 32.5238C376.193 33.5043 375.901 34.927 375.901 36.75H376.501ZM377.323 32.8482C377.855 32.0268 378.614 31.62 379.636 31.62V31.02C378.418 31.02 377.467 31.5232 376.819 32.5218L377.323 32.8482ZM379.636 31.62C380.76 31.62 381.527 32.03 382.004 32.8243L382.518 32.5157C381.915 31.51 380.932 31.02 379.636 31.02V31.62ZM382.006 32.8277C382.512 33.6467 382.786 34.9393 382.786 36.75H383.386C383.386 34.9007 383.11 33.4733 382.516 32.5123L382.006 32.8277ZM382.786 36.75C382.786 38.5264 382.493 39.8128 381.949 40.6518L382.453 40.9782C383.089 39.9972 383.386 38.5736 383.386 36.75H382.786ZM381.948 40.6538C381.426 41.4725 380.669 41.88 379.636 41.88V42.48C380.863 42.48 381.816 41.9775 382.454 40.9762L381.948 40.6538ZM379.636 41.88C378.542 41.88 377.777 41.4529 377.286 40.6047L376.766 40.9053C377.375 41.9571 378.35 42.48 379.636 42.48V41.88ZM377.286 40.6047C376.773 39.7193 376.501 38.4444 376.501 36.75H375.901C375.901 38.4956 376.179 39.8907 376.766 40.9053L377.286 40.6047ZM377.146 36.75C377.146 37.412 377.187 38.022 377.269 38.579L377.863 38.491C377.785 37.968 377.746 37.388 377.746 36.75H377.146ZM377.27 38.5852C377.364 39.1351 377.505 39.6216 377.699 40.0407L378.243 39.7893C378.077 39.4284 377.948 38.9949 377.862 38.4848L377.27 38.5852ZM377.7 40.0434C377.895 40.4555 378.145 40.7941 378.456 41.0476L378.835 40.5824C378.606 40.3959 378.407 40.1345 378.242 39.7866L377.7 40.0434ZM378.466 41.055C378.802 41.3073 379.197 41.43 379.636 41.43V40.83C379.315 40.83 379.049 40.7427 378.826 40.575L378.466 41.055ZM379.636 41.43C380.063 41.43 380.45 41.331 380.782 41.1213C381.114 40.9118 381.374 40.6037 381.569 40.2142L381.033 39.9458C380.877 40.2563 380.685 40.4732 380.462 40.6137C380.24 40.754 379.968 40.83 379.636 40.83V41.43ZM381.568 40.2157C381.961 39.4407 382.141 38.2721 382.141 36.75H381.541C381.541 38.2479 381.36 39.2993 381.033 39.9443L381.568 40.2157ZM382.141 36.75C382.141 36.0977 382.1 35.4928 382.018 34.936L381.424 35.024C381.502 35.5472 381.541 36.1223 381.541 36.75H382.141ZM382.018 34.9414C381.946 34.3789 381.814 33.8831 381.618 33.4593L381.074 33.7107C381.238 34.0669 381.356 34.5011 381.423 35.0186L382.018 34.9414ZM381.621 33.4651C381.435 33.0377 381.181 32.6922 380.851 32.445L380.491 32.925C380.721 33.0978 380.917 33.3523 381.071 33.7049L381.621 33.4651ZM380.851 32.445C380.51 32.1897 380.099 32.07 379.636 32.07V32.67C379.993 32.67 380.271 32.7603 380.491 32.925L380.851 32.445ZM379.636 32.07C379.212 32.07 378.828 32.171 378.496 32.3835C378.164 32.5954 377.903 32.9065 377.703 33.2993L378.238 33.5707C378.399 33.2535 378.595 33.0321 378.819 32.889C379.042 32.7465 379.31 32.67 379.636 32.67V32.07ZM377.702 33.3024C377.32 34.076 377.146 35.2381 377.146 36.75H377.746C377.746 35.2619 377.921 34.214 378.24 33.5676L377.702 33.3024ZM385.245 32.685L384.993 32.5218L384.992 32.5238L385.245 32.685ZM390.435 32.67L390.177 32.8244L390.18 32.8277L390.435 32.67ZM390.375 40.815L390.123 40.6518L390.122 40.6538L390.375 40.815ZM385.2 40.755L384.94 40.9053L385.2 40.755ZM385.74 38.535L385.443 38.579L385.444 38.5852L385.74 38.535ZM386.145 39.915L385.872 40.0407L385.874 40.0434L386.145 39.915ZM386.82 40.815L386.63 41.0478L386.64 41.055L386.82 40.815ZM389.475 40.08L389.207 39.9443L389.206 39.9458L389.475 40.08ZM389.895 34.98L389.597 35.0186L389.598 35.024L389.895 34.98ZM389.52 33.585L389.245 33.7049L389.247 33.7107L389.52 33.585ZM388.845 32.685L389.025 32.445L389.025 32.445L388.845 32.685ZM386.145 33.435L385.877 33.2993L385.876 33.3024L386.145 33.435ZM384.675 36.75C384.675 34.973 384.963 33.6857 385.498 32.8462L384.992 32.5238C384.367 33.5043 384.075 34.927 384.075 36.75H384.675ZM385.496 32.8482C386.029 32.0268 386.787 31.62 387.81 31.62V31.02C386.592 31.02 385.64 31.5232 384.993 32.5218L385.496 32.8482ZM387.81 31.62C388.933 31.62 389.701 32.03 390.177 32.8243L390.692 32.5157C390.089 31.51 389.106 31.02 387.81 31.02V31.62ZM390.18 32.8277C390.686 33.6467 390.96 34.9393 390.96 36.75H391.56C391.56 34.9007 391.284 33.4733 390.69 32.5123L390.18 32.8277ZM390.96 36.75C390.96 38.5264 390.667 39.8128 390.123 40.6518L390.626 40.9782C391.263 39.9972 391.56 38.5736 391.56 36.75H390.96ZM390.122 40.6538C389.6 41.4725 388.843 41.88 387.81 41.88V42.48C389.036 42.48 389.99 41.9775 390.628 40.9762L390.122 40.6538ZM387.81 41.88C386.716 41.88 385.95 41.4529 385.459 40.6047L384.94 40.9053C385.549 41.9571 386.524 42.48 387.81 42.48V41.88ZM385.459 40.6047C384.947 39.7193 384.675 38.4444 384.675 36.75H384.075C384.075 38.4956 384.353 39.8907 384.94 40.9053L385.459 40.6047ZM385.32 36.75C385.32 37.412 385.36 38.022 385.443 38.579L386.036 38.491C385.959 37.968 385.92 37.388 385.92 36.75H385.32ZM385.444 38.5852C385.537 39.1351 385.679 39.6216 385.872 40.0407L386.417 39.7893C386.251 39.4284 386.122 38.9949 386.036 38.4848L385.444 38.5852ZM385.874 40.0434C386.069 40.4555 386.319 40.7941 386.63 41.0476L387.009 40.5824C386.78 40.3959 386.581 40.1345 386.416 39.7866L385.874 40.0434ZM386.64 41.055C386.976 41.3073 387.371 41.43 387.81 41.43V40.83C387.489 40.83 387.223 40.7427 387 40.575L386.64 41.055ZM387.81 41.43C388.237 41.43 388.623 41.331 388.956 41.1213C389.288 40.9118 389.548 40.6037 389.743 40.2142L389.206 39.9458C389.051 40.2563 388.859 40.4732 388.636 40.6137C388.414 40.754 388.142 40.83 387.81 40.83V41.43ZM389.742 40.2157C390.135 39.4407 390.315 38.2721 390.315 36.75H389.715C389.715 38.2479 389.534 39.2993 389.207 39.9443L389.742 40.2157ZM390.315 36.75C390.315 36.0977 390.274 35.4928 390.191 34.936L389.598 35.024C389.675 35.5472 389.715 36.1223 389.715 36.75H390.315ZM390.192 34.9414C390.119 34.3789 389.988 33.8831 389.792 33.4593L389.247 33.7107C389.412 34.0669 389.53 34.5011 389.597 35.0186L390.192 34.9414ZM389.795 33.4651C389.608 33.0377 389.354 32.6922 389.025 32.445L388.665 32.925C388.895 33.0978 389.091 33.3523 389.245 33.7049L389.795 33.4651ZM389.025 32.445C388.684 32.1897 388.273 32.07 387.81 32.07V32.67C388.166 32.67 388.445 32.7603 388.665 32.925L389.025 32.445ZM387.81 32.07C387.386 32.07 387.002 32.171 386.669 32.3835C386.338 32.5954 386.076 32.9065 385.877 33.2993L386.412 33.5707C386.573 33.2535 386.769 33.0321 386.993 32.889C387.215 32.7465 387.484 32.67 387.81 32.67V32.07ZM385.876 33.3024C385.494 34.076 385.32 35.2381 385.32 36.75H385.92C385.92 35.2619 386.095 34.214 386.414 33.5676L385.876 33.3024ZM393.419 32.685L393.167 32.5218L393.166 32.5238L393.419 32.685ZM398.609 32.67L398.351 32.8244L398.353 32.8277L398.609 32.67ZM398.549 40.815L398.297 40.6518L398.296 40.6538L398.549 40.815ZM393.374 40.755L393.114 40.9053L393.374 40.755ZM393.914 38.535L393.617 38.579L393.618 38.5852L393.914 38.535ZM394.319 39.915L394.046 40.0407L394.047 40.0434L394.319 39.915ZM394.994 40.815L394.804 41.0478L394.814 41.055L394.994 40.815ZM397.649 40.08L397.381 39.9443L397.38 39.9458L397.649 40.08ZM398.069 34.98L397.771 35.0186L397.772 35.024L398.069 34.98ZM397.694 33.585L397.418 33.7049L397.421 33.7107L397.694 33.585ZM397.019 32.685L397.199 32.445L397.199 32.445L397.019 32.685ZM394.319 33.435L394.051 33.2993L394.049 33.3024L394.319 33.435ZM392.849 36.75C392.849 34.973 393.137 33.6857 393.672 32.8462L393.166 32.5238C392.541 33.5043 392.249 34.927 392.249 36.75H392.849ZM393.67 32.8482C394.203 32.0268 394.961 31.62 395.984 31.62V31.02C394.766 31.02 393.814 31.5232 393.167 32.5218L393.67 32.8482ZM395.984 31.62C397.107 31.62 397.875 32.03 398.351 32.8243L398.866 32.5157C398.262 31.51 397.28 31.02 395.984 31.02V31.62ZM398.353 32.8277C398.86 33.6467 399.134 34.9393 399.134 36.75H399.734C399.734 34.9007 399.458 33.4733 398.864 32.5123L398.353 32.8277ZM399.134 36.75C399.134 38.5264 398.841 39.8128 398.297 40.6518L398.8 40.9782C399.436 39.9972 399.734 38.5736 399.734 36.75H399.134ZM398.296 40.6538C397.774 41.4725 397.017 41.88 395.984 41.88V42.48C397.21 42.48 398.163 41.9775 398.802 40.9762L398.296 40.6538ZM395.984 41.88C394.89 41.88 394.124 41.4529 393.633 40.6047L393.114 40.9053C393.723 41.9571 394.697 42.48 395.984 42.48V41.88ZM393.633 40.6047C393.121 39.7193 392.849 38.4444 392.849 36.75H392.249C392.249 38.4956 392.527 39.8907 393.114 40.9053L393.633 40.6047ZM393.494 36.75C393.494 37.412 393.534 38.022 393.617 38.579L394.21 38.491C394.133 37.968 394.094 37.388 394.094 36.75H393.494ZM393.618 38.5852C393.711 39.1351 393.853 39.6216 394.046 40.0407L394.591 39.7893C394.424 39.4284 394.296 38.9949 394.209 38.4848L393.618 38.5852ZM394.047 40.0434C394.243 40.4555 394.493 40.7941 394.804 41.0476L395.183 40.5824C394.954 40.3959 394.754 40.1345 394.59 39.7866L394.047 40.0434ZM394.814 41.055C395.15 41.3073 395.545 41.43 395.984 41.43V40.83C395.663 40.83 395.397 40.7427 395.174 40.575L394.814 41.055ZM395.984 41.43C396.411 41.43 396.797 41.331 397.13 41.1213C397.462 40.9118 397.722 40.6037 397.917 40.2142L397.38 39.9458C397.225 40.2563 397.033 40.4732 396.81 40.6137C396.587 40.754 396.316 40.83 395.984 40.83V41.43ZM397.916 40.2157C398.309 39.4407 398.489 38.2721 398.489 36.75H397.889C397.889 38.2479 397.708 39.2993 397.381 39.9443L397.916 40.2157ZM398.489 36.75C398.489 36.0977 398.448 35.4928 398.365 34.936L397.772 35.024C397.849 35.5472 397.889 36.1223 397.889 36.75H398.489ZM398.366 34.9414C398.293 34.3789 398.162 33.8831 397.966 33.4593L397.421 33.7107C397.586 34.0669 397.704 34.5011 397.771 35.0186L398.366 34.9414ZM397.969 33.4651C397.782 33.0377 397.528 32.6922 397.199 32.445L396.839 32.925C397.069 33.0978 397.265 33.3523 397.419 33.7049L397.969 33.4651ZM397.199 32.445C396.858 32.1897 396.447 32.07 395.984 32.07V32.67C396.34 32.67 396.619 32.7603 396.839 32.925L397.199 32.445ZM395.984 32.07C395.559 32.07 395.175 32.171 394.843 32.3835C394.512 32.5954 394.25 32.9065 394.051 33.2993L394.586 33.5707C394.747 33.2535 394.943 33.0321 395.166 32.889C395.389 32.7465 395.658 32.67 395.984 32.67V32.07ZM394.049 33.3024C393.668 34.076 393.494 35.2381 393.494 36.75H394.094C394.094 35.2619 394.269 34.214 394.588 33.5676L394.049 33.3024ZM409.716 38.31L409.496 38.5139L409.5 38.5179L409.716 38.31ZM408.771 37.605L408.623 37.866L408.632 37.8705L408.771 37.605ZM407.556 37.02L407.443 37.2977L407.443 37.2977L407.556 37.02ZM406.326 36.375L406.154 36.6206L406.162 36.6256L406.326 36.375ZM405.396 35.43L405.146 35.5949L405.148 35.598L405.396 35.43ZM405.876 32.04L406.07 32.2695L406.07 32.2695L405.876 32.04ZM409.971 31.455L409.918 31.7503L409.918 31.7503L409.971 31.455ZM411.141 31.8L411.425 31.8972L411.51 31.649L411.276 31.5317L411.141 31.8ZM410.766 32.895L410.637 33.1656L410.941 33.3111L411.05 32.9922L410.766 32.895ZM409.746 32.58L409.68 32.8725L409.681 32.8729L409.746 32.58ZM406.761 32.88L406.959 33.1054L406.963 33.102L406.761 32.88ZM406.641 34.89L406.858 34.6821L406.858 34.6821L406.641 34.89ZM407.571 35.595L407.423 35.856L407.432 35.8605L407.571 35.595ZM408.801 36.195L408.926 35.9219L408.926 35.9219L408.801 36.195ZM410.016 36.9L409.839 37.1424L409.847 37.1476L410.016 36.9ZM410.391 41.37L410.584 41.5999L410.584 41.5999L410.391 41.37ZM409.266 41.97L409.357 42.2559L409.357 42.2559L409.266 41.97ZM405.906 42L405.978 41.7086L405.972 41.7073L405.906 42ZM404.766 41.625L404.485 41.5201L404.392 41.769L404.628 41.8913L404.766 41.625ZM405.186 40.5L405.334 40.2388L405.028 40.066L404.905 40.3951L405.186 40.5ZM406.206 40.89L406.123 41.1783L406.129 41.1799L406.206 40.89ZM408.651 40.98L408.712 41.2739L408.722 41.2716L408.651 40.98ZM409.401 40.665L409.568 40.9147L409.576 40.9091L409.401 40.665ZM409.896 40.11L409.638 39.9573L409.633 39.9663L409.896 40.11ZM410.391 39.33C410.391 38.8462 410.245 38.4271 409.933 38.1021L409.5 38.5179C409.688 38.7129 409.791 38.9738 409.791 39.33H410.391ZM409.937 38.1062C409.66 37.8074 409.316 37.5528 408.911 37.3395L408.632 37.8705C408.987 38.0572 409.273 38.2726 409.496 38.5138L409.937 38.1062ZM408.919 37.3441C408.537 37.1271 408.12 36.9266 407.67 36.7423L407.443 37.2977C407.872 37.4734 408.266 37.6629 408.623 37.8659L408.919 37.3441ZM407.67 36.7423C407.247 36.5693 406.854 36.3633 406.491 36.1244L406.162 36.6256C406.558 36.8867 406.986 37.1107 407.443 37.2977L407.67 36.7423ZM406.499 36.1295C406.158 35.8903 405.874 35.6014 405.645 35.262L405.148 35.598C405.419 35.9986 405.754 36.3397 406.154 36.6205L406.499 36.1295ZM405.647 35.2651C405.437 34.9459 405.321 34.5274 405.321 33.99H404.721C404.721 34.6126 404.856 35.1541 405.146 35.5949L405.647 35.2651ZM405.321 33.99C405.321 33.2484 405.575 32.6863 406.07 32.2695L405.683 31.8105C405.038 32.3537 404.721 33.0915 404.721 33.99H405.321ZM406.07 32.2695C406.567 31.8505 407.299 31.62 408.306 31.62V31.02C407.214 31.02 406.326 31.2695 405.683 31.8105L406.07 32.2695ZM408.306 31.62C408.902 31.62 409.439 31.664 409.918 31.7503L410.025 31.1597C409.504 31.066 408.931 31.02 408.306 31.02V31.62ZM409.918 31.7503C410.405 31.8379 410.764 31.9466 411.007 32.0683L411.276 31.5317C410.959 31.3734 410.538 31.2521 410.025 31.1597L409.918 31.7503ZM410.858 31.7028L410.483 32.7978L411.05 32.9922L411.425 31.8972L410.858 31.7028ZM410.896 32.6244C410.635 32.4997 410.269 32.3888 409.811 32.2871L409.681 32.8729C410.124 32.9712 410.438 33.0703 410.637 33.1656L410.896 32.6244ZM409.813 32.2875C409.347 32.1815 408.824 32.13 408.246 32.13V32.73C408.789 32.73 409.266 32.7785 409.68 32.8725L409.813 32.2875ZM408.246 32.13C407.547 32.13 406.966 32.2884 406.56 32.658L406.963 33.102C407.217 32.8716 407.626 32.73 408.246 32.73V32.13ZM406.563 32.6546C406.176 32.9953 405.966 33.4196 405.966 33.915H406.566C406.566 33.6104 406.687 33.3447 406.959 33.1053L406.563 32.6546ZM405.966 33.915C405.966 34.3756 406.117 34.7773 406.425 35.0979L406.858 34.6821C406.666 34.4827 406.566 34.2344 406.566 33.915H405.966ZM406.425 35.0979C406.698 35.3821 407.033 35.6341 407.423 35.8559L407.719 35.3341C407.37 35.1359 407.084 34.9179 406.858 34.6821L406.425 35.0979ZM407.432 35.8605C407.817 36.0635 408.233 36.266 408.677 36.4681L408.926 35.9219C408.49 35.724 408.085 35.5265 407.711 35.3295L407.432 35.8605ZM408.677 36.4681C409.1 36.6601 409.487 36.885 409.84 37.1423L410.193 36.6577C409.806 36.375 409.383 36.1299 408.926 35.9219L408.677 36.4681ZM409.847 37.1476C410.197 37.3869 410.485 37.6752 410.713 38.013L411.21 37.677C410.938 37.2748 410.596 36.9331 410.186 36.6524L409.847 37.1476ZM410.713 38.013C410.922 38.3229 411.036 38.7209 411.036 39.225H411.636C411.636 38.6291 411.501 38.1071 411.21 37.677L410.713 38.013ZM411.036 39.225C411.036 39.639 410.963 40.0016 410.822 40.3182L411.371 40.5618C411.55 40.1584 411.636 39.711 411.636 39.225H411.036ZM410.822 40.3182C410.681 40.6353 410.475 40.9087 410.199 41.1401L410.584 41.5999C410.928 41.3113 411.192 40.9647 411.371 40.5618L410.822 40.3182ZM410.199 41.1401C409.923 41.3717 409.583 41.5543 409.175 41.6841L409.357 42.2559C409.829 42.1057 410.24 41.8883 410.584 41.5999L410.199 41.1401ZM409.175 41.6841C408.77 41.813 408.302 41.88 407.766 41.88V42.48C408.351 42.48 408.882 42.407 409.357 42.2559L409.175 41.6841ZM407.766 41.88C407.03 41.88 406.436 41.8208 405.978 41.7086L405.835 42.2914C406.357 42.4192 407.003 42.48 407.766 42.48V41.88ZM405.972 41.7073C405.493 41.5998 405.142 41.4816 404.905 41.3587L404.628 41.8913C404.931 42.0484 405.34 42.1802 405.841 42.2927L405.972 41.7073ZM405.047 41.7299L405.467 40.6049L404.905 40.3951L404.485 41.5201L405.047 41.7299ZM405.039 40.7612C405.299 40.9082 405.665 41.0459 406.123 41.1782L406.29 40.6018C405.848 40.4741 405.534 40.3518 405.334 40.2388L405.039 40.7612ZM406.129 41.1799C406.609 41.3078 407.14 41.37 407.721 41.37V40.77C407.182 40.77 406.704 40.7122 406.284 40.6001L406.129 41.1799ZM407.721 41.37C408.07 41.37 408.4 41.3384 408.712 41.2738L408.591 40.6862C408.323 40.7416 408.033 40.77 407.721 40.77V41.37ZM408.722 41.2716C409.04 41.1948 409.324 41.0773 409.568 40.9146L409.235 40.4154C409.059 40.5327 408.843 40.6252 408.581 40.6884L408.722 41.2716ZM409.576 40.9091C409.822 40.7336 410.017 40.5146 410.16 40.2537L409.633 39.9663C409.535 40.1454 409.401 40.2964 409.227 40.4209L409.576 40.9091ZM410.155 40.2626C410.316 39.9889 410.391 39.6743 410.391 39.33H409.791C409.791 39.5857 409.736 39.7911 409.638 39.9574L410.155 40.2626ZM414.28 34.5H414.58V34.2H414.28V34.5ZM414.34 39.81L414.043 39.8497L414.045 39.861L414.34 39.81ZM414.58 40.545L414.317 40.6896L414.321 40.6953L414.58 40.545ZM415.03 40.98L415.17 40.7145L415.17 40.7145L415.03 40.98ZM416.47 41.01L416.577 41.2906L416.588 41.2857L416.47 41.01ZM417.025 40.65L416.827 40.4249L416.82 40.4311L417.025 40.65ZM417.46 40.14L417.209 39.9765L417.207 39.9798L417.46 40.14ZM417.775 39.51L418.057 39.6125L418.075 39.5629V39.51H417.775ZM417.775 34.5V34.2H417.475V34.5H417.775ZM418.975 34.5H419.275V34.2H418.975V34.5ZM419.005 40.995L418.705 41.0104L418.706 41.0186L419.005 40.995ZM419.14 42V42.3H419.509L419.434 41.9392L419.14 42ZM418.315 42L418.024 42.0736L418.082 42.3H418.315V42ZM418.015 40.815L418.306 40.7414L418.249 40.515H418.015V40.815ZM417.94 40.815V40.515H417.769L417.682 40.6626L417.94 40.815ZM417.01 41.79L417.177 42.0396L417.177 42.0396L417.01 41.79ZM414.46 42.03L414.552 41.7444L414.546 41.7427L414.46 42.03ZM413.695 41.535L413.465 41.7271L413.469 41.7326L413.695 41.535ZM413.23 40.575L412.939 40.6461L412.941 40.6545L413.23 40.575ZM413.08 34.5V34.2H412.78V34.5H413.08ZM413.98 34.5V38.775H414.58V34.5H413.98ZM413.98 38.775C413.98 39.1747 414.001 39.5334 414.043 39.8496L414.638 39.7704C414.6 39.4866 414.58 39.1553 414.58 38.775H413.98ZM414.045 39.861C414.099 40.1748 414.187 40.4534 414.317 40.6896L414.843 40.4004C414.753 40.2366 414.682 40.0252 414.636 39.759L414.045 39.861ZM414.321 40.6953C414.458 40.9331 414.649 41.1185 414.89 41.2455L415.17 40.7145C415.031 40.6415 414.922 40.5369 414.84 40.3947L414.321 40.6953ZM414.89 41.2455C415.136 41.3747 415.428 41.43 415.75 41.43V40.83C415.493 40.83 415.304 40.7853 415.17 40.7145L414.89 41.2455ZM415.75 41.43C416.05 41.43 416.327 41.3857 416.577 41.2903L416.363 40.7297C416.194 40.7943 415.991 40.83 415.75 40.83V41.43ZM416.588 41.2857C416.829 41.1826 417.044 41.0437 417.23 40.8689L416.82 40.4311C416.687 40.5563 416.531 40.6574 416.352 40.7343L416.588 41.2857ZM417.224 40.875C417.415 40.7063 417.578 40.5145 417.714 40.3002L417.207 39.9798C417.102 40.1455 416.976 40.2937 416.827 40.425L417.224 40.875ZM417.712 40.3035C417.854 40.0848 417.969 39.8543 418.057 39.6125L417.493 39.4075C417.421 39.6057 417.326 39.7952 417.209 39.9765L417.712 40.3035ZM418.075 39.51V34.5H417.475V39.51H418.075ZM417.775 34.8H418.975V34.2H417.775V34.8ZM418.675 34.5V39.87H419.275V34.5H418.675ZM418.675 39.87C418.675 40.2355 418.685 40.6157 418.706 41.0104L419.305 40.9796C419.285 40.5943 419.275 40.2245 419.275 39.87H418.675ZM418.706 41.0186C418.737 41.4078 418.783 41.7556 418.846 42.0608L419.434 41.9392C419.377 41.6644 419.334 41.3422 419.304 40.9714L418.706 41.0186ZM419.14 41.7H418.315V42.3H419.14V41.7ZM418.606 41.9264L418.306 40.7414L417.724 40.8886L418.024 42.0736L418.606 41.9264ZM418.015 40.515H417.94V41.115H418.015V40.515ZM417.682 40.6626C417.476 41.0123 417.198 41.3045 416.844 41.5404L417.177 42.0396C417.603 41.7555 417.945 41.3977 418.199 40.9674L417.682 40.6626ZM416.844 41.5404C416.515 41.7594 416.082 41.88 415.525 41.88V42.48C416.168 42.48 416.725 42.3406 417.177 42.0396L416.844 41.5404ZM415.525 41.88C415.15 41.88 414.827 41.833 414.552 41.7445L414.368 42.3155C414.714 42.427 415.101 42.48 415.525 42.48V41.88ZM414.546 41.7427C414.301 41.6692 414.094 41.5358 413.921 41.3374L413.469 41.7326C413.716 42.0142 414.019 42.2108 414.374 42.3173L414.546 41.7427ZM413.926 41.3429C413.76 41.1447 413.622 40.8671 413.519 40.4955L412.941 40.6545C413.059 41.0829 413.23 41.4453 413.465 41.7271L413.926 41.3429ZM413.522 40.5039C413.429 40.1253 413.38 39.6361 413.38 39.03H412.78C412.78 39.6639 412.831 40.2047 412.939 40.6461L413.522 40.5039ZM413.38 39.03V34.5H412.78V39.03H413.38ZM413.08 34.8H414.28V34.2H413.08V34.8ZM421.286 34.5V34.2H420.986V34.5H421.286ZM422.111 34.5L422.402 34.4272L422.345 34.2H422.111V34.5ZM422.336 35.4L422.045 35.4728L422.102 35.7H422.336V35.4ZM422.396 35.4V35.7H422.558L422.647 35.5648L422.396 35.4ZM423.281 34.605L423.415 34.8733L423.418 34.8719L423.281 34.605ZM426.776 35.205L426.545 35.3967L426.545 35.3967L426.776 35.205ZM427.256 39.81L426.971 39.7151L426.97 39.7186L427.256 39.81ZM426.566 41.085L426.338 40.8898L426.338 40.8898L426.566 41.085ZM425.471 41.895L425.35 41.6206L425.347 41.6217L425.471 41.895ZM423.176 42.105L423.243 41.8123L423.232 41.8103L423.176 42.105ZM422.486 41.88L422.607 41.6054L422.186 41.4202V41.88H422.486ZM422.486 45V45.3H422.786V45H422.486ZM421.286 45H420.986V45.3H421.286V45ZM423.101 35.775L423.301 35.9984L423.302 35.998L423.101 35.775ZM422.486 36.975L422.193 36.9099L422.186 36.9421V36.975H422.486ZM422.486 40.695H422.186V40.8417L422.302 40.9318L422.486 40.695ZM423.101 41.025L423.002 41.3086L423.014 41.312L423.101 41.025ZM425.651 40.365L425.416 40.1793L425.415 40.1799L425.651 40.365ZM426.161 36.975L425.867 37.0355L425.868 37.0373L426.161 36.975ZM425.816 36.12L425.562 36.279L425.566 36.2853L425.57 36.2913L425.816 36.12ZM425.216 35.565L425.073 35.8288L425.078 35.8312L425.216 35.565ZM421.286 34.8H422.111V34.2H421.286V34.8ZM421.82 34.5728L422.045 35.4728L422.627 35.3272L422.402 34.4272L421.82 34.5728ZM422.336 35.7H422.396V35.1H422.336V35.7ZM422.647 35.5648C422.849 35.2571 423.105 35.0287 423.415 34.8733L423.147 34.3367C422.738 34.5413 422.403 34.8429 422.145 35.2352L422.647 35.5648ZM423.418 34.8719C423.741 34.7063 424.113 34.62 424.541 34.62V34.02C424.03 34.02 423.562 34.1237 423.144 34.3381L423.418 34.8719ZM424.541 34.62C425.481 34.62 426.129 34.8949 426.545 35.3967L427.007 35.0133C426.444 34.3351 425.601 34.02 424.541 34.02V34.62ZM426.545 35.3967C426.968 35.9052 427.211 36.7828 427.211 38.1H427.811C427.811 36.7372 427.565 35.6848 427.007 35.0133L426.545 35.3967ZM427.211 38.1C427.211 38.7032 427.13 39.2405 426.971 39.7151L427.541 39.9049C427.722 39.3595 427.811 38.7568 427.811 38.1H427.211ZM426.97 39.7186C426.821 40.1857 426.609 40.5741 426.338 40.8898L426.794 41.2802C427.123 40.8959 427.371 40.4343 427.542 39.9014L426.97 39.7186ZM426.338 40.8898C426.068 41.2051 425.74 41.4483 425.35 41.6206L425.592 42.1694C426.062 41.9617 426.464 41.6649 426.794 41.2802L426.338 40.8898ZM425.347 41.6217C424.971 41.792 424.544 41.88 424.061 41.88V42.48C424.618 42.48 425.131 42.378 425.595 42.1683L425.347 41.6217ZM424.061 41.88C423.701 41.88 423.431 41.8554 423.243 41.8125L423.11 42.3975C423.361 42.4546 423.681 42.48 424.061 42.48V41.88ZM423.232 41.8103C423.05 41.7755 422.842 41.7087 422.607 41.6054L422.365 42.1546C422.631 42.2713 422.883 42.3545 423.12 42.3997L423.232 41.8103ZM422.186 41.88V45H422.786V41.88H422.186ZM422.486 44.7H421.286V45.3H422.486V44.7ZM421.586 45V34.5H420.986V45H421.586ZM424.316 35.07C423.752 35.07 423.269 35.2204 422.9 35.552L423.302 35.998C423.533 35.7896 423.86 35.67 424.316 35.67V35.07ZM422.901 35.5516C422.548 35.8677 422.321 36.3336 422.193 36.9099L422.779 37.0401C422.891 36.5364 423.074 36.2023 423.301 35.9984L422.901 35.5516ZM422.186 36.975V40.695H422.786V36.975H422.186ZM422.302 40.9318C422.509 41.0932 422.744 41.2183 423.003 41.3083L423.2 40.7417C422.998 40.6717 422.823 40.5768 422.67 40.4582L422.302 40.9318ZM423.014 41.312C423.284 41.3941 423.622 41.43 424.016 41.43V40.83C423.651 40.83 423.379 40.7959 423.188 40.738L423.014 41.312ZM424.016 41.43C424.791 41.43 425.426 41.1379 425.887 40.5501L425.415 40.1799C425.076 40.6121 424.621 40.83 424.016 40.83V41.43ZM425.887 40.5507C426.355 39.9568 426.566 39.1196 426.566 38.085H425.966C425.966 39.0504 425.767 39.7332 425.416 40.1793L425.887 40.5507ZM426.566 38.085C426.566 37.6584 426.53 37.267 426.455 36.9127L425.868 37.0373C425.932 37.343 425.966 37.6916 425.966 38.085H426.566ZM426.455 36.9145C426.379 36.5439 426.25 36.219 426.062 35.9487L425.57 36.2913C425.702 36.481 425.804 36.7261 425.867 37.0355L426.455 36.9145ZM426.071 35.961C425.892 35.6758 425.652 35.4537 425.355 35.2988L425.078 35.8312C425.28 35.9363 425.44 36.0842 425.562 36.279L426.071 35.961ZM425.359 35.3012C425.063 35.1411 424.711 35.07 424.316 35.07V35.67C424.642 35.67 424.889 35.7289 425.073 35.8288L425.359 35.3012ZM429.401 34.5V34.2H429.101V34.5H429.401ZM430.226 34.5L430.517 34.4272L430.461 34.2H430.226V34.5ZM430.451 35.4L430.16 35.4728L430.217 35.7H430.451V35.4ZM430.511 35.4V35.7H430.673L430.762 35.5648L430.511 35.4ZM431.396 34.605L431.531 34.8733L431.533 34.8719L431.396 34.605ZM434.891 35.205L434.661 35.3967L434.661 35.3967L434.891 35.205ZM435.371 39.81L435.087 39.7151L435.086 39.7186L435.371 39.81ZM434.681 41.085L434.454 40.8898L434.454 40.8898L434.681 41.085ZM433.586 41.895L433.465 41.6206L433.463 41.6217L433.586 41.895ZM431.291 42.105L431.358 41.8123L431.347 41.8103L431.291 42.105ZM430.601 41.88L430.722 41.6054L430.301 41.4202V41.88H430.601ZM430.601 45V45.3H430.901V45H430.601ZM429.401 45H429.101V45.3H429.401V45ZM431.216 35.775L431.417 35.9984L431.417 35.998L431.216 35.775ZM430.601 36.975L430.308 36.9099L430.301 36.9421V36.975H430.601ZM430.601 40.695H430.301V40.8417L430.417 40.9318L430.601 40.695ZM431.216 41.025L431.118 41.3086L431.129 41.312L431.216 41.025ZM433.766 40.365L433.531 40.1793L433.53 40.1799L433.766 40.365ZM434.276 36.975L433.982 37.0355L433.983 37.0373L434.276 36.975ZM433.931 36.12L433.677 36.279L433.681 36.2853L433.685 36.2913L433.931 36.12ZM433.331 35.565L433.188 35.8288L433.193 35.8312L433.331 35.565ZM429.401 34.8H430.226V34.2H429.401V34.8ZM429.935 34.5728L430.16 35.4728L430.742 35.3272L430.517 34.4272L429.935 34.5728ZM430.451 35.7H430.511V35.1H430.451V35.7ZM430.762 35.5648C430.964 35.2571 431.22 35.0287 431.531 34.8733L431.262 34.3367C430.853 34.5413 430.518 34.8429 430.261 35.2352L430.762 35.5648ZM431.533 34.8719C431.856 34.7063 432.228 34.62 432.656 34.62V34.02C432.145 34.02 431.677 34.1237 431.259 34.3381L431.533 34.8719ZM432.656 34.62C433.596 34.62 434.244 34.8949 434.661 35.3967L435.122 35.0133C434.559 34.3351 433.716 34.02 432.656 34.02V34.62ZM434.661 35.3967C435.083 35.9052 435.326 36.7828 435.326 38.1H435.926C435.926 36.7372 435.68 35.6848 435.122 35.0133L434.661 35.3967ZM435.326 38.1C435.326 38.7032 435.245 39.2405 435.087 39.7151L435.656 39.9049C435.838 39.3595 435.926 38.7568 435.926 38.1H435.326ZM435.086 39.7186C434.936 40.1857 434.724 40.5741 434.454 40.8898L434.909 41.2802C435.239 40.8959 435.487 40.4343 435.657 39.9014L435.086 39.7186ZM434.454 40.8898C434.183 41.2051 433.855 41.4483 433.465 41.6206L433.708 42.1694C434.178 41.9617 434.579 41.6649 434.909 41.2802L434.454 40.8898ZM433.463 41.6217C433.086 41.792 432.659 41.88 432.176 41.88V42.48C432.734 42.48 433.246 42.378 433.71 42.1683L433.463 41.6217ZM432.176 41.88C431.816 41.88 431.547 41.8554 431.358 41.8125L431.225 42.3975C431.476 42.4546 431.796 42.48 432.176 42.48V41.88ZM431.347 41.8103C431.165 41.7755 430.957 41.7087 430.722 41.6054L430.481 42.1546C430.746 42.2713 430.998 42.3545 431.235 42.3997L431.347 41.8103ZM430.301 41.88V45H430.901V41.88H430.301ZM430.601 44.7H429.401V45.3H430.601V44.7ZM429.701 45V34.5H429.101V45H429.701ZM432.431 35.07C431.867 35.07 431.384 35.2204 431.016 35.552L431.417 35.998C431.649 35.7896 431.975 35.67 432.431 35.67V35.07ZM431.016 35.5516C430.664 35.8677 430.437 36.3336 430.308 36.9099L430.894 37.0401C431.006 36.5364 431.189 36.2023 431.417 35.9984L431.016 35.5516ZM430.301 36.975V40.695H430.901V36.975H430.301ZM430.417 40.9318C430.625 41.0932 430.859 41.2183 431.118 41.3083L431.315 40.7417C431.114 40.6717 430.938 40.5768 430.786 40.4582L430.417 40.9318ZM431.129 41.312C431.399 41.3941 431.737 41.43 432.131 41.43V40.83C431.766 40.83 431.494 40.7959 431.304 40.738L431.129 41.312ZM432.131 41.43C432.907 41.43 433.541 41.1379 434.002 40.5501L433.53 40.1799C433.191 40.6121 432.736 40.83 432.131 40.83V41.43ZM434.002 40.5507C434.47 39.9568 434.681 39.1196 434.681 38.085H434.081C434.081 39.0504 433.882 39.7332 433.531 40.1793L434.002 40.5507ZM434.681 38.085C434.681 37.6584 434.645 37.267 434.57 36.9127L433.983 37.0373C434.048 37.343 434.081 37.6916 434.081 38.085H434.681ZM434.57 36.9145C434.494 36.5439 434.366 36.219 434.178 35.9487L433.685 36.2913C433.817 36.481 433.919 36.7261 433.983 37.0355L434.57 36.9145ZM434.186 35.961C434.007 35.6758 433.768 35.4537 433.47 35.2988L433.193 35.8312C433.395 35.9363 433.555 36.0842 433.677 36.279L434.186 35.961ZM433.474 35.3012C433.179 35.1411 432.826 35.07 432.431 35.07V35.67C432.757 35.67 433.004 35.7289 433.188 35.8288L433.474 35.3012ZM439.032 40.905L438.797 41.0924L438.797 41.0924L439.032 40.905ZM439.962 41.1L439.922 40.8026L439.922 40.8026L439.962 41.1ZM440.472 40.965L440.769 40.9226L440.716 40.5552L440.368 40.6835L440.472 40.965ZM440.607 41.91L440.741 42.1783L440.934 42.0816L440.904 41.8676L440.607 41.91ZM439.932 42.105L439.881 41.8094L439.879 41.8097L439.932 42.105ZM438.087 41.805L437.886 42.0284L437.891 42.0322L438.087 41.805ZM437.652 31.5V31.2H437.352V31.5H437.652ZM438.852 31.5H439.152V31.2H438.852V31.5ZM438.552 40.155C438.552 40.5238 438.612 40.8605 438.797 41.0924L439.266 40.7176C439.211 40.6495 439.152 40.4862 439.152 40.155H438.552ZM438.797 41.0924C438.983 41.3245 439.245 41.43 439.542 41.43V40.83C439.398 40.83 439.32 40.7855 439.266 40.7176L438.797 41.0924ZM439.542 41.43C439.687 41.43 439.84 41.4188 440.001 41.3974L439.922 40.8026C439.783 40.8212 439.656 40.83 439.542 40.83V41.43ZM440.001 41.3974C440.179 41.3737 440.371 41.3217 440.575 41.2465L440.368 40.6835C440.192 40.7483 440.044 40.7863 439.922 40.8026L440.001 41.3974ZM440.175 41.0074L440.31 41.9524L440.904 41.8676L440.769 40.9226L440.175 41.0074ZM440.472 41.6417C440.35 41.7028 440.158 41.7616 439.881 41.8094L439.983 42.4006C440.285 42.3484 440.543 42.2772 440.741 42.1783L440.472 41.6417ZM439.879 41.8097C439.611 41.8576 439.384 41.88 439.197 41.88V42.48C439.429 42.48 439.693 42.4524 439.984 42.4003L439.879 41.8097ZM439.197 41.88C438.805 41.88 438.509 41.7728 438.282 41.5778L437.891 42.0322C438.244 42.3372 438.688 42.48 439.197 42.48V41.88ZM438.287 41.5816C438.089 41.404 437.952 41.0724 437.952 40.5H437.352C437.352 41.1476 437.504 41.686 437.886 42.0284L438.287 41.5816ZM437.952 40.5V31.5H437.352V40.5H437.952ZM437.652 31.8H438.852V31.2H437.652V31.8ZM438.552 31.5V40.155H439.152V31.5H438.552ZM444.101 39.36L444.389 39.276L444.386 39.2658L444.383 39.2558L444.101 39.36ZM444.521 40.8L444.233 40.884L444.296 41.1H444.521V40.8ZM444.596 40.8V41.1H444.836L444.889 40.8664L444.596 40.8ZM444.926 39.345L444.639 39.2587L444.636 39.2686L444.634 39.2786L444.926 39.345ZM446.381 34.5V34.2H446.158L446.094 34.4137L446.381 34.5ZM447.596 34.5L447.881 34.5939L448.011 34.2H447.596V34.5ZM445.376 41.235L445.66 41.3333L445.661 41.3289L445.376 41.235ZM444.866 42.66L444.585 42.556L444.583 42.5614L444.866 42.66ZM444.326 43.89L444.064 43.7443L444.326 43.89ZM443.651 44.745L443.458 44.5152L443.453 44.5198L443.651 44.745ZM441.896 44.925L441.602 44.8653L441.554 45.1033L441.777 45.2001L441.896 44.925ZM442.106 43.89L442.214 43.61L441.883 43.4826L441.812 43.8303L442.106 43.89ZM443.291 43.515L443.068 43.3147L443.065 43.3185L443.291 43.515ZM443.936 42L444.228 42.0689L444.25 41.9764L444.215 41.8881L443.936 42ZM440.921 34.5V34.2H440.478L440.643 34.6119L440.921 34.5ZM442.301 34.5L442.583 34.3958L442.51 34.2H442.301V34.5ZM443.813 39.444L444.233 40.884L444.809 40.716L444.389 39.276L443.813 39.444ZM444.521 41.1H444.596V40.5H444.521V41.1ZM444.889 40.8664L445.219 39.4114L444.634 39.2786L444.304 40.7336L444.889 40.8664ZM445.214 39.4313L446.669 34.5863L446.094 34.4137L444.639 39.2587L445.214 39.4313ZM446.381 34.8H447.596V34.2H446.381V34.8ZM447.312 34.4061L445.092 41.1411L445.661 41.3289L447.881 34.5939L447.312 34.4061ZM445.093 41.1367C444.924 41.6249 444.754 42.098 444.585 42.556L445.148 42.764C445.319 42.302 445.489 41.8251 445.66 41.3333L445.093 41.1367ZM444.583 42.5614C444.428 43.008 444.254 43.4018 444.064 43.7443L444.589 44.0357C444.798 43.6582 444.985 43.232 445.15 42.7586L444.583 42.5614ZM444.064 43.7443C443.878 44.0803 443.674 44.3341 443.458 44.5153L443.844 44.9747C444.129 44.7359 444.375 44.4197 444.589 44.0357L444.064 43.7443ZM443.453 44.5198C443.257 44.6921 443.038 44.775 442.781 44.775V45.375C443.185 45.375 443.545 45.2379 443.85 44.9702L443.453 44.5198ZM442.781 44.775C442.446 44.775 442.196 44.728 442.016 44.6499L441.777 45.2001C442.057 45.322 442.397 45.375 442.781 45.375V44.775ZM442.19 44.9847L442.4 43.9497L441.812 43.8303L441.602 44.8653L442.19 44.9847ZM441.999 44.17C442.158 44.2311 442.319 44.265 442.481 44.265V43.665C442.404 43.665 442.315 43.6489 442.214 43.61L441.999 44.17ZM442.481 44.265C442.88 44.265 443.226 44.0488 443.518 43.7115L443.065 43.3185C442.837 43.5812 442.643 43.665 442.481 43.665V44.265ZM443.515 43.7153C443.827 43.3674 444.056 42.8012 444.228 42.0689L443.644 41.9311C443.477 42.6388 443.276 43.0826 443.068 43.3147L443.515 43.7153ZM444.215 41.8881L441.2 34.3881L440.643 34.6119L443.658 42.1119L444.215 41.8881ZM440.921 34.8H442.301V34.2H440.921V34.8ZM442.02 34.6042L443.82 39.4642L444.383 39.2558L442.583 34.3958L442.02 34.6042Z" fill="#9166B6"/>
</g>
<defs>
<filter id="filter0_f_303_3417" x="0" y="0" width="805" height="68" filterUnits="userSpaceOnUse" color-interpolation-filters="sRGB">
<feFlood flood-opacity="0" result="BackgroundImageFix"/>
<feBlend mode="normal" in="SourceGraphic" in2="BackgroundImageFix" result="shape"/>
<feGaussianBlur stdDeviation="10" result="effect1_foregroundBlur_303_3417"/>
</filter>
<linearGradient id="paint0_linear_303_3417" x1="237.916" y1="42.856" x2="208.323" y2="42.856" gradientUnits="userSpaceOnUse">
<stop stop-color="#FEB8FF"/>
<stop offset="1" stop-color="#422A80"/>
</linearGradient>
<linearGradient id="paint1_linear_303_3417" x1="142.554" y1="42.856" x2="112.717" y2="42.856" gradientUnits="userSpaceOnUse">
<stop stop-color="#FEB8FF"/>
<stop offset="1" stop-color="#422A80"/>
</linearGradient>
<linearGradient id="paint2_linear_303_3417" x1="199.597" y1="42.856" x2="170.004" y2="42.856" gradientUnits="userSpaceOnUse">
<stop stop-color="#FEB8FF"/>
<stop offset="1" stop-color="#422A80"/>
</linearGradient>
<linearGradient id="paint3_linear_303_3417" x1="180.624" y1="42.856" x2="150.909" y2="42.856" gradientUnits="userSpaceOnUse">
<stop stop-color="#FEB8FF"/>
<stop offset="1" stop-color="#422A80"/>
</linearGradient>
<linearGradient id="paint4_linear_303_3417" x1="218.818" y1="42.856" x2="189.103" y2="42.856" gradientUnits="userSpaceOnUse">
<stop stop-color="#FEB8FF"/>
<stop offset="1" stop-color="#422A80"/>
</linearGradient>
<linearGradient id="paint5_linear_303_3417" x1="123.212" y1="42.856" x2="93.8621" y2="42.856" gradientUnits="userSpaceOnUse">
<stop stop-color="#FEB8FF"/>
<stop offset="1" stop-color="#422A80"/>
</linearGradient>
<linearGradient id="paint6_linear_303_3417" x1="161.528" y1="42.856" x2="131.935" y2="42.856" gradientUnits="userSpaceOnUse">
<stop stop-color="#FEB8FF"/>
<stop offset="1" stop-color="#422A80"/>
</linearGradient>
<linearGradient id="paint7_linear_303_3417" x1="28.2901" y1="42.7023" x2="20.1307" y2="42.7023" gradientUnits="userSpaceOnUse">
<stop stop-color="#FEB8FF"/>
<stop offset="1" stop-color="#422A80"/>
</linearGradient>
<linearGradient id="paint8_linear_303_3417" x1="47.0975" y1="42.856" x2="20.4271" y2="42.856" gradientUnits="userSpaceOnUse">
<stop stop-color="#FEB8FF"/>
<stop offset="1" stop-color="#422A80"/>
</linearGradient>
<linearGradient id="paint9_linear_303_3417" x1="85.5128" y1="42.856" x2="55.6761" y2="42.856" gradientUnits="userSpaceOnUse">
<stop stop-color="#FEB8FF"/>
<stop offset="1" stop-color="#422A80"/>
</linearGradient>
<linearGradient id="paint10_linear_303_3417" x1="104.364" y1="42.856" x2="75.0148" y2="42.856" gradientUnits="userSpaceOnUse">
<stop stop-color="#FEB8FF"/>
<stop offset="1" stop-color="#422A80"/>
</linearGradient>
<linearGradient id="paint11_linear_303_3417" x1="66.2922" y1="42.856" x2="36.5772" y2="42.856" gradientUnits="userSpaceOnUse">
<stop stop-color="#FEB8FF"/>
<stop offset="1" stop-color="#422A80"/>
</linearGradient>
<linearGradient id="paint12_linear_303_3417" x1="749.413" y1="42.957" x2="719.698" y2="42.957" gradientUnits="userSpaceOnUse">
<stop stop-color="#FEB8FF"/>
<stop offset="1" stop-color="#422A80"/>
</linearGradient>
<linearGradient id="paint13_linear_303_3417" x1="575.006" y1="48.3906" x2="232.309" y2="48.3906" gradientUnits="userSpaceOnUse">
<stop stop-color="#FEB8FF"/>
<stop offset="1" stop-color="#422A80"/>
</linearGradient>
<linearGradient id="paint14_linear_303_3417" x1="692.495" y1="42.957" x2="662.659" y2="42.957" gradientUnits="userSpaceOnUse">
<stop stop-color="#FEB8FF"/>
<stop offset="1" stop-color="#422A80"/>
</linearGradient>
<linearGradient id="paint15_linear_303_3417" x1="711.347" y1="42.957" x2="681.997" y2="42.957" gradientUnits="userSpaceOnUse">
<stop stop-color="#FEB8FF"/>
<stop offset="1" stop-color="#422A80"/>
</linearGradient>
<linearGradient id="paint16_linear_303_3417" x1="730.193" y1="42.957" x2="700.722" y2="42.957" gradientUnits="userSpaceOnUse">
<stop stop-color="#FEB8FF"/>
<stop offset="1" stop-color="#422A80"/>
</linearGradient>
<linearGradient id="paint17_linear_303_3417" x1="784.763" y1="42.957" x2="758.093" y2="42.957" gradientUnits="userSpaceOnUse">
<stop stop-color="#FEB8FF"/>
<stop offset="1" stop-color="#422A80"/>
</linearGradient>
<linearGradient id="paint18_linear_303_3417" x1="784.927" y1="42.8019" x2="776.645" y2="42.8019" gradientUnits="userSpaceOnUse">
<stop stop-color="#FEB8FF"/>
<stop offset="1" stop-color="#422A80"/>
</linearGradient>
<linearGradient id="paint19_linear_303_3417" x1="768.635" y1="42.957" x2="738.92" y2="42.957" gradientUnits="userSpaceOnUse">
<stop stop-color="#FEB8FF"/>
<stop offset="1" stop-color="#422A80"/>
</linearGradient>
<linearGradient id="paint20_linear_303_3417" x1="596.888" y1="42.957" x2="567.295" y2="42.957" gradientUnits="userSpaceOnUse">
<stop stop-color="#FEB8FF"/>
<stop offset="1" stop-color="#422A80"/>
</linearGradient>
<linearGradient id="paint21_linear_303_3417" x1="616.108" y1="42.957" x2="586.271" y2="42.957" gradientUnits="userSpaceOnUse">
<stop stop-color="#FEB8FF"/>
<stop offset="1" stop-color="#422A80"/>
</linearGradient>
<linearGradient id="paint22_linear_303_3417" x1="654.303" y1="42.957" x2="624.588" y2="42.957" gradientUnits="userSpaceOnUse">
<stop stop-color="#FEB8FF"/>
<stop offset="1" stop-color="#422A80"/>
</linearGradient>
<linearGradient id="paint23_linear_303_3417" x1="673.152" y1="42.957" x2="643.681" y2="42.957" gradientUnits="userSpaceOnUse">
<stop stop-color="#FEB8FF"/>
<stop offset="1" stop-color="#422A80"/>
</linearGradient>
<linearGradient id="paint24_linear_303_3417" x1="635.207" y1="42.957" x2="605.614" y2="42.957" gradientUnits="userSpaceOnUse">
<stop stop-color="#FEB8FF"/>
<stop offset="1" stop-color="#422A80"/>
</linearGradient>
<linearGradient id="paint25_linear_303_3417" x1="237.916" y1="42.856" x2="208.323" y2="42.856" gradientUnits="userSpaceOnUse">
<stop stop-color="#FEB8FF"/>
<stop offset="1" stop-color="#422A80"/>
</linearGradient>
<linearGradient id="paint26_linear_303_3417" x1="142.554" y1="42.856" x2="112.717" y2="42.856" gradientUnits="userSpaceOnUse">
<stop stop-color="#FEB8FF"/>
<stop offset="1" stop-color="#422A80"/>
</linearGradient>
<linearGradient id="paint27_linear_303_3417" x1="199.597" y1="42.856" x2="170.004" y2="42.856" gradientUnits="userSpaceOnUse">
<stop stop-color="#FEB8FF"/>
<stop offset="1" stop-color="#422A80"/>
</linearGradient>
<linearGradient id="paint28_linear_303_3417" x1="180.624" y1="42.856" x2="150.909" y2="42.856" gradientUnits="userSpaceOnUse">
<stop stop-color="#FEB8FF"/>
<stop offset="1" stop-color="#422A80"/>
</linearGradient>
<linearGradient id="paint29_linear_303_3417" x1="218.818" y1="42.856" x2="189.103" y2="42.856" gradientUnits="userSpaceOnUse">
<stop stop-color="#FEB8FF"/>
<stop offset="1" stop-color="#422A80"/>
</linearGradient>
<linearGradient id="paint30_linear_303_3417" x1="123.212" y1="42.856" x2="93.8621" y2="42.856" gradientUnits="userSpaceOnUse">
<stop stop-color="#FEB8FF"/>
<stop offset="1" stop-color="#422A80"/>
</linearGradient>
<linearGradient id="paint31_linear_303_3417" x1="161.528" y1="42.856" x2="131.935" y2="42.856" gradientUnits="userSpaceOnUse">
<stop stop-color="#FEB8FF"/>
<stop offset="1" stop-color="#422A80"/>
</linearGradient>
<linearGradient id="paint32_linear_303_3417" x1="28.2901" y1="42.7023" x2="20.1307" y2="42.7023" gradientUnits="userSpaceOnUse">
<stop stop-color="#FEB8FF"/>
<stop offset="1" stop-color="#422A80"/>
</linearGradient>
<linearGradient id="paint33_linear_303_3417" x1="47.0975" y1="42.856" x2="20.4271" y2="42.856" gradientUnits="userSpaceOnUse">
<stop stop-color="#FEB8FF"/>
<stop offset="1" stop-color="#422A80"/>
</linearGradient>
<linearGradient id="paint34_linear_303_3417" x1="85.5128" y1="42.856" x2="55.6761" y2="42.856" gradientUnits="userSpaceOnUse">
<stop stop-color="#FEB8FF"/>
<stop offset="1" stop-color="#422A80"/>
</linearGradient>
<linearGradient id="paint35_linear_303_3417" x1="104.364" y1="42.856" x2="75.0148" y2="42.856" gradientUnits="userSpaceOnUse">
<stop stop-color="#FEB8FF"/>
<stop offset="1" stop-color="#422A80"/>
</linearGradient>
<linearGradient id="paint36_linear_303_3417" x1="66.2922" y1="42.856" x2="36.5772" y2="42.856" gradientUnits="userSpaceOnUse">
<stop stop-color="#FEB8FF"/>
<stop offset="1" stop-color="#422A80"/>
</linearGradient>
<linearGradient id="paint37_linear_303_3417" x1="749.413" y1="42.957" x2="719.698" y2="42.957" gradientUnits="userSpaceOnUse">
<stop stop-color="#FEB8FF"/>
<stop offset="1" stop-color="#422A80"/>
</linearGradient>
<linearGradient id="paint38_linear_303_3417" x1="575.006" y1="48.3906" x2="232.309" y2="48.3906" gradientUnits="userSpaceOnUse">
<stop stop-color="#FEB8FF"/>
<stop offset="1" stop-color="#422A80"/>
</linearGradient>
<linearGradient id="paint39_linear_303_3417" x1="692.495" y1="42.957" x2="662.659" y2="42.957" gradientUnits="userSpaceOnUse">
<stop stop-color="#FEB8FF"/>
<stop offset="1" stop-color="#422A80"/>
</linearGradient>
<linearGradient id="paint40_linear_303_3417" x1="711.347" y1="42.957" x2="681.997" y2="42.957" gradientUnits="userSpaceOnUse">
<stop stop-color="#FEB8FF"/>
<stop offset="1" stop-color="#422A80"/>
</linearGradient>
<linearGradient id="paint41_linear_303_3417" x1="730.193" y1="42.957" x2="700.722" y2="42.957" gradientUnits="userSpaceOnUse">
<stop stop-color="#FEB8FF"/>
<stop offset="1" stop-color="#422A80"/>
</linearGradient>
<linearGradient id="paint42_linear_303_3417" x1="784.763" y1="42.957" x2="758.093" y2="42.957" gradientUnits="userSpaceOnUse">
<stop stop-color="#FEB8FF"/>
<stop offset="1" stop-color="#422A80"/>
</linearGradient>
<linearGradient id="paint43_linear_303_3417" x1="784.927" y1="42.8019" x2="776.645" y2="42.8019" gradientUnits="userSpaceOnUse">
<stop stop-color="#FEB8FF"/>
<stop offset="1" stop-color="#422A80"/>
</linearGradient>
<linearGradient id="paint44_linear_303_3417" x1="768.635" y1="42.957" x2="738.92" y2="42.957" gradientUnits="userSpaceOnUse">
<stop stop-color="#FEB8FF"/>
<stop offset="1" stop-color="#422A80"/>
</linearGradient>
<linearGradient id="paint45_linear_303_3417" x1="596.888" y1="42.957" x2="567.295" y2="42.957" gradientUnits="userSpaceOnUse">
<stop stop-color="#FEB8FF"/>
<stop offset="1" stop-color="#422A80"/>
</linearGradient>
<linearGradient id="paint46_linear_303_3417" x1="616.108" y1="42.957" x2="586.271" y2="42.957" gradientUnits="userSpaceOnUse">
<stop stop-color="#FEB8FF"/>
<stop offset="1" stop-color="#422A80"/>
</linearGradient>
<linearGradient id="paint47_linear_303_3417" x1="654.303" y1="42.957" x2="624.588" y2="42.957" gradientUnits="userSpaceOnUse">
<stop stop-color="#FEB8FF"/>
<stop offset="1" stop-color="#422A80"/>
</linearGradient>
<linearGradient id="paint48_linear_303_3417" x1="673.152" y1="42.957" x2="643.681" y2="42.957" gradientUnits="userSpaceOnUse">
<stop stop-color="#FEB8FF"/>
<stop offset="1" stop-color="#422A80"/>
</linearGradient>
<linearGradient id="paint49_linear_303_3417" x1="635.207" y1="42.957" x2="605.614" y2="42.957" gradientUnits="userSpaceOnUse">
<stop stop-color="#FEB8FF"/>
<stop offset="1" stop-color="#422A80"/>
</linearGradient>
<clipPath id="clip0_303_3417">
<rect width="765" height="28.0001" fill="white" transform="matrix(1 0 0 -1 20 48)"/>
</clipPath>
<clipPath id="clip1_303_3417">
<rect width="765" height="28.0001" fill="white" transform="matrix(1 0 0 -1 20 48)"/>
</clipPath>
</defs>
</svg>
