<svg width="1458" height="830" viewBox="0 0 1458 830" fill="none" xmlns="http://www.w3.org/2000/svg">
<line x1="900.526" y1="829.842" x2="1026.53" y2="452.842" stroke="#D0C6F7" stroke-opacity="0.3"/>
<line x1="653.593" y1="635.71" x2="747.593" y2="503.71" stroke="#D0C6F7" stroke-opacity="0.2"/>
<line x1="869.809" y1="553.462" x2="481.809" y2="393.462" stroke="#D0C6F7" stroke-opacity="0.1"/>
<line x1="1457.35" y1="90.3536" x2="1329.35" y2="218.354" stroke="#D0C6F7" stroke-opacity="0.5"/>
<line x1="1329.35" y1="218.354" x2="1095.35" y2="452.354" stroke="#D0C6F7" stroke-opacity="0.5"/>
<line x1="1456.68" y1="750.386" x2="1094.68" y2="452.386" stroke="#D0C6F7" stroke-opacity="0.3"/>
<line x1="1306.65" y1="241.354" x2="1065.65" y2="0.353536" stroke="#D0C6F7" stroke-opacity="0.3"/>
<line x1="492.349" y1="382.358" x2="34.3492" y2="829.358" stroke="#D0C6F7" stroke-opacity="0.5"/>
<line x1="161.564" y1="506.244" x2="11.5637" y2="238.244" stroke="#D0C6F7" stroke-opacity="0.5"/>
<line x1="0.918393" y1="533.507" x2="405.918" y2="466.507" stroke="#D0C6F7" stroke-opacity="0.2"/>
<line x1="494.646" y1="381.647" x2="867.646" y2="7.64696" stroke="#D0C6F7" stroke-opacity="0.2"/>
<line x1="594.905" y1="4.36982" x2="122.336" y2="434.37" stroke="#D0C6F7" stroke-opacity="0.5"/>
<line x1="1095" y1="452.5" x2="1007" y2="452.5" stroke="#D0C6F7" stroke-opacity="0.5"/>
<line x1="869.715" y1="546.589" x2="1006.72" y2="451.589" stroke="#D0C6F7" stroke-opacity="0.2"/>
<line x1="792.385" y1="191.681" x2="1007.39" y2="451.681" stroke="#D0C6F7" stroke-opacity="0.2"/>
<line x1="654.089" y1="636.492" x2="137.089" y2="729.492" stroke="#D0C6F7" stroke-opacity="0.4"/>
<line x1="654.332" y1="635.626" x2="796.332" y2="761.626" stroke="#D0C6F7" stroke-opacity="0.4"/>
<line x1="14" y1="829.5" x2="1454" y2="829.5" stroke="#24232F"/>
</svg>
