<svg width="140" height="55" viewBox="0 0 140 55" fill="none" xmlns="http://www.w3.org/2000/svg">
<g filter="url(#filter0_b_332_6063)">
<rect x="6.38232" y="4.79413" width="132.618" height="46.0588" rx="0.794118" fill="#08080E" fill-opacity="0.01"/>
<rect x="5.98527" y="4.39707" width="133.412" height="46.8529" rx="1.19118" stroke="#D0C6F7" stroke-opacity="0.3" stroke-width="0.794118"/>
</g>
<g filter="url(#filter1_d_332_6063)">
<path d="M4 4.79412C4 4.35554 4.35554 4 4.79412 4H13.1939C13.3792 4 13.5294 4.15023 13.5294 4.33555L7.12694 4.73568C6.70841 4.76184 6.38235 5.10891 6.38235 5.52825V27.1524V48.9627V50.2183C6.38235 50.6424 6.7156 50.9916 7.13923 51.0115L13.5294 51.3115C13.5294 51.4968 13.3792 51.6471 13.1939 51.6471H4.79412C4.35554 51.6471 4 51.2915 4 50.8529V4.79412Z" fill="#D0C6F7"/>
</g>
<path d="M25.2061 27.2602H29.685V33.1304C29.4817 33.2828 29.2339 33.4226 28.9417 33.5497C28.6621 33.6767 28.3572 33.7847 28.0268 33.8737C27.7092 33.9626 27.3725 34.0261 27.0167 34.0642C26.6737 34.1151 26.337 34.1405 26.0066 34.1405C25.1553 34.1405 24.3739 34.0071 23.6624 33.7402C22.9508 33.4607 22.3346 33.0414 21.8137 32.4824C21.2927 31.9106 20.8861 31.1927 20.5939 30.3287C20.3017 29.452 20.1556 28.4228 20.1556 27.2412C20.1556 26.0087 20.3334 24.9541 20.6892 24.0774C21.045 23.2007 21.5087 22.4892 22.0805 21.9428C22.6523 21.3838 23.2939 20.9772 24.0054 20.7231C24.717 20.4689 25.4285 20.3419 26.14 20.3419C26.9024 20.3419 27.5313 20.3864 28.0268 20.4753C28.5224 20.5515 28.9417 20.6595 29.2847 20.7993L28.8845 22.1906C28.2746 21.8984 27.4043 21.7522 26.2734 21.7522C25.7398 21.7522 25.2061 21.8475 24.6725 22.0381C24.1516 22.216 23.6814 22.5209 23.2621 22.9529C22.8428 23.3849 22.4998 23.9504 22.233 24.6492C21.9661 25.348 21.8327 26.212 21.8327 27.2412C21.8327 28.1814 21.9407 28.9946 22.1567 29.6807C22.3727 30.3668 22.6713 30.9386 23.0525 31.396C23.4464 31.8407 23.9165 32.1774 24.4628 32.4061C25.0092 32.6221 25.6064 32.7301 26.2544 32.7301C27.0676 32.7301 27.76 32.5713 28.3318 32.2537V28.5372L25.2061 28.156V27.2602ZM32.0731 25.0875C32.5559 24.7953 33.115 24.5793 33.7503 24.4395C34.3983 24.2998 35.0717 24.2299 35.7705 24.2299C36.4312 24.2299 36.9585 24.3188 37.3524 24.4967C37.759 24.6746 38.0639 24.9097 38.2672 25.2019C38.4832 25.4814 38.623 25.7927 38.6865 26.1358C38.7628 26.4788 38.8009 26.8219 38.8009 27.1649C38.8009 27.9273 38.7818 28.6706 38.7437 29.3948C38.7056 30.1191 38.6865 30.8052 38.6865 31.4532C38.6865 31.9233 38.7056 32.368 38.7437 32.7873C38.7818 33.2066 38.8517 33.5941 38.9534 33.9499H37.8289L37.4287 32.6158H37.3334C37.219 32.7937 37.0729 32.9715 36.895 33.1494C36.7298 33.3146 36.5265 33.4671 36.2851 33.6068C36.0437 33.7339 35.7642 33.8419 35.4465 33.9308C35.1289 34.0198 34.7668 34.0642 34.3602 34.0642C33.9536 34.0642 33.5724 34.0007 33.2167 33.8737C32.8736 33.7466 32.575 33.5687 32.3209 33.34C32.0668 33.0986 31.8635 32.8127 31.711 32.4824C31.5712 32.152 31.5014 31.7772 31.5014 31.3579C31.5014 30.7988 31.6157 30.3351 31.8444 29.9666C32.0731 29.5854 32.3908 29.2868 32.7974 29.0708C33.2167 28.8421 33.7122 28.6833 34.2839 28.5944C34.8684 28.4927 35.5101 28.4419 36.2089 28.4419C36.3868 28.4419 36.5583 28.4419 36.7235 28.4419C36.9014 28.4419 37.0792 28.4546 37.2571 28.48C37.2952 28.0988 37.3143 27.7558 37.3143 27.4508C37.3143 26.752 37.1745 26.2628 36.895 25.9833C36.6155 25.7038 36.1072 25.564 35.3703 25.564C35.1543 25.564 34.9192 25.5831 34.6651 25.6212C34.4237 25.6466 34.1696 25.6911 33.9028 25.7546C33.6487 25.8054 33.4009 25.8753 33.1595 25.9642C32.9308 26.0405 32.7275 26.1294 32.5496 26.2311L32.0731 25.0875ZM34.7795 32.7301C35.1352 32.7301 35.4529 32.6857 35.7324 32.5967C36.0119 32.4951 36.2534 32.3744 36.4567 32.2346C36.6599 32.0821 36.8251 31.9169 36.9522 31.7391C37.0919 31.5612 37.1936 31.3897 37.2571 31.2245V29.6426C37.0792 29.6299 36.895 29.6235 36.7044 29.6235C36.5265 29.6108 36.3487 29.6045 36.1708 29.6045C35.7769 29.6045 35.3894 29.6299 35.0082 29.6807C34.6397 29.7188 34.3094 29.8014 34.0171 29.9285C33.7376 30.0428 33.5089 30.208 33.331 30.424C33.1658 30.6273 33.0832 30.8878 33.0832 31.2054C33.0832 31.6501 33.2421 32.0186 33.5597 32.3108C33.8774 32.5904 34.2839 32.7301 34.7795 32.7301ZM47.2648 33.9118V28.5181C47.2648 28.0099 47.2394 27.5715 47.1886 27.2031C47.1504 26.8219 47.0679 26.5042 46.9408 26.2501C46.8137 25.996 46.6295 25.8054 46.3881 25.6784C46.1594 25.5513 45.8544 25.4878 45.4733 25.4878C44.8888 25.4878 44.3996 25.6657 44.0057 26.0214C43.6246 26.3772 43.3577 26.8219 43.2053 27.3555V33.9118H41.6806V24.3824H42.7479L43.0337 25.5449H43.11C43.453 25.1384 43.8469 24.808 44.2916 24.5539C44.749 24.2871 45.3399 24.1537 46.0641 24.1537C46.674 24.1537 47.1695 24.2744 47.5507 24.5158C47.9446 24.7445 48.2495 25.1511 48.4655 25.7355C48.7577 25.24 49.158 24.8525 49.6662 24.5729C50.1871 24.2934 50.7716 24.1537 51.4196 24.1537C51.9533 24.1537 52.4043 24.2172 52.7728 24.3442C53.1413 24.4586 53.4462 24.6682 53.6876 24.9732C53.929 25.2781 54.1006 25.6911 54.2022 26.212C54.3166 26.7329 54.3737 27.3937 54.3737 28.1941V33.9118H52.849V28.1751C52.849 27.7177 52.8236 27.3238 52.7728 26.9934C52.7347 26.6504 52.6457 26.3708 52.506 26.1548C52.3789 25.9261 52.1947 25.7609 51.9533 25.6593C51.7246 25.5449 51.4196 25.4878 51.0384 25.4878C50.4031 25.4878 49.9076 25.6657 49.5519 26.0214C49.1961 26.3772 48.942 26.8854 48.7895 27.5461V33.9118H47.2648ZM64.1037 33.1494C63.7225 33.4544 63.2397 33.6958 62.6552 33.8737C62.0835 34.0515 61.4736 34.1405 60.8256 34.1405C60.1014 34.1405 59.4724 34.0261 58.9388 33.7974C58.4051 33.556 57.9668 33.2193 57.6237 32.7873C57.2807 32.3426 57.0265 31.8153 56.8614 31.2054C56.6962 30.5955 56.6136 29.9094 56.6136 29.1471C56.6136 27.5207 56.9757 26.2819 57.6999 25.4306C58.4242 24.5793 59.4597 24.1537 60.8065 24.1537C61.2385 24.1537 61.6705 24.2045 62.1025 24.3061C62.5345 24.3951 62.9221 24.5729 63.2651 24.8398C63.6082 25.1066 63.8877 25.4878 64.1037 25.9833C64.3197 26.4661 64.4277 27.1078 64.4277 27.9082C64.4277 28.3275 64.3896 28.7913 64.3134 29.2995H58.1955C58.1955 29.8586 58.2527 30.3541 58.367 30.7861C58.4814 31.2181 58.6592 31.5866 58.9007 31.8915C59.1421 32.1838 59.4534 32.4125 59.8345 32.5777C60.2284 32.7301 60.7049 32.8064 61.2639 32.8064C61.6959 32.8064 62.1279 32.7301 62.5599 32.5777C62.9919 32.4252 63.3159 32.2473 63.5319 32.044L64.1037 33.1494ZM60.8256 25.4878C60.0759 25.4878 59.4724 25.6847 59.015 26.0786C58.5703 26.4725 58.3035 27.1459 58.2145 28.0988H62.9411C62.9411 27.1332 62.7569 26.4598 62.3884 26.0786C62.0199 25.6847 61.499 25.4878 60.8256 25.4878ZM66.8256 24.3824H67.8738L68.1597 25.5259H68.2359C68.5281 25.0812 68.903 24.7445 69.3604 24.5158C69.8305 24.2744 70.3641 24.1537 70.9613 24.1537C72.2319 24.1537 73.1785 24.5285 73.8011 25.2781C74.4237 26.0278 74.735 27.2539 74.735 28.9565C74.735 29.7569 74.627 30.4812 74.411 31.1292C74.2077 31.7645 73.9154 32.3045 73.5343 32.7492C73.1531 33.1939 72.6893 33.537 72.143 33.7784C71.6093 34.0198 71.0121 34.1405 70.3514 34.1405C69.8813 34.1405 69.5065 34.1087 69.227 34.0452C68.9601 33.9944 68.6679 33.8991 68.3503 33.7593V37.7235H66.8256V24.3824ZM70.6754 25.4878C70.0274 25.4878 69.5128 25.6593 69.1317 26.0024C68.7632 26.3327 68.5027 26.8409 68.3503 27.5271V32.2537C68.579 32.4315 68.8394 32.5713 69.1317 32.6729C69.4239 32.7619 69.8114 32.8064 70.2943 32.8064C71.171 32.8064 71.8634 32.4824 72.3717 31.8344C72.8926 31.1737 73.1531 30.208 73.1531 28.9374C73.1531 28.4165 73.1086 27.9464 73.0197 27.5271C72.9307 27.0951 72.7846 26.7329 72.5813 26.4407C72.3907 26.1358 72.1366 25.9007 71.819 25.7355C71.514 25.5704 71.1328 25.4878 70.6754 25.4878ZM78.8329 31.5675C78.8329 32.0122 78.9091 32.3299 79.0616 32.5205C79.2141 32.7111 79.4301 32.8064 79.7096 32.8064C79.8748 32.8064 80.0527 32.7937 80.2433 32.7682C80.4339 32.7428 80.6499 32.6857 80.8913 32.5967L81.0628 33.7974C80.8595 33.8991 80.5736 33.9817 80.2051 34.0452C79.8494 34.1087 79.5381 34.1405 79.2713 34.1405C78.6995 34.1405 78.2294 33.9817 77.8609 33.664C77.4924 33.3337 77.3082 32.781 77.3082 32.0059V20.5706H78.8329V31.5675ZM82.5492 25.0875C83.0321 24.7953 83.5911 24.5793 84.2264 24.4395C84.8744 24.2998 85.5478 24.2299 86.2466 24.2299C86.9073 24.2299 87.4346 24.3188 87.8285 24.4967C88.2351 24.6746 88.5401 24.9097 88.7433 25.2019C88.9593 25.4814 89.0991 25.7927 89.1626 26.1358C89.2389 26.4788 89.277 26.8219 89.277 27.1649C89.277 27.9273 89.2579 28.6706 89.2198 29.3948C89.1817 30.1191 89.1626 30.8052 89.1626 31.4532C89.1626 31.9233 89.1817 32.368 89.2198 32.7873C89.2579 33.2066 89.3278 33.5941 89.4295 33.9499H88.305L87.9048 32.6158H87.8095C87.6951 32.7937 87.549 32.9715 87.3711 33.1494C87.2059 33.3146 87.0026 33.4671 86.7612 33.6068C86.5198 33.7339 86.2403 33.8419 85.9226 33.9308C85.605 34.0198 85.2429 34.0642 84.8363 34.0642C84.4297 34.0642 84.0485 34.0007 83.6928 33.8737C83.3497 33.7466 83.0511 33.5687 82.797 33.34C82.5429 33.0986 82.3396 32.8127 82.1871 32.4824C82.0473 32.152 81.9775 31.7772 81.9775 31.3579C81.9775 30.7988 82.0918 30.3351 82.3205 29.9666C82.5492 29.5854 82.8669 29.2868 83.2735 29.0708C83.6928 28.8421 84.1883 28.6833 84.7601 28.5944C85.3445 28.4927 85.9862 28.4419 86.685 28.4419C86.8629 28.4419 87.0344 28.4419 87.1996 28.4419C87.3775 28.4419 87.5553 28.4546 87.7332 28.48C87.7713 28.0988 87.7904 27.7558 87.7904 27.4508C87.7904 26.752 87.6506 26.2628 87.3711 25.9833C87.0916 25.7038 86.5833 25.564 85.8464 25.564C85.6304 25.564 85.3953 25.5831 85.1412 25.6212C84.8998 25.6466 84.6457 25.6911 84.3789 25.7546C84.1248 25.8054 83.877 25.8753 83.6356 25.9642C83.4069 26.0405 83.2036 26.1294 83.0257 26.2311L82.5492 25.0875ZM85.2556 32.7301C85.6113 32.7301 85.929 32.6857 86.2085 32.5967C86.4881 32.4951 86.7295 32.3744 86.9328 32.2346C87.1361 32.0821 87.3012 31.9169 87.4283 31.7391C87.5681 31.5612 87.6697 31.3897 87.7332 31.2245V29.6426C87.5553 29.6299 87.3711 29.6235 87.1805 29.6235C87.0026 29.6108 86.8248 29.6045 86.6469 29.6045C86.253 29.6045 85.8655 29.6299 85.4843 29.6807C85.1158 29.7188 84.7855 29.8014 84.4932 29.9285C84.2137 30.0428 83.985 30.208 83.8071 30.424C83.6419 30.6273 83.5593 30.8878 83.5593 31.2054C83.5593 31.6501 83.7182 32.0186 84.0358 32.3108C84.3535 32.5904 84.7601 32.7301 85.2556 32.7301ZM94.9583 30.5574L95.492 32.3871H95.5873L96.0065 30.5384L97.8553 24.3824H99.399L96.5783 32.9398C96.3623 33.5624 96.1463 34.1659 95.9303 34.7504C95.727 35.3348 95.4983 35.8558 95.2442 36.3132C94.9901 36.7706 94.7042 37.1327 94.3865 37.3995C94.0689 37.6791 93.7004 37.8188 93.2811 37.8188C92.8237 37.8188 92.4489 37.7553 92.1567 37.6282L92.4235 36.3132C92.5887 36.3767 92.7475 36.4085 92.9 36.4085C93.2557 36.4085 93.5988 36.2179 93.9291 35.8367C94.2595 35.4682 94.5327 34.8266 94.7487 33.9118L90.9178 24.3824H92.6713L94.9583 30.5574Z" fill="white"/>
<g filter="url(#filter2_f_332_6063)">
<path d="M126.294 19.0883L119.379 24.6471L112.794 19.0883" stroke="white" stroke-width="0.794118"/>
</g>
<g filter="url(#filter3_f_332_6063)">
<path d="M126.294 25.4412L119.379 31.7941L112.794 25.4412" stroke="white" stroke-width="0.794118"/>
</g>
<g filter="url(#filter4_f_332_6063)">
<path d="M126.294 31L119.379 37.353L112.794 31" stroke="white" stroke-width="0.794118"/>
</g>
<g filter="url(#filter5_d_332_6063)">
<path d="M112.794 19.0883L118.351 24.1948C119.007 24.7978 120.081 24.7978 120.737 24.1948L126.294 19.0883" stroke="white" stroke-width="1.19118" stroke-miterlimit="10" stroke-linecap="round" stroke-linejoin="round" shape-rendering="crispEdges"/>
</g>
<g filter="url(#filter6_d_332_6063)">
<path d="M112.794 24.6471L118.351 30.4831C119.007 31.1723 120.081 31.1723 120.737 30.4831L126.294 24.6471" stroke="white" stroke-width="1.19118" stroke-miterlimit="10" stroke-linecap="round" stroke-linejoin="round" shape-rendering="crispEdges"/>
</g>
<g filter="url(#filter7_d_332_6063)">
<path d="M112.794 31L118.351 36.8361C119.007 37.5253 120.081 37.5253 120.737 36.8361L126.294 31" stroke="white" stroke-width="1.19118" stroke-miterlimit="10" stroke-linecap="round" stroke-linejoin="round" shape-rendering="crispEdges"/>
</g>
<defs>
<filter id="filter0_b_332_6063" x="-23" y="-24.5882" width="191.382" height="104.824" filterUnits="userSpaceOnUse" color-interpolation-filters="sRGB">
<feFlood flood-opacity="0" result="BackgroundImageFix"/>
<feGaussianBlur in="BackgroundImage" stdDeviation="14.2941"/>
<feComposite in2="SourceAlpha" operator="in" result="effect1_backgroundBlur_332_6063"/>
<feBlend mode="normal" in="SourceGraphic" in2="effect1_backgroundBlur_332_6063" result="shape"/>
</filter>
<filter id="filter1_d_332_6063" x="0.823529" y="0.823529" width="15.8824" height="54" filterUnits="userSpaceOnUse" color-interpolation-filters="sRGB">
<feFlood flood-opacity="0" result="BackgroundImageFix"/>
<feColorMatrix in="SourceAlpha" type="matrix" values="0 0 0 0 0 0 0 0 0 0 0 0 0 0 0 0 0 0 127 0" result="hardAlpha"/>
<feOffset/>
<feGaussianBlur stdDeviation="1.58824"/>
<feComposite in2="hardAlpha" operator="out"/>
<feColorMatrix type="matrix" values="0 0 0 0 0.815686 0 0 0 0 0.776471 0 0 0 0 0.968627 0 0 0 1 0"/>
<feBlend mode="normal" in2="BackgroundImageFix" result="effect1_dropShadow_332_6063"/>
<feBlend mode="normal" in="SourceGraphic" in2="effect1_dropShadow_332_6063" result="shape"/>
</filter>
<filter id="filter2_f_332_6063" x="109.362" y="15.6023" width="20.3578" height="12.7356" filterUnits="userSpaceOnUse" color-interpolation-filters="sRGB">
<feFlood flood-opacity="0" result="BackgroundImageFix"/>
<feBlend mode="normal" in="SourceGraphic" in2="BackgroundImageFix" result="shape"/>
<feGaussianBlur stdDeviation="1.58824" result="effect1_foregroundBlur_332_6063"/>
</filter>
<filter id="filter3_f_332_6063" x="109.342" y="21.9723" width="20.3973" height="13.5436" filterUnits="userSpaceOnUse" color-interpolation-filters="sRGB">
<feFlood flood-opacity="0" result="BackgroundImageFix"/>
<feBlend mode="normal" in="SourceGraphic" in2="BackgroundImageFix" result="shape"/>
<feGaussianBlur stdDeviation="1.58824" result="effect1_foregroundBlur_332_6063"/>
</filter>
<filter id="filter4_f_332_6063" x="109.342" y="27.5312" width="20.3973" height="13.5436" filterUnits="userSpaceOnUse" color-interpolation-filters="sRGB">
<feFlood flood-opacity="0" result="BackgroundImageFix"/>
<feBlend mode="normal" in="SourceGraphic" in2="BackgroundImageFix" result="shape"/>
<feGaussianBlur stdDeviation="1.58824" result="effect1_foregroundBlur_332_6063"/>
</filter>
<filter id="filter5_d_332_6063" x="112.199" y="18.4927" width="14.6912" height="6.75" filterUnits="userSpaceOnUse" color-interpolation-filters="sRGB">
<feFlood flood-opacity="0" result="BackgroundImageFix"/>
<feColorMatrix in="SourceAlpha" type="matrix" values="0 0 0 0 0 0 0 0 0 0 0 0 0 0 0 0 0 0 127 0" result="hardAlpha"/>
<feOffset/>
<feComposite in2="hardAlpha" operator="out"/>
<feColorMatrix type="matrix" values="0 0 0 0 1 0 0 0 0 1 0 0 0 0 1 0 0 0 1 0"/>
<feBlend mode="normal" in2="BackgroundImageFix" result="effect1_dropShadow_332_6063"/>
<feBlend mode="normal" in="SourceGraphic" in2="effect1_dropShadow_332_6063" result="shape"/>
</filter>
<filter id="filter6_d_332_6063" x="112.199" y="24.0515" width="14.6912" height="7.5441" filterUnits="userSpaceOnUse" color-interpolation-filters="sRGB">
<feFlood flood-opacity="0" result="BackgroundImageFix"/>
<feColorMatrix in="SourceAlpha" type="matrix" values="0 0 0 0 0 0 0 0 0 0 0 0 0 0 0 0 0 0 127 0" result="hardAlpha"/>
<feOffset/>
<feComposite in2="hardAlpha" operator="out"/>
<feColorMatrix type="matrix" values="0 0 0 0 1 0 0 0 0 1 0 0 0 0 1 0 0 0 1 0"/>
<feBlend mode="normal" in2="BackgroundImageFix" result="effect1_dropShadow_332_6063"/>
<feBlend mode="normal" in="SourceGraphic" in2="effect1_dropShadow_332_6063" result="shape"/>
</filter>
<filter id="filter7_d_332_6063" x="112.199" y="30.4044" width="14.6912" height="7.5441" filterUnits="userSpaceOnUse" color-interpolation-filters="sRGB">
<feFlood flood-opacity="0" result="BackgroundImageFix"/>
<feColorMatrix in="SourceAlpha" type="matrix" values="0 0 0 0 0 0 0 0 0 0 0 0 0 0 0 0 0 0 127 0" result="hardAlpha"/>
<feOffset/>
<feComposite in2="hardAlpha" operator="out"/>
<feColorMatrix type="matrix" values="0 0 0 0 1 0 0 0 0 1 0 0 0 0 1 0 0 0 1 0"/>
<feBlend mode="normal" in2="BackgroundImageFix" result="effect1_dropShadow_332_6063"/>
<feBlend mode="normal" in="SourceGraphic" in2="effect1_dropShadow_332_6063" result="shape"/>
</filter>
</defs>
</svg>
