<svg width="80" height="78" viewBox="0 0 80 78" fill="none" xmlns="http://www.w3.org/2000/svg">
<path d="M55.2821 23.4856L55.282 23.4855C49.3028 17.666 42.4805 13.577 33.9962 13.1487L33.9962 13.1487C31.0325 12.9989 28.2953 13.7612 26.2761 15.3524C24.2665 16.9359 22.929 19.3697 22.7986 22.6545L55.2821 23.4856ZM55.2821 23.4856C59.718 27.8021 63.0441 32.81 64.5481 38.884C64.753 39.7115 64.8279 40.5311 64.8997 41.3173C64.9244 41.5868 64.9486 41.8524 64.9777 42.1131C65.1544 45.6554 64.3216 48.3699 62.6578 50.2366C60.9928 52.1047 58.4291 53.198 54.9938 53.3607C49.0931 53.6401 43.8961 51.5132 39.0419 48.3065M55.2821 23.4856L24.1469 30.4651M24.1469 30.4651L24.1469 30.4651C27.0454 38.1075 32.2958 43.8487 39.0419 48.3065M24.1469 30.4651C23.194 27.954 22.6916 25.3769 22.7986 22.6547L24.1469 30.4651ZM39.0419 48.3065L38.7663 48.7236M39.0419 48.3065L38.7663 48.7236M38.7663 48.7236C31.9525 44.2211 26.6227 38.403 23.6794 30.6425L55.0175 53.8601C48.9731 54.1464 43.6712 51.9639 38.7663 48.7236ZM65.914 55.8941L65.914 55.8941C71.4088 50.4428 72.3408 43.8964 70.3875 36.8325C67.5883 26.7023 61.1695 19.2304 52.7233 13.4521C46.7083 9.33633 40.1002 6.73732 32.599 7.01041C27.7884 7.11209 23.6643 8.8236 20.3825 12.402L20.3823 12.4023C18.2087 14.776 16.0652 17.1807 13.9291 19.5827L13.9291 19.5827C10.7503 23.1573 9.42017 27.391 9.68272 32.102L9.68273 32.1021C10.0493 38.6519 12.6097 44.3928 16.4679 49.5041C23.4187 58.7162 32.2345 65.2533 43.9562 67.0639L44.0325 66.5697L43.9562 67.0639C50.8359 68.1263 56.9123 66.3884 61.541 60.7566L61.5412 60.7563C62.9273 59.0674 64.3715 57.424 65.914 55.8941ZM15.9018 30.5183L15.9018 30.5179C15.9252 29.1359 16.1548 27.8236 16.7576 26.4871C18.2579 35.7058 23.0869 42.881 29.72 48.8998C36.3729 54.9363 44.011 59.0188 53.4334 59.6658C50.9482 61.0654 48.4201 61.3425 45.8102 61.032C35.3613 59.782 27.6088 54.0197 21.4141 45.7924C18.0107 41.2712 15.7996 36.2811 15.9018 30.5183Z" stroke="#D0C6F7" stroke-opacity="0.3"/>
<path d="M30.041 27.8197L30.0577 27.7502C30.3407 26.574 30.3476 25.0886 29.5831 23.5924L29.583 23.5922C28.9993 22.4487 29.6812 21.233 30.5631 20.5556L30.5636 20.5552L30.5636 20.5552C31.5384 19.8085 32.7271 19.6268 33.8298 20.2591L30.041 27.8197ZM30.041 27.8197L30.0444 27.8911M30.041 27.8197L30.0444 27.8911M30.0444 27.8911C30.2799 32.7925 34.2283 36.8425 38.7919 37.2759L38.7923 37.2759C40.988 37.4825 43.0208 36.9084 44.9597 36.2124C46.1397 35.7894 47.2021 35.4124 48.3444 35.4836L48.345 35.4837C48.9509 35.5208 49.6573 35.8122 50.2595 36.2611C50.8661 36.7133 51.2923 37.2689 51.4244 37.7685C51.5526 38.2549 51.6119 38.6992 51.5494 39.0766C51.4908 39.4304 51.3239 39.7411 50.945 39.9929L50.9448 39.9931C50.3716 40.3746 49.8542 40.4428 49.3455 40.344C48.8103 40.24 48.2574 39.9454 47.6474 39.5392L47.6472 39.5391C46.8993 39.0416 46.0921 38.8522 45.3293 38.9759C44.5666 39.0996 43.8922 39.5294 43.4007 40.1895L43.4005 40.1898M30.0444 27.8911L43.4005 40.1898M43.4005 40.1898C42.9058 40.8554 42.6803 41.6114 42.7911 42.3759C42.9016 43.1372 43.336 43.843 44.0409 44.4333M43.4005 40.1898L47.3703 39.9554M47.3703 39.9554C46.0562 39.0813 44.6447 39.3561 43.8017 40.4881C42.9446 41.6412 43.0967 42.9905 44.3621 44.0501M47.3703 39.9554C48.616 40.7848 49.8538 41.3198 51.2218 40.4093L47.3703 39.9554ZM44.3621 44.0501L44.0409 44.4333M44.3621 44.0501C46.4914 45.8346 48.9254 46.5915 51.6841 45.8344L44.3621 44.0501ZM44.0409 44.4333C46.2721 46.3031 48.8715 47.1248 51.8163 46.3166L44.0409 44.4333ZM35.72 20.3473C34.9585 20.5661 34.4448 20.6112 33.8301 20.2592L51.8164 46.3166C52.7513 46.0602 53.3989 45.928 54.1752 46.3816C54.8 46.7469 55.4577 46.8354 56.083 46.6782C56.6984 46.5235 57.2449 46.1411 57.6892 45.6279C58.1423 45.1048 58.4209 44.5092 58.4729 43.8792C58.5252 43.246 58.345 42.6194 57.9514 42.0469L57.951 42.0463C57.5079 41.4037 57.4677 40.8148 57.6241 40.0183C58.221 37.0084 57.1806 34.4738 55.1534 32.3932C53.4682 30.662 51.609 29.6874 49.61 29.3643C47.6181 29.0424 45.5276 29.3735 43.3816 30.1842C42.301 30.5922 41.1995 30.9437 40.0956 31.1209L40.0952 31.121C39.4858 31.2194 38.7151 31.031 38.0132 30.63C37.3102 30.2284 36.7678 29.6659 36.5543 29.1223C36.3623 28.6321 36.2399 28.1627 36.2576 27.7497C36.2742 27.3618 36.4129 27.0166 36.7827 26.723L36.7832 26.7226C37.3493 26.272 37.877 26.1685 38.4 26.2477C38.9521 26.3313 39.5352 26.6248 40.1704 27.0476L40.1709 27.0479C40.9204 27.5455 41.7197 27.7452 42.4799 27.6283C43.2409 27.5112 43.9102 27.0848 44.4101 26.4272C44.9145 25.7646 45.1466 25.0063 45.0449 24.2401C44.9435 23.4764 44.5188 22.7656 43.8234 22.1759L43.8232 22.1758C41.4744 20.1854 38.7354 19.4827 35.7203 20.3472L35.72 20.3473Z" stroke="#D0C6F7" stroke-opacity="0.3"/>
<g filter="url(#filter0_d_332_6273)">
<path d="M34.349 2.4124C41.7159 2.14323 48.2214 4.69216 54.1766 8.76698C62.5518 14.4967 68.8811 21.8789 71.6412 31.8679C73.5574 38.7977 72.6369 45.1442 67.2975 50.4413C65.7391 51.9869 64.2831 53.6442 62.8903 55.3413C58.3912 60.8154 52.5021 62.5118 45.7681 61.4719C34.2066 59.6861 25.4966 53.242 18.6026 44.1051C14.7897 39.0538 12.2774 33.4057 11.9175 26.9764C11.6618 22.3868 12.954 18.2855 16.0383 14.8171C18.1745 12.4151 20.3158 10.0129 22.4866 7.64211C25.6699 4.17112 29.6622 2.5106 34.349 2.4124ZM67.2119 36.9749C67.1022 35.9971 67.056 34.8252 66.769 33.666C65.2376 27.4811 61.8524 22.3947 57.3664 18.0294C51.3349 12.1591 44.4038 7.98799 35.757 7.55156C29.6357 7.24203 24.3063 10.6933 24.0346 17.537C23.9246 20.3361 24.4419 22.9803 25.415 25.5446C28.3583 33.3051 33.6881 39.1233 40.5019 43.6258C45.4068 46.8661 50.7087 49.0486 56.753 48.7623C63.809 48.4281 67.5804 44.2502 67.2119 36.9749ZM56.7478 54.1433C46.7472 53.8668 38.7432 49.7392 31.7916 43.4316C24.864 37.1457 19.9556 29.6204 18.776 19.818C17.5813 21.7081 17.1698 23.5062 17.1374 25.4116C17.0327 31.3189 19.3027 36.4154 22.7503 40.9953C29.0007 49.2967 36.8643 55.1599 47.4864 56.4307C50.6451 56.8065 53.727 56.3476 56.7478 54.1433Z" fill="url(#paint0_linear_332_6273)"/>
<path d="M32.2794 22.7693C32.5841 21.5028 32.5937 19.8909 31.7639 18.2671C31.3418 17.4403 31.8043 16.468 32.6033 15.8543C33.4439 15.2104 34.4155 15.0781 35.3169 15.5951C36.1056 16.0469 36.7824 15.9631 37.5937 15.73C40.4357 14.9151 43.004 15.5684 45.2356 17.4594C46.4777 18.5126 46.6206 19.8802 45.7479 21.0265C44.8848 22.1621 43.5102 22.4146 42.1831 21.5335C40.8768 20.6641 39.5542 20.1616 38.2074 21.2336C37.2167 22.02 37.4224 23.1809 37.8244 24.207C38.3612 25.5743 40.3958 26.7614 41.9105 26.5168C43.0623 26.3319 44.1997 25.9673 45.2938 25.5541C49.4734 23.9753 53.2938 24.319 56.5308 27.6441C58.4675 29.6319 59.4281 32.0063 58.8692 34.8238C58.6966 35.702 58.7303 36.4424 59.275 37.2323C59.9463 38.2087 59.8402 39.2869 59.0469 40.2028C58.2584 41.1133 57.1962 41.4562 56.1631 40.8521C55.193 40.2853 54.3593 40.4789 53.4197 40.7366C50.661 41.4937 48.227 40.7368 46.0976 38.9523C44.8323 37.8926 44.6802 36.5434 45.5373 35.3903C46.3803 34.2583 47.7918 33.9835 49.1059 34.8576C50.3516 35.687 51.5894 36.2219 52.9574 35.3115C53.962 34.6438 53.9131 33.5661 53.6435 32.5432C53.301 31.2472 51.5645 29.9758 50.1111 29.8868C48.8489 29.8081 47.689 30.2272 46.5264 30.644C44.603 31.3345 42.6565 31.8762 40.5747 31.6803C36.263 31.2708 32.5032 27.4266 32.2794 22.7693Z" fill="url(#paint1_linear_332_6273)"/>
</g>
<defs>
<filter id="filter0_d_332_6273" x="0.885986" y="0.392975" width="78.6723" height="77.3685" filterUnits="userSpaceOnUse" color-interpolation-filters="sRGB">
<feFlood flood-opacity="0" result="BackgroundImageFix"/>
<feColorMatrix in="SourceAlpha" type="matrix" values="0 0 0 0 0 0 0 0 0 0 0 0 0 0 0 0 0 0 127 0" result="hardAlpha"/>
<feOffset dx="-2" dy="7"/>
<feGaussianBlur stdDeviation="4.5"/>
<feComposite in2="hardAlpha" operator="out"/>
<feColorMatrix type="matrix" values="0 0 0 0 0.815686 0 0 0 0 0.776471 0 0 0 0 0.968627 0 0 0 0.6 0"/>
<feBlend mode="normal" in2="BackgroundImageFix" result="effect1_dropShadow_332_6273"/>
<feBlend mode="normal" in="SourceGraphic" in2="effect1_dropShadow_332_6273" result="shape"/>
</filter>
<linearGradient id="paint0_linear_332_6273" x1="40.6534" y1="2.07183" x2="43.7984" y2="62.0827" gradientUnits="userSpaceOnUse">
<stop offset="0.438628" stop-color="white"/>
<stop offset="1" stop-color="white"/>
</linearGradient>
<linearGradient id="paint1_linear_332_6273" x1="44.9602" y1="14.7085" x2="46.3761" y2="41.7258" gradientUnits="userSpaceOnUse">
<stop offset="0.438628" stop-color="white"/>
<stop offset="1" stop-color="white"/>
</linearGradient>
</defs>
</svg>
