<svg width="79" height="79" viewBox="0 0 79 79" fill="none" xmlns="http://www.w3.org/2000/svg">
<path d="M54.5849 23.9839L54.5848 23.9838C48.6056 18.1644 41.7832 14.0753 33.299 13.6471L33.299 13.6471C30.3353 13.4972 27.5981 14.2595 25.5788 15.8507C23.5693 17.4342 22.2318 19.868 22.1014 23.1528L54.5849 23.9839ZM54.5849 23.9839C59.0208 28.3004 62.3469 33.3083 63.8509 39.3823C64.0557 40.2098 64.1307 41.0294 64.2025 41.8156C64.2272 42.0851 64.2514 42.3507 64.2805 42.6114C64.4572 46.1537 63.6244 48.8682 61.9606 50.735C60.2955 52.603 57.7319 53.6963 54.2966 53.859C48.3959 54.1385 43.1989 52.0115 38.3447 48.8048M54.5849 23.9839L23.4497 30.9634M23.4497 30.9634L23.4497 30.9635C26.3482 38.6058 31.5986 44.347 38.3447 48.8048M23.4497 30.9634C22.4967 28.4523 21.9944 25.8752 22.1014 23.153L23.4497 30.9634ZM38.3447 48.8048L38.0691 49.222M38.3447 48.8048L38.0691 49.222M38.0691 49.222C31.2553 44.7194 25.9255 38.9013 22.9822 31.1408L54.3202 54.3584C48.2759 54.6447 42.974 52.4622 38.0691 49.222ZM65.2168 56.3924L65.2168 56.3924C70.7116 50.9412 71.6436 44.3948 69.6904 37.3308C66.8912 27.2006 60.4723 19.7288 52.0261 13.9504C46.0111 9.83464 39.403 7.23563 31.9018 7.50872C27.0912 7.6104 22.9671 9.32191 19.6853 12.9003L19.6851 12.9006C17.5115 15.2743 15.368 17.679 13.2319 20.081L13.2319 20.081C10.0531 23.6556 8.72297 27.8893 8.98552 32.6003L8.98552 32.6005C9.35209 39.1502 11.9125 44.8911 15.7707 50.0024C22.7215 59.2145 31.5373 65.7516 43.259 67.5622L43.3305 67.0992L43.259 67.5622C50.1387 68.6246 56.2151 66.8867 60.8438 61.2549L60.844 61.2546C62.2301 59.5657 63.6743 57.9223 65.2168 56.3924ZM15.2046 31.0166L15.2046 31.0163C15.228 29.6342 15.4576 28.3219 16.0604 26.9854C17.5607 36.2041 22.3897 43.3793 29.0228 49.3981L29.3588 49.0278L29.0228 49.3981C35.6757 55.4346 43.3137 59.5171 52.7361 60.1641C50.251 61.5637 47.7229 61.8409 45.113 61.5304C34.6641 60.2803 26.9116 54.5181 20.7169 46.2907C17.3135 41.7695 15.1024 36.7795 15.2046 31.0166Z" stroke="#D0C6F7" stroke-opacity="0.3"/>
<path d="M29.3438 28.318L29.3606 28.2485C29.6435 27.0723 29.6505 25.5869 28.8859 24.0908L28.8858 24.0906C28.3021 22.9471 28.9841 21.7313 29.8659 21.0539L29.8665 21.0535L29.8665 21.0535C30.8413 20.3068 32.0299 20.1251 33.1327 20.7574L29.3438 28.318ZM29.3438 28.318L29.3473 28.3895M29.3438 28.318L29.3473 28.3895M29.3473 28.3895C29.5827 33.2909 33.5311 37.3408 38.0947 37.7742L38.0952 37.7742C40.2909 37.9809 42.3236 37.4068 44.2626 36.7107C45.4426 36.2877 46.505 35.9107 47.6473 35.982L47.6478 35.982C48.2537 36.0191 48.9602 36.3105 49.5623 36.7594C50.169 37.2116 50.5951 37.7672 50.7272 38.2669C50.8555 38.7533 50.9148 39.1975 50.8522 39.575C50.7936 39.9287 50.6268 40.2394 50.2479 40.4912L50.2477 40.4914C49.6745 40.8729 49.157 40.9411 48.6484 40.8423C48.1132 40.7383 47.5603 40.4437 46.9502 40.0376L46.9501 40.0374C46.2021 39.54 45.3949 39.3506 44.6322 39.4742C43.8694 39.5979 43.1951 40.0278 42.7036 40.6878L42.7033 40.6881M29.3473 28.3895L42.7033 40.6881M35.0228 20.8456L35.0231 20.8455C38.0382 19.981 40.7773 20.6838 43.1261 22.6741L43.1262 22.6742C43.8217 23.2639 44.2463 23.9747 44.3477 24.7384C44.4494 25.5046 44.2174 26.263 43.7129 26.9255C43.213 27.5831 42.5437 28.0096 41.7827 28.1266C41.0226 28.2435 40.2233 28.0438 39.4738 27.5463L39.4733 27.5459C38.838 27.1231 38.255 26.8297 37.7028 26.746C37.1799 26.6668 36.6521 26.7704 36.0861 27.2209L36.0856 27.2213C35.7158 27.5149 35.5771 27.8602 35.5605 28.248C35.5428 28.661 35.6651 29.1303 35.8571 29.6205L35.0228 20.8456ZM35.0228 20.8456C34.2614 21.0644 33.7476 21.1095 33.1329 20.7576L35.0228 20.8456ZM39.398 31.6193L39.3985 31.6193C40.5024 31.4421 41.6038 31.0905 42.6844 30.6825C44.8305 29.8718 46.9209 29.5407 48.9128 29.8627C50.9118 30.1858 52.7709 31.1603 54.4561 32.8913L39.398 31.6193ZM39.398 31.6193C38.7886 31.7177 38.0179 31.5294 37.316 31.1284M39.398 31.6193L37.316 31.1284M57.2539 42.5446L57.2543 42.5452C57.6479 43.1177 57.828 43.7443 57.7757 44.3775C57.7237 45.0076 57.4452 45.6031 56.9921 46.1263C56.5477 46.6394 56.0012 47.0218 55.3859 47.1765C54.7605 47.3337 54.1027 47.2452 53.4779 46.8798C52.7017 46.4264 52.0541 46.5586 51.1192 46.8149L57.2539 42.5446ZM57.2539 42.5446C56.8108 41.9021 56.7706 41.3133 56.927 40.5169M57.2539 42.5446L56.927 40.5169M42.7033 40.6881C42.2086 41.3537 41.9831 42.1098 42.094 42.8742C42.2044 43.6355 42.6389 44.3414 43.3439 44.9318M42.7033 40.6881L43.3439 44.9318M37.316 31.1284C36.6132 30.7268 36.0708 30.1644 35.8572 29.6208L37.316 31.1284ZM56.927 40.5169C57.524 37.5069 56.4835 34.9722 54.4563 32.8915L56.927 40.5169ZM43.3439 44.9318C45.575 46.8015 48.1744 47.6231 51.1191 46.8149L43.3439 44.9318Z" stroke="#D0C6F7" stroke-opacity="0.3"/>
<g filter="url(#filter0_d_433_44)">
<path d="M33.6518 2.91063C41.0187 2.64146 47.5242 5.19039 53.4794 9.26521C61.8546 14.9949 68.1839 22.3772 70.944 32.3661C72.8601 39.2959 71.9397 45.6424 66.6002 50.9395C65.0419 52.4852 63.5859 54.1424 62.1931 55.8395C57.694 61.3137 51.8049 63.01 45.0709 61.9701C33.5094 60.1843 24.7994 53.7402 17.9054 44.6033C14.0925 39.552 11.5802 33.904 11.2203 27.4746C10.9646 22.8851 12.2568 18.7837 15.3411 15.3154C17.4773 12.9134 19.6186 10.5111 21.7894 8.14034C24.9727 4.66935 28.965 3.00883 33.6518 2.91063ZM66.5147 37.4732C66.405 36.4953 66.3588 35.3235 66.0718 34.1642C64.5404 27.9793 61.1552 22.8929 56.6692 18.5276C50.6377 12.6573 43.7065 8.48622 35.0598 8.04979C28.9385 7.74026 23.609 11.1916 23.3374 18.0353C23.2274 20.8343 23.7446 23.4785 24.7178 26.0429C27.6611 33.8034 32.9909 39.6215 39.8047 44.1241C44.7096 47.3643 50.0115 49.5468 56.0558 49.2605C63.1118 48.9263 66.8832 44.7484 66.5147 37.4732ZM56.0506 54.6415C46.0499 54.365 38.046 50.2374 31.0944 43.9299C24.1668 37.6439 19.2584 30.1186 18.0788 20.3162C16.8841 22.2063 16.4726 24.0045 16.4402 25.9099C16.3355 31.8171 18.6055 36.9136 22.0531 41.4935C28.3035 49.7949 36.1671 55.6581 46.7892 56.9289C49.9479 57.3048 53.0298 56.8459 56.0506 54.6415Z" fill="url(#paint0_linear_433_44)"/>
<path d="M31.5823 23.2676C31.887 22.0011 31.8965 20.3892 31.0667 18.7653C30.6447 17.9385 31.1072 16.9663 31.9061 16.3525C32.7467 15.7086 33.7183 15.5764 34.6197 16.0934C35.4085 16.5451 36.0852 16.4614 36.8965 16.2282C39.7386 15.4134 42.3069 16.0667 44.5384 17.9577C45.7806 19.0109 45.9234 20.3784 45.0507 21.5247C44.1876 22.6603 42.8131 22.9128 41.4859 22.0318C40.1797 21.1624 38.8571 20.6598 37.5103 21.7318C36.5196 22.5183 36.7253 23.6792 37.1273 24.7053C37.6641 26.0725 39.6986 27.2596 41.2133 27.015C42.3652 26.8301 43.5025 26.4655 44.5967 26.0523C48.7763 24.4735 52.5966 24.8172 55.8336 28.1424C57.7703 30.1301 58.731 32.5045 58.172 35.322C57.9995 36.2003 58.0332 36.9407 58.5778 37.7306C59.2492 38.707 59.143 39.7851 58.3497 40.701C57.5612 41.6116 56.499 41.9545 55.4659 41.3503C54.4958 40.7835 53.6621 40.9772 52.7225 41.2348C49.9638 41.992 47.5299 41.235 45.4005 39.4505C44.1351 38.3909 43.9831 37.0416 44.8402 35.8885C45.6832 34.7565 47.0946 34.4818 48.4087 35.3558C49.6544 36.1852 50.8923 36.7202 52.2603 35.8097C53.2648 35.142 53.216 34.0644 52.9463 33.0415C52.6039 31.7454 50.8674 30.4741 49.414 30.385C48.1517 30.3063 46.9918 30.7255 45.8292 31.1422C43.9058 31.8327 41.9593 32.3744 39.8776 32.1785C35.5658 31.7691 31.806 27.9249 31.5823 23.2676Z" fill="url(#paint1_linear_433_44)"/>
</g>
<defs>
<filter id="filter0_d_433_44" x="0.188721" y="0.891113" width="78.6724" height="77.3687" filterUnits="userSpaceOnUse" color-interpolation-filters="sRGB">
<feFlood flood-opacity="0" result="BackgroundImageFix"/>
<feColorMatrix in="SourceAlpha" type="matrix" values="0 0 0 0 0 0 0 0 0 0 0 0 0 0 0 0 0 0 127 0" result="hardAlpha"/>
<feOffset dx="-2" dy="7"/>
<feGaussianBlur stdDeviation="4.5"/>
<feComposite in2="hardAlpha" operator="out"/>
<feColorMatrix type="matrix" values="0 0 0 0 0.815686 0 0 0 0 0.776471 0 0 0 0 0.968627 0 0 0 0.6 0"/>
<feBlend mode="normal" in2="BackgroundImageFix" result="effect1_dropShadow_433_44"/>
<feBlend mode="normal" in="SourceGraphic" in2="effect1_dropShadow_433_44" result="shape"/>
</filter>
<linearGradient id="paint0_linear_433_44" x1="39.9562" y1="2.57006" x2="43.1012" y2="62.5809" gradientUnits="userSpaceOnUse">
<stop offset="0.438628" stop-color="white"/>
<stop offset="1" stop-color="white"/>
</linearGradient>
<linearGradient id="paint1_linear_433_44" x1="44.2631" y1="15.2068" x2="45.679" y2="42.2241" gradientUnits="userSpaceOnUse">
<stop offset="0.438628" stop-color="white"/>
<stop offset="1" stop-color="white"/>
</linearGradient>
</defs>
</svg>
