<svg width="81" height="84" viewBox="0 0 81 84" fill="none" xmlns="http://www.w3.org/2000/svg">
<g filter="url(#filter0_d_433_31)">
<path d="M27.722 23.0586L27.7221 23.0585C33.7013 17.2391 40.5236 13.15 49.0079 12.7218L49.0079 12.7218C51.9716 12.5719 54.7087 13.3342 56.728 14.9254C58.7376 16.5089 60.075 18.9427 60.2055 22.2275L27.722 23.0586ZM27.722 23.0586C23.286 27.3751 19.96 32.383 18.456 38.457C18.2511 39.2845 18.1762 40.1041 18.1044 40.8903C18.0797 41.1598 18.0555 41.4254 18.0264 41.6861C17.8497 45.2284 18.6824 47.943 20.3463 49.8097C22.0113 51.6777 24.575 52.771 28.0103 52.9337C33.911 53.2132 39.108 51.0862 43.9622 47.8795M27.722 23.0586L58.8572 30.0381M58.8572 30.0381L58.8572 30.0382C55.9587 37.6805 50.7082 43.4217 43.9622 47.8795M58.8572 30.0381C59.8101 27.527 60.3125 24.9499 60.2055 22.2277L58.8572 30.0381ZM43.9622 47.8795L44.2378 48.2967M43.9622 47.8795L44.2378 48.2967M44.2378 48.2967C51.0516 43.7941 56.3814 37.976 59.3247 30.2155L27.9866 53.4331C34.031 53.7194 39.3329 51.5369 44.2378 48.2967ZM17.0901 55.4671L17.0901 55.4671C11.5953 50.0159 10.6633 43.4695 12.6165 36.4056C15.4157 26.2754 21.8345 18.8035 30.2808 13.0251C36.2958 8.90935 42.9039 6.31034 50.405 6.58343C55.2157 6.6851 59.3398 8.39662 62.6215 11.975L62.6218 11.9753C64.7954 14.349 66.9388 16.7537 69.075 19.1557L69.075 19.1557C72.2538 22.7303 73.5839 26.964 73.3214 31.675L73.3214 31.6752C72.9548 38.2249 70.3944 43.9658 66.5362 49.0771C59.5854 58.2893 50.7696 64.8264 39.0479 66.6369L38.9764 66.1739L39.0479 66.6369C32.1682 67.6993 26.0918 65.9614 21.4631 60.3296L21.4629 60.3293C20.0768 58.6404 18.6326 56.997 17.0901 55.4671ZM67.1023 30.0913L67.1023 30.091C67.0789 28.7089 66.8493 27.3966 66.2465 26.0601C64.7462 35.2788 59.9172 42.4541 53.2841 48.4728L52.9481 48.1025L53.2841 48.4728C46.6312 54.5093 38.9931 58.5918 29.5707 59.2388C32.0559 60.6384 34.5839 60.9156 37.1939 60.6051C47.6428 59.355 55.3953 53.5928 61.5899 45.3654C64.9934 40.8442 67.2045 35.8542 67.1023 30.0913Z" stroke="#D0C6F7" stroke-opacity="0.3"/>
<path d="M46.1529 19.7338L46.22 19.7585C47.355 20.177 48.8294 20.3575 50.4047 19.7731L50.4049 19.773C51.6088 19.327 52.7365 20.1464 53.3062 21.1014L53.3065 21.102L53.3065 21.102C53.9341 22.1574 53.9757 23.3592 53.2188 24.3804L46.1529 19.7338ZM46.1529 19.7338L46.0815 19.7288M46.1529 19.7338L46.0815 19.7288M46.0815 19.7288C41.1862 19.3897 36.7025 22.8376 35.7386 27.3193L35.7385 27.3197C35.2767 29.4762 35.6092 31.5622 36.0738 33.5692C36.356 34.7905 36.6062 35.8897 36.4019 37.0158L36.4018 37.0164C36.2941 37.6138 35.9222 38.2813 35.406 38.8269C34.8859 39.3766 34.2843 39.7348 33.7727 39.8076C33.2746 39.8781 32.8265 39.8851 32.4589 39.7789C32.1145 39.6793 31.8254 39.4773 31.6196 39.0715L31.6194 39.0713C31.3076 38.4574 31.3003 37.9356 31.4579 37.442C31.6237 36.9226 31.9809 36.4079 32.4556 35.8495L32.4558 35.8494C33.0373 35.1647 33.3197 34.3852 33.286 33.6132C33.2524 32.8412 32.9043 32.1213 32.3062 31.556L32.3059 31.5557M46.0815 19.7288L32.3059 31.5557M52.9103 26.2473L52.9103 26.2476C53.4164 29.3431 52.3983 31.9812 50.1471 34.0813L50.147 34.0814C49.48 34.7032 48.7244 35.0418 47.9541 35.0532C47.1813 35.0647 46.4552 34.7456 45.8562 34.1671C45.2615 33.5938 44.9162 32.8792 44.889 32.1098C44.8617 31.3412 45.1535 30.5707 45.7352 29.8845L45.7356 29.884C46.2298 29.3026 46.5894 28.7578 46.737 28.2192C46.8768 27.7091 46.8356 27.1729 46.4543 26.558L46.454 26.5575C46.2057 26.1559 45.879 25.9778 45.4957 25.916C45.0877 25.8501 44.6072 25.9168 44.098 26.0501L52.9103 26.2473ZM52.9103 26.2473C52.782 25.4655 52.7972 24.95 53.2186 24.3806L52.9103 26.2473ZM41.6989 29.3331L41.699 29.3336C41.7459 30.4506 41.9663 31.5856 42.2452 32.7065C42.7994 34.9326 42.8839 37.0475 42.3313 38.988C41.7768 40.9356 40.5916 42.668 38.6755 44.1393L41.6989 29.3331ZM41.6989 29.3331C41.6724 28.7164 41.9496 27.973 42.4299 27.3228M41.6989 29.3331L42.4299 27.3228M28.7613 45.7895L28.7607 45.7898C28.1461 46.1138 27.5027 46.2194 26.88 46.0935C26.2603 45.9682 25.7014 45.622 25.2348 45.1108C24.7771 44.6095 24.4613 44.022 24.3795 43.3928C24.2965 42.7534 24.4613 42.1105 24.8972 41.5326C25.4383 40.8147 25.3827 40.1561 25.2374 39.1977L28.7613 45.7895ZM28.7613 45.7895C29.4512 45.4246 30.0407 45.4534 30.8134 45.7018M28.7613 45.7895L30.8134 45.7018M32.3059 31.5557C31.7028 30.9866 30.9782 30.6742 30.206 30.695C29.4371 30.7157 28.6852 31.0647 28.0165 31.6958M32.3059 31.5557L28.0165 31.6958M42.4299 27.3228C42.9109 26.6717 43.5328 26.1988 44.0977 26.0502L42.4299 27.3228ZM30.8134 45.7018C33.733 46.6466 36.3719 45.9095 38.6753 44.1394L30.8134 45.7018ZM28.0165 31.6958C25.8988 33.6931 24.779 36.1786 25.2374 39.1976L28.0165 31.6958Z" stroke="#D0C6F7" stroke-opacity="0.3"/>
</g>
<g filter="url(#filter1_d_433_31)">
<path d="M47.4083 2.91063C40.0414 2.64146 33.5358 5.19039 27.5807 9.26521C19.2055 14.9949 12.8762 22.3772 10.116 32.3661C8.19991 39.2959 9.12034 45.6424 14.4598 50.9395C16.0182 52.4852 17.4741 54.1424 18.867 55.8395C23.366 61.3137 29.2551 63.01 35.9891 61.9701C47.5507 60.1843 56.2607 53.7402 63.1547 44.6033C66.9676 39.552 69.4799 33.904 69.8397 27.4746C70.0955 22.8851 68.8032 18.7837 65.719 15.3154C63.5828 12.9134 61.4415 10.5111 59.2706 8.14034C56.0874 4.66935 52.095 3.00883 47.4083 2.91063ZM14.5454 37.4732C14.6551 36.4953 14.7013 35.3235 14.9882 34.1643C16.5197 27.9793 19.9048 22.8929 24.3909 18.5276C30.4224 12.6573 37.3535 8.48622 46.0003 8.04979C52.1216 7.74026 57.451 11.1916 57.7227 18.0353C57.8327 20.8343 57.3154 23.4785 56.3423 26.0429C53.399 33.8034 48.0692 39.6215 41.2554 44.1241C36.3505 47.3643 31.0485 49.5468 25.0042 49.2605C17.9483 48.9263 14.1768 44.7484 14.5454 37.4732ZM25.0094 54.6415C35.0101 54.365 43.0141 50.2374 49.9657 43.9299C56.8933 37.6439 61.8017 30.1186 62.9813 20.3162C64.176 22.2063 64.5875 24.0045 64.6198 25.9099C64.7245 31.8171 62.4546 36.9136 59.007 41.4935C52.7566 49.7949 44.893 55.6581 34.2708 56.9289C31.1122 57.3048 28.0303 56.8459 25.0094 54.6415Z" fill="url(#paint0_linear_433_31)"/>
<path d="M43.0646 16.055C44.2867 16.5057 45.8865 16.7036 47.5962 16.0693C48.4667 15.7468 49.3782 16.3197 49.8944 17.185C50.4356 18.0951 50.4533 19.0755 49.8345 19.9103C49.2937 20.6408 49.2977 21.3227 49.4344 22.1557C49.9115 25.0735 48.9624 27.5478 46.8236 29.5431C45.6324 30.6536 44.2575 30.6356 43.2211 29.6349C42.1942 28.6449 42.1041 27.2503 43.1342 26.0352C44.1503 24.8396 44.8041 23.5848 43.8968 22.1219C43.2316 21.0461 42.0546 21.1147 40.9885 21.3939C39.5679 21.7672 38.1511 23.6491 38.217 25.182C38.266 26.3476 38.4951 27.5197 38.7776 28.6547C39.857 32.9902 39.0691 36.7442 35.3884 39.5703C33.1878 41.2613 30.7174 41.9378 27.9846 41.0534C27.1325 40.7794 26.3932 40.7263 25.5451 41.1749C24.4969 41.7275 23.4386 41.496 22.6217 40.6011C21.8095 39.7116 21.5932 38.6165 22.3139 37.6612C22.9902 36.7639 22.8954 35.9133 22.7493 34.95C22.3198 32.1218 23.3561 29.793 25.3773 27.8868C26.5776 26.754 27.9354 26.7607 28.9804 27.7467C30.0061 28.7162 30.114 30.1502 29.0922 31.3531C28.1229 32.4933 27.447 33.6601 28.1912 35.1251C28.737 36.2009 29.8129 36.2783 30.8603 36.1301C32.1875 35.9415 33.6531 34.3655 33.9115 32.9325C34.1372 31.6881 33.8565 30.4871 33.5785 29.2838C33.1176 27.2928 32.8071 25.2964 33.245 23.2518C34.1557 19.0175 38.413 15.7328 43.0646 16.055Z" fill="url(#paint1_linear_433_31)"/>
</g>
<defs>
<filter id="filter0_d_433_31" x="0.182373" y="4.06372" width="80.6714" height="79.3682" filterUnits="userSpaceOnUse" color-interpolation-filters="sRGB">
<feFlood flood-opacity="0" result="BackgroundImageFix"/>
<feColorMatrix in="SourceAlpha" type="matrix" values="0 0 0 0 0 0 0 0 0 0 0 0 0 0 0 0 0 0 127 0" result="hardAlpha"/>
<feOffset dx="-2" dy="7"/>
<feGaussianBlur stdDeviation="4.5"/>
<feComposite in2="hardAlpha" operator="out"/>
<feColorMatrix type="matrix" values="0 0 0 0 0.815686 0 0 0 0 0.776471 0 0 0 0 0.968627 0 0 0 0.6 0"/>
<feBlend mode="normal" in2="BackgroundImageFix" result="effect1_dropShadow_433_31"/>
<feBlend mode="normal" in="SourceGraphic" in2="effect1_dropShadow_433_31" result="shape"/>
</filter>
<filter id="filter1_d_433_31" x="2.19897" y="0.891113" width="78.6724" height="77.3687" filterUnits="userSpaceOnUse" color-interpolation-filters="sRGB">
<feFlood flood-opacity="0" result="BackgroundImageFix"/>
<feColorMatrix in="SourceAlpha" type="matrix" values="0 0 0 0 0 0 0 0 0 0 0 0 0 0 0 0 0 0 127 0" result="hardAlpha"/>
<feOffset dx="2" dy="7"/>
<feGaussianBlur stdDeviation="4.5"/>
<feComposite in2="hardAlpha" operator="out"/>
<feColorMatrix type="matrix" values="0 0 0 0 0.815686 0 0 0 0 0.776471 0 0 0 0 0.968627 0 0 0 0.6 0"/>
<feBlend mode="normal" in2="BackgroundImageFix" result="effect1_dropShadow_433_31"/>
<feBlend mode="normal" in="SourceGraphic" in2="effect1_dropShadow_433_31" result="shape"/>
</filter>
<linearGradient id="paint0_linear_433_31" x1="41.1039" y1="2.57006" x2="37.9588" y2="62.5809" gradientUnits="userSpaceOnUse">
<stop offset="0.438628" stop-color="white"/>
<stop offset="1" stop-color="white"/>
</linearGradient>
<linearGradient id="paint1_linear_433_31" x1="49.5878" y1="29.5911" x2="22.5902" y2="27.8392" gradientUnits="userSpaceOnUse">
<stop offset="0.438628" stop-color="white"/>
<stop offset="1" stop-color="white"/>
</linearGradient>
</defs>
</svg>
