<svg width="81" height="84" viewBox="0 0 81 84" fill="none" xmlns="http://www.w3.org/2000/svg">
<g filter="url(#filter0_d_332_6357)">
<path d="M27.7396 22.886L27.7396 22.8859C33.7189 17.0665 40.5412 12.9774 49.0255 12.5492L49.0255 12.5492C51.9892 12.3993 54.7263 13.1616 56.7456 14.7528C58.7552 16.3363 60.0926 18.7701 60.2231 22.0549L27.7396 22.886ZM27.7396 22.886C23.3036 27.2025 19.9775 32.2104 18.4736 38.2844C18.2687 39.1119 18.1938 39.9315 18.1219 40.7177C18.0973 40.9872 18.073 41.2528 18.044 41.5135C17.8673 45.0558 18.7 47.7704 20.3639 49.6371C22.0289 51.5051 24.5925 52.5984 28.0279 52.7611C33.9286 53.0406 39.1256 50.9136 43.9797 47.7069M27.7396 22.886L58.8748 29.8655M58.8748 29.8655L58.8748 29.8656C55.9763 37.5079 50.7258 43.2491 43.9797 47.7069M58.8748 29.8655C59.8277 27.3544 60.33 24.7773 60.2231 22.0551L58.8748 29.8655ZM43.9797 47.7069L44.2554 48.1241M43.9797 47.7069L44.2554 48.1241M44.2554 48.1241C51.0692 43.6215 56.399 37.8034 59.3423 30.0429L28.0042 53.2605C34.0485 53.5468 39.3505 51.3643 44.2554 48.1241ZM17.1077 55.2945L17.1077 55.2945C11.6128 49.8433 10.6809 43.2969 12.6341 36.233C15.4333 26.1028 21.8521 18.6309 30.2983 12.8525C36.3134 8.73675 42.9215 6.13774 50.4226 6.41083C55.2332 6.51251 59.3574 8.22402 62.6391 11.8024L62.6394 11.8027C64.813 14.1764 66.9564 16.5811 69.0926 18.9831L69.0926 18.9831C72.2714 22.5577 73.6015 26.7914 73.3389 31.5024L73.3389 31.5026C72.9724 38.0523 70.412 43.7932 66.5537 48.9045C59.603 58.1167 50.7872 64.6538 39.0654 66.4643L38.9939 66.0013L39.0654 66.4643C32.1858 67.5267 26.1093 65.7888 21.4807 60.157L21.4805 60.1567C20.0944 58.4678 18.6502 56.8244 17.1077 55.2945ZM67.1199 29.9187L67.1199 29.9184C67.0965 28.5363 66.8668 27.224 66.264 25.8875C64.7638 35.1062 59.9348 42.2815 53.3017 48.3002L52.9657 47.9299L53.3017 48.3002C46.6488 54.3367 39.0107 58.4192 29.5883 59.0662C32.0734 60.4658 34.6015 60.743 37.2114 60.4325C47.6603 59.1824 55.4129 53.4202 61.6075 45.1928C65.011 40.6716 67.222 35.6816 67.1199 29.9187Z" stroke="#D0C6F7" stroke-opacity="0.3"/>
<path d="M46.1706 19.5612L46.2377 19.5859C47.3727 20.0045 48.8471 20.185 50.4224 19.6005L50.4226 19.6005C51.6265 19.1544 52.7542 19.9738 53.3239 20.9288L53.3242 20.9294L53.3242 20.9294C53.9518 21.9848 53.9934 23.1866 53.2365 24.2078L46.1706 19.5612ZM46.1706 19.5612L46.0992 19.5562M46.1706 19.5612L46.0992 19.5562M46.0992 19.5562C41.2039 19.2172 36.7202 22.6651 35.7563 27.1467L35.7562 27.1471C35.2944 29.3036 35.6269 31.3896 36.0915 33.3966C36.3737 34.6179 36.6239 35.7172 36.4196 36.8433L36.4195 36.8438C36.3118 37.4412 35.9399 38.1088 35.4237 38.6543C34.9036 39.204 34.302 39.5623 33.7904 39.635C33.2923 39.7055 32.8442 39.7125 32.4766 39.6063C32.1322 39.5067 31.8431 39.3047 31.6373 38.899L31.6371 38.8987C31.3253 38.2848 31.318 37.763 31.4756 37.2694C31.6414 36.75 31.9986 36.2353 32.4733 35.677L32.4735 35.6768C33.055 34.9922 33.3374 34.2126 33.3037 33.4406C33.2701 32.6686 32.922 31.9487 32.3239 31.3834L32.3236 31.3831M46.0992 19.5562L32.3236 31.3831M52.928 26.0747L52.928 26.075C53.4341 29.1705 52.416 31.8086 50.1648 33.9087L50.1647 33.9088C49.4977 34.5306 48.7421 34.8692 47.9718 34.8806C47.199 34.8921 46.4729 34.573 45.8739 33.9946C45.2792 33.4212 44.9339 32.7066 44.9067 31.9372C44.8794 31.1686 45.1712 30.3981 45.7529 29.7119L45.7533 29.7115C46.2475 29.13 46.6071 28.5852 46.7547 28.0467C46.8945 27.5365 46.8533 27.0003 46.472 26.3854L46.4717 26.3849C46.2234 25.9833 45.8967 25.8052 45.5134 25.7434C45.1054 25.6775 44.6249 25.7442 44.1157 25.8776L52.928 26.0747ZM52.928 26.0747C52.7997 25.293 52.8149 24.7774 53.2363 24.2081L52.928 26.0747ZM41.7166 29.1606L41.7167 29.161C41.7636 30.278 41.984 31.4131 42.2629 32.5339C42.8171 34.76 42.9016 36.8749 42.349 38.8155C41.7945 40.763 40.6093 42.4954 38.6932 43.9667L41.7166 29.1606ZM41.7166 29.1606C41.6901 28.5438 41.9673 27.8004 42.4476 27.1502M41.7166 29.1606L42.4476 27.1502M28.779 45.6169L28.7784 45.6172C28.1638 45.9412 27.5204 46.0468 26.8977 45.9209C26.278 45.7956 25.7191 45.4494 25.2525 44.9382C24.7948 44.4369 24.479 43.8495 24.3972 43.2203C24.3142 42.5808 24.479 41.9379 24.9149 41.3601C25.456 40.6421 25.4004 39.9836 25.2551 39.0251L28.779 45.6169ZM28.779 45.6169C29.4689 45.252 30.0584 45.2808 30.8311 45.5292M28.779 45.6169L30.8311 45.5292M32.3236 31.3831C31.7205 30.814 30.9959 30.5017 30.2237 30.5224C29.4548 30.5431 28.7029 30.8921 28.0342 31.5232M32.3236 31.3831L28.0342 31.5232M42.4476 27.1502C42.9286 26.4991 43.5505 26.0262 44.1154 25.8777L42.4476 27.1502ZM30.8311 45.5292C33.7507 46.474 36.3896 45.7369 38.693 43.9669L30.8311 45.5292ZM28.0342 31.5232C25.9165 33.5205 24.7967 36.006 25.2551 39.025L28.0342 31.5232Z" stroke="#D0C6F7" stroke-opacity="0.3"/>
</g>
<g filter="url(#filter1_d_332_6357)">
<path d="M47.4258 2.73816C40.0589 2.469 33.5534 5.01793 27.5982 9.09275C19.2231 14.8224 12.8938 22.2047 10.1336 32.1937C8.21749 39.1235 9.13792 45.47 14.4774 50.767C16.0358 52.3127 17.4917 53.9699 18.8845 55.667C23.3836 61.1412 29.2727 62.8376 36.0067 61.7977C47.5683 60.0119 56.2782 53.5677 63.1723 44.4308C66.9851 39.3796 69.4975 33.7315 69.8573 27.3021C70.1131 22.7126 68.8208 18.6113 65.7365 15.1429C63.6003 12.7409 61.4591 10.3387 59.2882 7.96788C56.1049 4.49689 52.1126 2.83637 47.4258 2.73816ZM14.563 37.3007C14.6727 36.3228 14.7188 35.151 15.0058 33.9918C16.5372 27.8068 19.9224 22.7205 24.4085 18.3552C30.44 12.4848 37.3711 8.31375 46.0178 7.87733C52.1391 7.5678 57.4686 11.0191 57.7403 17.8628C57.8503 20.6618 57.333 23.306 56.3598 25.8704C53.4166 33.6309 48.0868 39.449 41.273 43.9516C36.368 47.1919 31.0661 49.3743 25.0218 49.0881C17.9659 48.7539 14.1944 44.576 14.563 37.3007ZM25.027 54.469C35.0277 54.1925 43.0317 50.065 49.9833 43.7574C56.9109 37.4715 61.8192 29.9461 62.9989 20.1438C64.1935 22.0338 64.6051 23.832 64.6374 25.7374C64.7421 31.6446 62.4722 36.7412 59.0246 41.321C52.7742 49.6224 44.9105 55.4857 34.2884 56.7565C31.1298 57.1323 28.0479 56.6734 25.027 54.469Z" fill="url(#paint0_linear_332_6357)"/>
<path d="M43.0823 15.8826C44.3044 16.3332 45.9042 16.5312 47.6139 15.8969C48.4844 15.5744 49.3959 16.1473 49.9121 17.0125C50.4533 17.9226 50.471 18.903 49.8522 19.7378C49.3114 20.4683 49.3154 21.1503 49.4521 21.9832C49.9292 24.9011 48.9801 27.3754 46.8413 29.3706C45.6501 30.4811 44.2752 30.4631 43.2388 29.4624C42.2119 28.4725 42.1218 27.0779 43.1519 25.8628C44.168 24.6671 44.8218 23.4124 43.9145 21.9495C43.2493 20.8736 42.0723 20.9422 41.0062 21.2215C39.5856 21.5948 38.1688 23.4766 38.2347 25.0095C38.2837 26.1751 38.5128 27.3473 38.7953 28.4822C39.8747 32.8178 39.0868 36.5717 35.4061 39.3978C33.2055 41.0889 30.7351 41.7654 28.0023 40.881C27.1502 40.6069 26.4109 40.5539 25.5628 41.0024C24.5146 41.555 23.4563 41.3236 22.6394 40.4287C21.8272 39.5391 21.6109 38.4441 22.3316 37.4887C23.0079 36.5915 22.9131 35.7409 22.767 34.7776C22.3375 31.9493 23.3738 29.6206 25.395 27.7144C26.5953 26.5815 27.9531 26.5883 28.9981 27.5743C30.0238 28.5438 30.1317 29.9777 29.1099 31.1806C28.1406 32.3208 27.4647 33.4877 28.2089 34.9527C28.7547 36.0284 29.8306 36.1059 30.878 35.9576C32.2052 35.7691 33.6708 34.1931 33.9292 32.76C34.1549 31.5156 33.8742 30.3147 33.5962 29.1114C33.1353 27.1204 32.8248 25.1239 33.2627 23.0794C34.1734 18.845 38.4307 15.5604 43.0823 15.8826Z" fill="url(#paint1_linear_332_6357)"/>
</g>
<defs>
<filter id="filter0_d_332_6357" x="0.199829" y="3.8912" width="80.6714" height="79.368" filterUnits="userSpaceOnUse" color-interpolation-filters="sRGB">
<feFlood flood-opacity="0" result="BackgroundImageFix"/>
<feColorMatrix in="SourceAlpha" type="matrix" values="0 0 0 0 0 0 0 0 0 0 0 0 0 0 0 0 0 0 127 0" result="hardAlpha"/>
<feOffset dx="-2" dy="7"/>
<feGaussianBlur stdDeviation="4.5"/>
<feComposite in2="hardAlpha" operator="out"/>
<feColorMatrix type="matrix" values="0 0 0 0 0.815686 0 0 0 0 0.776471 0 0 0 0 0.968627 0 0 0 0.6 0"/>
<feBlend mode="normal" in2="BackgroundImageFix" result="effect1_dropShadow_332_6357"/>
<feBlend mode="normal" in="SourceGraphic" in2="effect1_dropShadow_332_6357" result="shape"/>
</filter>
<filter id="filter1_d_332_6357" x="2.21655" y="0.718742" width="78.6724" height="77.3686" filterUnits="userSpaceOnUse" color-interpolation-filters="sRGB">
<feFlood flood-opacity="0" result="BackgroundImageFix"/>
<feColorMatrix in="SourceAlpha" type="matrix" values="0 0 0 0 0 0 0 0 0 0 0 0 0 0 0 0 0 0 127 0" result="hardAlpha"/>
<feOffset dx="2" dy="7"/>
<feGaussianBlur stdDeviation="4.5"/>
<feComposite in2="hardAlpha" operator="out"/>
<feColorMatrix type="matrix" values="0 0 0 0 0.815686 0 0 0 0 0.776471 0 0 0 0 0.968627 0 0 0 0.6 0"/>
<feBlend mode="normal" in2="BackgroundImageFix" result="effect1_dropShadow_332_6357"/>
<feBlend mode="normal" in="SourceGraphic" in2="effect1_dropShadow_332_6357" result="shape"/>
</filter>
<linearGradient id="paint0_linear_332_6357" x1="41.1214" y1="2.3976" x2="37.9764" y2="62.4085" gradientUnits="userSpaceOnUse">
<stop offset="0.438628" stop-color="white"/>
<stop offset="1" stop-color="white"/>
</linearGradient>
<linearGradient id="paint1_linear_332_6357" x1="49.6055" y1="29.4187" x2="22.6079" y2="27.6668" gradientUnits="userSpaceOnUse">
<stop offset="0.438628" stop-color="white"/>
<stop offset="1" stop-color="white"/>
</linearGradient>
</defs>
</svg>
