<svg width="1440" height="13" viewBox="0 0 1440 13" fill="none" xmlns="http://www.w3.org/2000/svg">
<path fill-rule="evenodd" clip-rule="evenodd" d="M923.368 3L925.123 0.435316C925.31 0.162892 925.618 0 925.948 0H943.738C944.052 0 944.348 0.14764 944.537 0.398655L946.495 3H1136.34L1138.04 0.444413C1138.23 0.166726 1138.54 0 1138.88 0H1199.5C1199.84 0 1200.16 0.177242 1200.35 0.469121L1201.93 3H1440V5H1135H947.658H922.342H920.668L918.968 7.55419C918.782 7.83268 918.47 8 918.135 8H902.59C902.24 8 901.916 7.81713 901.734 7.5178L900.211 5H897.829H885.171H884.886L882.505 5.93131C882.388 5.9767 882.265 6 882.14 6H844.18C844.044 6 843.909 5.97231 843.784 5.91861L841.649 5H587.098L581.982 10.6699C581.792 10.88 581.523 11 581.24 11H576.56C576.271 11 575.996 10.875 575.806 10.6573L570.872 5H568.814H546.194H543.472L542.348 5.81101C542.177 5.93388 541.973 6 541.763 6H372.056L366.714 12.6276C366.524 12.8631 366.237 13 365.935 13H208.057C207.766 13 207.489 12.8729 207.299 12.652L200.72 5H32.0952L27.6289 9.68966C27.4402 9.88783 27.1784 10 26.9048 10H0C-0.552285 10 -1 9.55228 -1 9V4C-1 3.44792 -0.552614 3.00033 -0.000610352 3C-0.000406742 3 -0.000203133 3 4.76837e-07 3H33.4848H199H357H547.416L548.595 1.45753C548.809 1.17813 549.263 1 549.762 1H564.975C565.456 1 565.897 1.16587 566.119 1.43033L567.439 3H837.697H885.855L886.451 1.60681C886.608 1.23874 886.97 1 887.37 1H895.484C895.871 1 896.224 1.22378 896.389 1.57435L897.059 3H899.303H921.697H923.368Z" fill="url(#paint0_linear_65_276)"/>
<defs>
<linearGradient id="paint0_linear_65_276" x1="1427.49" y1="-0.181356" x2="21.5164" y2="-0.180298" gradientUnits="userSpaceOnUse">
<stop stop-color="#FEB8FF"/>
<stop offset="1" stop-color="#422A80"/>
</linearGradient>
</defs>
</svg>
