<svg width="1167" height="149" viewBox="0 0 1167 149" fill="none" xmlns="http://www.w3.org/2000/svg">
<g opacity="0.7" filter="url(#filter0_di_303_4639)">
<mask id="path-1-outside-1_303_4639" maskUnits="userSpaceOnUse" x="4" y="67.8037" width="1159" height="77" fill="black">
<rect fill="white" x="4" y="67.8037" width="1159" height="77"/>
<path fill-rule="evenodd" clip-rule="evenodd" d="M84.5697 76.9997C84.3413 76.9997 84.1198 77.0778 83.942 77.2212L5.3724 140.568C4.8201 141.013 4.89424 141.876 5.51441 142.221L8.13751 143.678C8.48863 143.873 8.9224 143.839 9.2389 143.592L83.9454 85.2117C84.1212 85.0743 84.338 84.9997 84.5612 84.9997H539.183C539.204 84.9997 539.223 84.9885 539.233 84.9704V84.9704C539.243 84.9523 539.263 84.9411 539.283 84.9411L627.717 84.9997H628.217H1082.37C1082.6 84.9997 1082.81 85.0743 1082.99 85.2117L1157.69 143.592C1158.01 143.839 1158.44 143.873 1158.8 143.678L1161.42 142.221C1162.04 141.876 1162.11 141.013 1161.56 140.568L1082.99 77.2212C1082.81 77.0778 1082.59 76.9997 1082.36 76.9997H623.846C623.499 76.9997 623.177 76.8197 622.995 76.5242L618.651 69.4751C618.469 69.1796 618.147 68.9997 617.8 68.9997H549.162C548.807 68.9997 548.479 69.1873 548.3 69.4928L539.978 83.6459L542.878 78.4899C543.253 77.8233 542.772 76.9997 542.007 76.9997H84.5697Z"/>
</mask>
<path fill-rule="evenodd" clip-rule="evenodd" d="M84.5697 76.9997C84.3413 76.9997 84.1198 77.0778 83.942 77.2212L5.3724 140.568C4.8201 141.013 4.89424 141.876 5.51441 142.221L8.13751 143.678C8.48863 143.873 8.9224 143.839 9.2389 143.592L83.9454 85.2117C84.1212 85.0743 84.338 84.9997 84.5612 84.9997H539.183C539.204 84.9997 539.223 84.9885 539.233 84.9704V84.9704C539.243 84.9523 539.263 84.9411 539.283 84.9411L627.717 84.9997H628.217H1082.37C1082.6 84.9997 1082.81 85.0743 1082.99 85.2117L1157.69 143.592C1158.01 143.839 1158.44 143.873 1158.8 143.678L1161.42 142.221C1162.04 141.876 1162.11 141.013 1161.56 140.568L1082.99 77.2212C1082.81 77.0778 1082.59 76.9997 1082.36 76.9997H623.846C623.499 76.9997 623.177 76.8197 622.995 76.5242L618.651 69.4751C618.469 69.1796 618.147 68.9997 617.8 68.9997H549.162C548.807 68.9997 548.479 69.1873 548.3 69.4928L539.978 83.6459L542.878 78.4899C543.253 77.8233 542.772 76.9997 542.007 76.9997H84.5697Z" fill="#D0C6F7" fill-opacity="0.15" shape-rendering="crispEdges"/>
<path d="M627.717 84.9997V85.9997L627.716 85.9997L627.717 84.9997ZM539.978 83.6459L540.84 84.1527L539.107 83.1556L539.978 83.6459ZM542.878 78.4899L543.75 78.9802L542.878 78.4899ZM548.3 69.4928L549.162 69.9997L548.3 69.4928ZM618.651 69.4751L619.503 68.9505L618.651 69.4751ZM1161.42 142.221L1161.9 143.095L1161.42 142.221ZM1161.56 140.568L1160.93 141.346L1161.56 140.568ZM1157.69 143.592L1157.08 144.38L1157.69 143.592ZM1158.8 143.678L1159.28 144.552L1158.8 143.678ZM1082.99 85.2117L1083.6 84.4238L1082.99 85.2117ZM539.283 84.9411L539.284 83.9411L539.283 84.9411ZM83.9454 85.2117L84.5612 85.9997L83.9454 85.2117ZM9.2389 143.592L8.62315 142.804L9.2389 143.592ZM622.995 76.5242L622.143 77.0488L622.995 76.5242ZM83.942 77.2212L84.5697 77.9997L83.942 77.2212ZM1082.99 77.2212L1083.62 76.4427L1082.99 77.2212ZM4.74474 139.789L83.3144 76.4427L84.5697 77.9997L6.00006 141.346L4.74474 139.789ZM7.65186 144.552L5.02877 143.095L6.00006 141.346L8.62315 142.804L7.65186 144.552ZM84.5612 85.9997L9.85464 144.38L8.62315 142.804L83.3297 84.4238L84.5612 85.9997ZM539.183 85.9997H84.5612V83.9997H539.183V85.9997ZM539.284 83.9411L627.717 83.9997L627.716 85.9997L539.283 85.9411L539.284 83.9411ZM627.717 83.9997H628.217V85.9997H627.717V83.9997ZM628.217 83.9997H1082.37V85.9997H628.217V83.9997ZM1083.6 84.4238L1158.31 142.804L1157.08 144.38L1082.37 85.9997L1083.6 84.4238ZM1158.31 142.804L1160.93 141.346L1161.9 143.095L1159.28 144.552L1158.31 142.804ZM1160.93 141.346L1082.36 77.9997L1083.62 76.4427L1162.19 139.789L1160.93 141.346ZM1082.36 77.9997H623.846V75.9997H1082.36V77.9997ZM622.143 77.0488L617.8 69.9997L619.503 68.9505L623.846 75.9997L622.143 77.0488ZM617.8 69.9997H549.162V67.9997H617.8V69.9997ZM549.162 69.9997L540.84 84.1527L539.116 83.139L547.438 68.986L549.162 69.9997ZM543.75 78.9802L540.85 84.1361L539.107 83.1556L542.007 77.9997L543.75 78.9802ZM84.5697 75.9997H542.007V77.9997H84.5697V75.9997ZM542.007 77.9997L542.007 77.9997V75.9997C543.537 75.9997 544.5 77.647 543.75 78.9802L542.007 77.9997ZM549.162 69.9997L549.162 69.9997L547.438 68.986C547.797 68.3749 548.453 67.9997 549.162 67.9997V69.9997ZM617.8 69.9997L617.8 69.9997V67.9997C618.494 67.9997 619.139 68.3596 619.503 68.9505L617.8 69.9997ZM1160.93 141.346L1160.93 141.346L1162.19 139.789C1163.29 140.68 1163.15 142.406 1161.9 143.095L1160.93 141.346ZM1158.31 142.804L1158.31 142.804L1159.28 144.552C1158.58 144.942 1157.71 144.874 1157.08 144.38L1158.31 142.804ZM1082.37 83.9997C1082.82 83.9997 1083.25 84.149 1083.6 84.4238L1082.37 85.9997L1082.37 85.9997V83.9997ZM538.362 84.4801C538.549 84.1469 538.902 83.9409 539.284 83.9411L539.283 85.9411C539.623 85.9413 539.938 85.7577 540.105 85.4607L538.362 84.4801ZM539.183 83.9997C538.843 83.9997 538.529 84.1833 538.362 84.4801L540.105 85.4607C539.917 85.7936 539.565 85.9997 539.183 85.9997V83.9997ZM83.3297 84.4238C83.6813 84.149 84.1149 83.9997 84.5612 83.9997V85.9997L84.5612 85.9997L83.3297 84.4238ZM8.62315 142.804L8.62315 142.804L9.85464 144.38C9.22166 144.874 8.35412 144.942 7.65186 144.552L8.62315 142.804ZM623.846 77.9997C623.152 77.9997 622.507 77.6398 622.143 77.0488L623.846 75.9997L623.846 75.9997V77.9997ZM83.3144 76.4427C83.6699 76.156 84.1129 75.9997 84.5697 75.9997V77.9997L84.5697 77.9997L83.3144 76.4427ZM1082.36 77.9997L1082.36 77.9997V75.9997C1082.82 75.9997 1083.26 76.156 1083.62 76.4427L1082.36 77.9997ZM6.00006 141.346L6.00006 141.346L5.02877 143.095C3.78843 142.406 3.64014 140.68 4.74474 139.789L6.00006 141.346Z" fill="#FFBCFF" mask="url(#path-1-outside-1_303_4639)"/>
</g>
<g filter="url(#filter1_b_303_4639)">
<g opacity="0.7" filter="url(#filter2_di_303_4639)">
<circle cx="582.5" cy="69.5" r="64.5" fill="#D0C6F7" fill-opacity="0.15" shape-rendering="crispEdges"/>
<circle cx="582.5" cy="69.5" r="64.75" stroke="#FFBCFF" stroke-width="0.5" shape-rendering="crispEdges"/>
</g>
<g filter="url(#filter3_di_303_4639)">
<circle cx="582.5" cy="69.5005" r="49.45" fill="#D0C6F7" fill-opacity="0.15" shape-rendering="crispEdges"/>
<circle cx="582.5" cy="69.5005" r="49.95" stroke="#FFBCFF" shape-rendering="crispEdges"/>
</g>
</g>
<g filter="url(#filter4_f_303_4639)">
<path d="M575.76 54.84V64.864H588.584L595.08 68.616V85.528L588.584 89.28H575.536L569.04 85.528V79.2H574.64V84.24H589.48V69.904H570.16V49.8H594.52V54.84H575.76Z" fill="white"/>
</g>
<g filter="url(#filter5_d_303_4639)">
<path d="M575.76 54.84V64.864H588.584L595.08 68.616V85.528L588.584 89.28H575.536L569.04 85.528V79.2H574.64V84.24H589.48V69.904H570.16V49.8H594.52V54.84H575.76Z" fill="#FFBCFF"/>
</g>
<path d="M575.76 54.84V64.864H588.584L595.08 68.616V85.528L588.584 89.28H575.536L569.04 85.528V79.2H574.64V84.24H589.48V69.904H570.16V49.8H594.52V54.84H575.76Z" fill="white"/>
<defs>
<filter id="filter0_di_303_4639" x="-6.10352e-05" y="63.9998" width="1166.93" height="84.804" filterUnits="userSpaceOnUse" color-interpolation-filters="sRGB">
<feFlood flood-opacity="0" result="BackgroundImageFix"/>
<feColorMatrix in="SourceAlpha" type="matrix" values="0 0 0 0 0 0 0 0 0 0 0 0 0 0 0 0 0 0 127 0" result="hardAlpha"/>
<feOffset/>
<feGaussianBlur stdDeviation="2"/>
<feComposite in2="hardAlpha" operator="out"/>
<feColorMatrix type="matrix" values="0 0 0 0 1 0 0 0 0 0.737255 0 0 0 0 1 0 0 0 1 0"/>
<feBlend mode="normal" in2="BackgroundImageFix" result="effect1_dropShadow_303_4639"/>
<feBlend mode="normal" in="SourceGraphic" in2="effect1_dropShadow_303_4639" result="shape"/>
<feColorMatrix in="SourceAlpha" type="matrix" values="0 0 0 0 0 0 0 0 0 0 0 0 0 0 0 0 0 0 127 0" result="hardAlpha"/>
<feOffset/>
<feGaussianBlur stdDeviation="3"/>
<feComposite in2="hardAlpha" operator="arithmetic" k2="-1" k3="1"/>
<feColorMatrix type="matrix" values="0 0 0 0 1 0 0 0 0 0.737255 0 0 0 0 1 0 0 0 1 0"/>
<feBlend mode="normal" in2="shape" result="effect2_innerShadow_303_4639"/>
</filter>
<filter id="filter1_b_303_4639" x="473.5" y="-39.5" width="218" height="218" filterUnits="userSpaceOnUse" color-interpolation-filters="sRGB">
<feFlood flood-opacity="0" result="BackgroundImageFix"/>
<feGaussianBlur in="BackgroundImage" stdDeviation="22"/>
<feComposite in2="SourceAlpha" operator="in" result="effect1_backgroundBlur_303_4639"/>
<feBlend mode="normal" in="SourceGraphic" in2="effect1_backgroundBlur_303_4639" result="shape"/>
</filter>
<filter id="filter2_di_303_4639" x="513.5" y="0.5" width="138" height="138" filterUnits="userSpaceOnUse" color-interpolation-filters="sRGB">
<feFlood flood-opacity="0" result="BackgroundImageFix"/>
<feColorMatrix in="SourceAlpha" type="matrix" values="0 0 0 0 0 0 0 0 0 0 0 0 0 0 0 0 0 0 127 0" result="hardAlpha"/>
<feOffset/>
<feGaussianBlur stdDeviation="2"/>
<feComposite in2="hardAlpha" operator="out"/>
<feColorMatrix type="matrix" values="0 0 0 0 1 0 0 0 0 0.737255 0 0 0 0 1 0 0 0 1 0"/>
<feBlend mode="normal" in2="BackgroundImageFix" result="effect1_dropShadow_303_4639"/>
<feBlend mode="normal" in="SourceGraphic" in2="effect1_dropShadow_303_4639" result="shape"/>
<feColorMatrix in="SourceAlpha" type="matrix" values="0 0 0 0 0 0 0 0 0 0 0 0 0 0 0 0 0 0 127 0" result="hardAlpha"/>
<feOffset/>
<feGaussianBlur stdDeviation="3"/>
<feComposite in2="hardAlpha" operator="arithmetic" k2="-1" k3="1"/>
<feColorMatrix type="matrix" values="0 0 0 0 1 0 0 0 0 0.737255 0 0 0 0 1 0 0 0 1 0"/>
<feBlend mode="normal" in2="shape" result="effect2_innerShadow_303_4639"/>
</filter>
<filter id="filter3_di_303_4639" x="528.05" y="15.0505" width="108.9" height="108.9" filterUnits="userSpaceOnUse" color-interpolation-filters="sRGB">
<feFlood flood-opacity="0" result="BackgroundImageFix"/>
<feColorMatrix in="SourceAlpha" type="matrix" values="0 0 0 0 0 0 0 0 0 0 0 0 0 0 0 0 0 0 127 0" result="hardAlpha"/>
<feOffset/>
<feGaussianBlur stdDeviation="2"/>
<feComposite in2="hardAlpha" operator="out"/>
<feColorMatrix type="matrix" values="0 0 0 0 1 0 0 0 0 0.737255 0 0 0 0 1 0 0 0 1 0"/>
<feBlend mode="normal" in2="BackgroundImageFix" result="effect1_dropShadow_303_4639"/>
<feBlend mode="normal" in="SourceGraphic" in2="effect1_dropShadow_303_4639" result="shape"/>
<feColorMatrix in="SourceAlpha" type="matrix" values="0 0 0 0 0 0 0 0 0 0 0 0 0 0 0 0 0 0 127 0" result="hardAlpha"/>
<feOffset/>
<feGaussianBlur stdDeviation="3"/>
<feComposite in2="hardAlpha" operator="arithmetic" k2="-1" k3="1"/>
<feColorMatrix type="matrix" values="0 0 0 0 1 0 0 0 0 0.737255 0 0 0 0 1 0 0 0 1 0"/>
<feBlend mode="normal" in2="shape" result="effect2_innerShadow_303_4639"/>
</filter>
<filter id="filter4_f_303_4639" x="538.04" y="18.8" width="88.0399" height="101.48" filterUnits="userSpaceOnUse" color-interpolation-filters="sRGB">
<feFlood flood-opacity="0" result="BackgroundImageFix"/>
<feBlend mode="normal" in="SourceGraphic" in2="BackgroundImageFix" result="shape"/>
<feGaussianBlur stdDeviation="15.5" result="effect1_foregroundBlur_303_4639"/>
</filter>
<filter id="filter5_d_303_4639" x="561.04" y="41.8" width="42.0399" height="55.48" filterUnits="userSpaceOnUse" color-interpolation-filters="sRGB">
<feFlood flood-opacity="0" result="BackgroundImageFix"/>
<feColorMatrix in="SourceAlpha" type="matrix" values="0 0 0 0 0 0 0 0 0 0 0 0 0 0 0 0 0 0 127 0" result="hardAlpha"/>
<feOffset/>
<feGaussianBlur stdDeviation="4"/>
<feComposite in2="hardAlpha" operator="out"/>
<feColorMatrix type="matrix" values="0 0 0 0 1 0 0 0 0 0.737255 0 0 0 0 1 0 0 0 1 0"/>
<feBlend mode="normal" in2="BackgroundImageFix" result="effect1_dropShadow_303_4639"/>
<feBlend mode="normal" in="SourceGraphic" in2="effect1_dropShadow_303_4639" result="shape"/>
</filter>
</defs>
</svg>
