<svg width="987" height="18" viewBox="0 0 987 18" fill="none" xmlns="http://www.w3.org/2000/svg">
<g opacity="0.7" filter="url(#filter0_di_332_5997)">
<path d="M83 5L6.36934 10.2684C5.37593 10.3367 5.08184 11.6566 5.95229 12.1402L7.27348 12.8742C7.42204 12.9567 7.58918 13 7.75912 13L83 13L977.415 13C977.776 13 978.11 12.8051 978.287 12.4903L981.662 6.49026C982.037 5.82366 981.555 5 980.79 5L83 5Z" fill="#D0C6F7" fill-opacity="0.15" shape-rendering="crispEdges"/>
<path d="M83 4.5H82.9828L82.9657 4.50118L6.33505 9.76954C4.84492 9.87198 4.40379 11.8519 5.70947 12.5772L7.03066 13.3112C7.2535 13.435 7.50421 13.5 7.75912 13.5L83 13.5L977.415 13.5C977.957 13.5 978.457 13.2077 978.723 12.7354L982.098 6.73539C982.66 5.7355 981.937 4.5 980.79 4.5L83 4.5Z" stroke="url(#paint0_linear_332_5997)" shape-rendering="crispEdges"/>
</g>
<defs>
<filter id="filter0_di_332_5997" x="0.43573" y="0" width="986.357" height="18" filterUnits="userSpaceOnUse" color-interpolation-filters="sRGB">
<feFlood flood-opacity="0" result="BackgroundImageFix"/>
<feColorMatrix in="SourceAlpha" type="matrix" values="0 0 0 0 0 0 0 0 0 0 0 0 0 0 0 0 0 0 127 0" result="hardAlpha"/>
<feOffset/>
<feGaussianBlur stdDeviation="2"/>
<feComposite in2="hardAlpha" operator="out"/>
<feColorMatrix type="matrix" values="0 0 0 0 0.815686 0 0 0 0 0.776471 0 0 0 0 0.968627 0 0 0 1 0"/>
<feBlend mode="normal" in2="BackgroundImageFix" result="effect1_dropShadow_332_5997"/>
<feBlend mode="normal" in="SourceGraphic" in2="effect1_dropShadow_332_5997" result="shape"/>
<feColorMatrix in="SourceAlpha" type="matrix" values="0 0 0 0 0 0 0 0 0 0 0 0 0 0 0 0 0 0 127 0" result="hardAlpha"/>
<feOffset/>
<feGaussianBlur stdDeviation="3"/>
<feComposite in2="hardAlpha" operator="arithmetic" k2="-1" k3="1"/>
<feColorMatrix type="matrix" values="0 0 0 0 0.815686 0 0 0 0 0.776471 0 0 0 0 0.968627 0 0 0 1 0"/>
<feBlend mode="normal" in2="shape" result="effect2_innerShadow_332_5997"/>
</filter>
<linearGradient id="paint0_linear_332_5997" x1="-30.3338" y1="5" x2="-12.0961" y2="157.761" gradientUnits="userSpaceOnUse">
<stop stop-color="#D0C6F7"/>
<stop offset="1" stop-color="#F8B4FC"/>
</linearGradient>
</defs>
</svg>
