<svg width="1167" height="85" viewBox="0 0 1167 85" fill="none" xmlns="http://www.w3.org/2000/svg">
<g opacity="0.7" filter="url(#filter0_di_303_4633)">
<mask id="path-1-outside-1_303_4633" maskUnits="userSpaceOnUse" x="4" y="4" width="1159" height="77" fill="black">
<rect fill="white" x="4" y="4" width="1159" height="77"/>
<path fill-rule="evenodd" clip-rule="evenodd" d="M84.5697 71.804C84.3413 71.804 84.1198 71.7259 83.942 71.5825L5.3724 8.23577C4.8201 7.79047 4.89424 6.92766 5.51441 6.58312L8.13751 5.12585C8.48863 4.93078 8.9224 4.96473 9.2389 5.21206L83.9454 63.592C84.1212 63.7294 84.338 63.804 84.5612 63.804H539.183C539.204 63.804 539.223 63.8152 539.233 63.8333V63.8333C539.243 63.8514 539.263 63.8626 539.283 63.8626L627.717 63.804H628.217H1082.37C1082.6 63.804 1082.81 63.7294 1082.99 63.592L1157.69 5.21206C1158.01 4.96473 1158.44 4.93078 1158.8 5.12585L1161.42 6.58312C1162.04 6.92766 1162.11 7.79047 1161.56 8.23577L1082.99 71.5825C1082.81 71.7259 1082.59 71.804 1082.36 71.804H623.846C623.499 71.804 623.177 71.984 622.995 72.2795L618.651 79.3286C618.469 79.6241 618.147 79.804 617.8 79.804H549.162C548.807 79.804 548.479 79.6164 548.3 79.3109L539.978 65.1578L542.878 70.3138C543.253 70.9804 542.772 71.804 542.007 71.804H84.5697Z"/>
</mask>
<path fill-rule="evenodd" clip-rule="evenodd" d="M84.5697 71.804C84.3413 71.804 84.1198 71.7259 83.942 71.5825L5.3724 8.23577C4.8201 7.79047 4.89424 6.92766 5.51441 6.58312L8.13751 5.12585C8.48863 4.93078 8.9224 4.96473 9.2389 5.21206L83.9454 63.592C84.1212 63.7294 84.338 63.804 84.5612 63.804H539.183C539.204 63.804 539.223 63.8152 539.233 63.8333V63.8333C539.243 63.8514 539.263 63.8626 539.283 63.8626L627.717 63.804H628.217H1082.37C1082.6 63.804 1082.81 63.7294 1082.99 63.592L1157.69 5.21206C1158.01 4.96473 1158.44 4.93078 1158.8 5.12585L1161.42 6.58312C1162.04 6.92766 1162.11 7.79047 1161.56 8.23577L1082.99 71.5825C1082.81 71.7259 1082.59 71.804 1082.36 71.804H623.846C623.499 71.804 623.177 71.984 622.995 72.2795L618.651 79.3286C618.469 79.6241 618.147 79.804 617.8 79.804H549.162C548.807 79.804 548.479 79.6164 548.3 79.3109L539.978 65.1578L542.878 70.3138C543.253 70.9804 542.772 71.804 542.007 71.804H84.5697Z" fill="#D0C6F7" fill-opacity="0.15" shape-rendering="crispEdges"/>
<path d="M627.717 63.804V62.804L627.716 62.804L627.717 63.804ZM539.978 65.1578L540.84 64.651L539.107 65.6481L539.978 65.1578ZM542.878 70.3138L543.75 69.8235L542.878 70.3138ZM548.3 79.3109L549.162 78.804L548.3 79.3109ZM618.651 79.3286L619.503 79.8532L618.651 79.3286ZM1161.42 6.58312L1161.9 5.70896L1161.42 6.58312ZM1161.56 8.23577L1160.93 7.45728L1161.56 8.23577ZM1157.69 5.21206L1157.08 4.42412L1157.69 5.21206ZM1158.8 5.12585L1159.28 4.25169L1158.8 5.12585ZM1082.99 63.592L1083.6 64.3799L1082.99 63.592ZM539.283 63.8626L539.284 64.8626L539.283 63.8626ZM83.9454 63.592L84.5612 62.804L83.9454 63.592ZM9.2389 5.21206L8.62315 6.00001L9.2389 5.21206ZM622.995 72.2795L622.143 71.7549L622.995 72.2795ZM83.942 71.5825L84.5697 70.804L83.942 71.5825ZM1082.99 71.5825L1083.62 72.361L1082.99 71.5825ZM4.74474 9.01426L83.3144 72.361L84.5697 70.804L6.00006 7.45728L4.74474 9.01426ZM7.65186 4.25169L5.02877 5.70896L6.00006 7.45728L8.62315 6L7.65186 4.25169ZM84.5612 62.804L9.85464 4.42412L8.62315 6.00001L83.3297 64.3799L84.5612 62.804ZM539.183 62.804H84.5612V64.804H539.183V62.804ZM539.284 64.8626L627.717 64.804L627.716 62.804L539.283 62.8626L539.284 64.8626ZM627.717 64.804H628.217V62.804H627.717V64.804ZM628.217 64.804H1082.37V62.804H628.217V64.804ZM1083.6 64.3799L1158.31 6.00001L1157.08 4.42412L1082.37 62.804L1083.6 64.3799ZM1158.31 6L1160.93 7.45728L1161.9 5.70896L1159.28 4.25169L1158.31 6ZM1160.93 7.45728L1082.36 70.804L1083.62 72.361L1162.19 9.01426L1160.93 7.45728ZM1082.36 70.804H623.846V72.804H1082.36V70.804ZM622.143 71.7549L617.8 78.804L619.503 79.8532L623.846 72.804L622.143 71.7549ZM617.8 78.804H549.162V80.804H617.8V78.804ZM549.162 78.804L540.84 64.651L539.116 65.6647L547.438 79.8177L549.162 78.804ZM543.75 69.8235L540.85 64.6676L539.107 65.6481L542.007 70.804L543.75 69.8235ZM84.5697 72.804H542.007V70.804H84.5697V72.804ZM542.007 70.804L542.007 70.804V72.804C543.537 72.804 544.5 71.1567 543.75 69.8235L542.007 70.804ZM549.162 78.804L549.162 78.804L547.438 79.8177C547.797 80.4288 548.453 80.804 549.162 80.804V78.804ZM617.8 78.804L617.8 78.804V80.804C618.494 80.804 619.139 80.4441 619.503 79.8532L617.8 78.804ZM1160.93 7.45728L1160.93 7.45728L1162.19 9.01426C1163.29 8.12367 1163.15 6.39804 1161.9 5.70896L1160.93 7.45728ZM1158.31 6.00001L1158.31 6L1159.28 4.25169C1158.58 3.86155 1157.71 3.92946 1157.08 4.42412L1158.31 6.00001ZM1082.37 64.804C1082.82 64.804 1083.25 64.6548 1083.6 64.3799L1082.37 62.804L1082.37 62.804V64.804ZM538.362 64.3236C538.549 64.6568 538.902 64.8629 539.284 64.8626L539.283 62.8626C539.623 62.8624 539.938 63.0461 540.105 63.343L538.362 64.3236ZM539.183 64.804C538.843 64.804 538.529 64.6204 538.362 64.3236L540.105 63.343C539.917 63.0101 539.565 62.804 539.183 62.804V64.804ZM83.3297 64.3799C83.6813 64.6548 84.1149 64.804 84.5612 64.804V62.804L84.5612 62.804L83.3297 64.3799ZM8.62315 6L8.62315 6.00001L9.85464 4.42412C9.22166 3.92946 8.35412 3.86155 7.65186 4.25169L8.62315 6ZM623.846 70.804C623.152 70.804 622.507 71.1639 622.143 71.7549L623.846 72.804L623.846 72.804V70.804ZM83.3144 72.361C83.6699 72.6477 84.1129 72.804 84.5697 72.804V70.804L84.5697 70.804L83.3144 72.361ZM1082.36 70.804L1082.36 70.804V72.804C1082.82 72.804 1083.26 72.6477 1083.62 72.361L1082.36 70.804ZM6.00006 7.45728L6.00006 7.45728L5.02877 5.70896C3.78843 6.39804 3.64014 8.12367 4.74474 9.01426L6.00006 7.45728Z" fill="#FFBCFF" mask="url(#path-1-outside-1_303_4633)"/>
</g>
<defs>
<filter id="filter0_di_303_4633" x="-6.10352e-05" y="0" width="1166.93" height="84.804" filterUnits="userSpaceOnUse" color-interpolation-filters="sRGB">
<feFlood flood-opacity="0" result="BackgroundImageFix"/>
<feColorMatrix in="SourceAlpha" type="matrix" values="0 0 0 0 0 0 0 0 0 0 0 0 0 0 0 0 0 0 127 0" result="hardAlpha"/>
<feOffset/>
<feGaussianBlur stdDeviation="2"/>
<feComposite in2="hardAlpha" operator="out"/>
<feColorMatrix type="matrix" values="0 0 0 0 1 0 0 0 0 0.737255 0 0 0 0 1 0 0 0 1 0"/>
<feBlend mode="normal" in2="BackgroundImageFix" result="effect1_dropShadow_303_4633"/>
<feBlend mode="normal" in="SourceGraphic" in2="effect1_dropShadow_303_4633" result="shape"/>
<feColorMatrix in="SourceAlpha" type="matrix" values="0 0 0 0 0 0 0 0 0 0 0 0 0 0 0 0 0 0 127 0" result="hardAlpha"/>
<feOffset/>
<feGaussianBlur stdDeviation="3"/>
<feComposite in2="hardAlpha" operator="arithmetic" k2="-1" k3="1"/>
<feColorMatrix type="matrix" values="0 0 0 0 1 0 0 0 0 0.737255 0 0 0 0 1 0 0 0 1 0"/>
<feBlend mode="normal" in2="shape" result="effect2_innerShadow_303_4633"/>
</filter>
</defs>
</svg>
