<svg width="195" height="59" viewBox="0 0 195 59" fill="none" xmlns="http://www.w3.org/2000/svg">
<g filter="url(#filter0_f_303_3145)">
<path d="M97.5007 20.0032C99.8348 20.0401 101.85 20.9526 103.666 22.3377C106.219 24.2854 108.098 26.721 108.806 29.9206C109.297 32.1404 108.9 34.129 107.124 35.7132C106.606 36.1754 106.118 36.6746 105.649 37.1874C104.136 38.8413 102.245 39.2795 100.133 38.8397C96.5065 38.0846 93.8589 35.9058 91.8302 32.9068C90.7081 31.2488 90.0073 29.4239 90 27.3879C89.9952 25.9346 90.4718 24.661 91.5047 23.6169C92.22 22.8939 92.937 22.1708 93.6628 21.4582C94.7269 20.4149 96.017 19.9567 97.5007 20.0032ZM107.32 31.4599C107.302 31.1493 107.307 30.7785 107.235 30.4078C106.853 28.4296 105.867 26.7676 104.521 25.315C102.711 23.3617 100.588 21.93 97.8608 21.6492C95.9302 21.4501 94.1876 22.4517 93.9883 24.608C93.9071 25.49 94.0269 26.3334 94.2921 27.1592C95.0943 29.6582 96.6833 31.5834 98.7634 33.1178C100.261 34.2221 101.901 34.9989 103.817 35.0086C106.054 35.0198 107.316 33.7631 107.32 31.4599ZM103.727 36.7075C100.569 36.4547 98.1059 35.019 96.0121 32.9124C93.9256 30.813 92.4981 28.3557 92.2875 25.2412C91.8784 25.8182 91.7185 26.3792 91.6767 26.9802C91.5457 28.8437 92.179 30.4904 93.1934 31.9935C95.0324 34.718 97.4219 36.6994 100.76 37.2764C101.753 37.4474 102.735 37.3535 103.727 36.7075Z" fill="white"/>
<path d="M96.5089 26.3967C96.6262 26.0019 96.6559 25.4931 96.4204 24.9666C96.3007 24.6986 96.463 24.3993 96.7259 24.2187C97.0024 24.0293 97.3118 24.0036 97.5883 24.1818C97.8302 24.3375 98.0456 24.3222 98.3061 24.262C99.2183 24.0518 100.02 24.3005 100.694 24.9345C101.069 25.2876 101.092 25.7218 100.797 26.0693C100.505 26.4136 100.066 26.4705 99.6612 26.1704C99.2625 25.8743 98.8526 25.6937 98.4089 26.0099C98.0826 26.2418 98.1284 26.6118 98.2385 26.9424C98.3856 27.383 99.0093 27.7915 99.4924 27.7393C99.8597 27.7 100.225 27.6037 100.578 27.4913C101.926 27.062 103.129 27.2337 104.097 28.3372C104.677 28.9968 104.941 29.7624 104.718 30.6428C104.649 30.9172 104.647 31.1516 104.806 31.41C105.002 31.7294 104.951 32.068 104.685 32.3441C104.42 32.6186 104.079 32.7092 103.762 32.5014C103.465 32.3064 103.198 32.3537 102.896 32.4195C102.011 32.6129 101.254 32.3337 100.61 31.735C100.228 31.3795 100.202 30.9509 100.492 30.6011C100.778 30.2576 101.229 30.1942 101.63 30.4919C102.01 30.7744 102.392 30.9638 102.84 30.699C103.169 30.5048 103.171 30.1637 103.103 29.8363C103.016 29.4214 102.488 28.9912 102.03 28.9391C101.632 28.8933 101.258 29.0065 100.884 29.1188C100.264 29.305 99.6395 29.4438 98.9844 29.3475C97.6277 29.1469 96.5024 27.8709 96.5089 26.3967Z" fill="white"/>
</g>
<g filter="url(#filter1_f_303_3145)">
<rect x="120" y="23" width="59" height="10" fill="#7455EE"/>
</g>
<g filter="url(#filter2_d_303_3145)">
<path d="M128.88 28.76V26.6H134.04V33.512L131.256 35.12H124.944L122.16 33.512V19.688L124.944 18.08H131.256L134.04 19.688V22.4H131.64V20.24H124.56V32.96H131.64V28.76H128.88ZM139.963 30.08V33.032H144.787V30.08H139.963ZM140.419 35.12L137.635 33.512V29.6L140.419 27.992H144.787V25.088H138.835V23H144.331L147.115 24.608V35.12H146.491L144.787 34.136L143.083 35.12H140.419ZM167.111 24.488V35H164.783V24.968H160.199V35H157.871V24.968H153.287V35H150.959V22.88H152.711L153.287 23.864L154.991 22.88H157.415L159.647 24.176L161.903 22.88H164.327L167.111 24.488ZM180.431 32.912V35H173.735L170.951 33.392V24.488L173.735 22.88H177.647L180.431 24.488V29.816H173.279V32.912H180.431ZM173.279 24.968V27.728H178.103V24.968H173.279Z" fill="white"/>
</g>
<g filter="url(#filter3_d_303_3145)">
<path d="M18.8 35V21.32H18.752L13.808 35H11.408L6.488 21.32H6.44V35H4.16V18.2H7.544L12.584 32.216H12.632L17.696 18.2H21.08V35H18.8ZM35.3544 33.512L32.5704 35.12H27.9384L25.1544 33.512V24.488L27.9384 22.88H32.5704L35.3544 24.488V33.512ZM27.4824 24.968V33.032H33.0264V24.968H27.4824ZM49.3934 24.488V35H47.0654V24.968H41.5214V35H39.1934V22.88H40.9454L41.5214 23.864L43.2254 22.88H46.6094L49.3934 24.488ZM62.7125 32.912V35H56.0165L53.2325 33.392V24.488L56.0165 22.88H59.9285L62.7125 24.488V29.816H55.5605V32.912H62.7125ZM55.5605 24.968V27.728H60.3845V24.968H55.5605ZM67.649 39.8L69.737 34.448L65.105 23H67.433L70.841 31.544H70.889L74.273 23H76.601L69.929 39.8H67.649Z" fill="white"/>
</g>
<path d="M18.8 35V21.32H18.752L13.808 35H11.408L6.488 21.32H6.44V35H4.16V18.2H7.544L12.584 32.216H12.632L17.696 18.2H21.08V35H18.8ZM35.3544 33.512L32.5704 35.12H27.9384L25.1544 33.512V24.488L27.9384 22.88H32.5704L35.3544 24.488V33.512ZM27.4824 24.968V33.032H33.0264V24.968H27.4824ZM49.3934 24.488V35H47.0654V24.968H41.5214V35H39.1934V22.88H40.9454L41.5214 23.864L43.2254 22.88H46.6094L49.3934 24.488ZM62.7125 32.912V35H56.0165L53.2325 33.392V24.488L56.0165 22.88H59.9285L62.7125 24.488V29.816H55.5605V32.912H62.7125ZM55.5605 24.968V27.728H60.3845V24.968H55.5605ZM67.649 39.8L69.737 34.448L65.105 23H67.433L70.841 31.544H70.889L74.273 23H76.601L69.929 39.8H67.649ZM129.591 28.76V26.6H134.751V33.512L131.967 35.12H125.655L122.871 33.512V19.688L125.655 18.08H131.967L134.751 19.688V22.4H132.351V20.24H125.271V32.96H132.351V28.76H129.591ZM140.674 30.08V33.032H145.498V30.08H140.674ZM141.13 35.12L138.346 33.512V29.6L141.13 27.992H145.498V25.088H139.546V23H145.042L147.826 24.608V35.12H147.202L145.498 34.136L143.794 35.12H141.13ZM167.822 24.488V35H165.494V24.968H160.91V35H158.582V24.968H153.998V35H151.67V22.88H153.422L153.998 23.864L155.702 22.88H158.126L160.358 24.176L162.614 22.88H165.038L167.822 24.488ZM181.142 32.912V35H174.446L171.662 33.392V24.488L174.446 22.88H178.358L181.142 24.488V29.816H173.99V32.912H181.142ZM173.99 24.968V27.728H178.814V24.968H173.99Z" fill="white"/>
<g filter="url(#filter4_d_303_3145)">
<path d="M97.5007 20.0032C99.8348 20.0401 101.85 20.9526 103.666 22.3377C106.219 24.2854 108.098 26.721 108.806 29.9206C109.297 32.1404 108.9 34.129 107.124 35.7132C106.606 36.1754 106.118 36.6746 105.649 37.1874C104.136 38.8413 102.245 39.2795 100.133 38.8397C96.5065 38.0846 93.8589 35.9058 91.8302 32.9068C90.7081 31.2488 90.0073 29.4239 90 27.3879C89.9952 25.9346 90.4718 24.661 91.5047 23.6169C92.22 22.8939 92.937 22.1708 93.6628 21.4582C94.7269 20.4149 96.017 19.9567 97.5007 20.0032ZM107.32 31.4599C107.302 31.1493 107.307 30.7785 107.235 30.4078C106.853 28.4296 105.867 26.7676 104.521 25.315C102.711 23.3617 100.588 21.93 97.8608 21.6492C95.9302 21.4501 94.1876 22.4517 93.9883 24.608C93.9071 25.49 94.0269 26.3334 94.2921 27.1592C95.0943 29.6582 96.6833 31.5834 98.7634 33.1178C100.261 34.2221 101.901 34.9989 103.817 35.0086C106.054 35.0198 107.316 33.7631 107.32 31.4599ZM103.727 36.7075C100.569 36.4547 98.1059 35.019 96.0121 32.9124C93.9256 30.813 92.4981 28.3557 92.2875 25.2412C91.8784 25.8182 91.7185 26.3792 91.6767 26.9802C91.5457 28.8437 92.179 30.4904 93.1934 31.9935C95.0324 34.718 97.4219 36.6994 100.76 37.2764C101.753 37.4474 102.735 37.3535 103.727 36.7075Z" fill="#DDB0F7"/>
<path d="M96.5089 26.3967C96.6262 26.0019 96.6559 25.4931 96.4204 24.9666C96.3007 24.6986 96.463 24.3993 96.7259 24.2187C97.0024 24.0293 97.3118 24.0036 97.5883 24.1818C97.8302 24.3375 98.0456 24.3222 98.3061 24.262C99.2183 24.0518 100.02 24.3005 100.694 24.9345C101.069 25.2876 101.092 25.7218 100.797 26.0693C100.505 26.4136 100.066 26.4705 99.6612 26.1704C99.2625 25.8743 98.8526 25.6937 98.4089 26.0099C98.0826 26.2418 98.1284 26.6118 98.2385 26.9424C98.3856 27.383 99.0093 27.7915 99.4924 27.7393C99.8597 27.7 100.225 27.6037 100.578 27.4913C101.926 27.062 103.129 27.2337 104.097 28.3372C104.677 28.9968 104.941 29.7624 104.718 30.6428C104.649 30.9172 104.647 31.1516 104.806 31.41C105.002 31.7294 104.951 32.068 104.685 32.3441C104.42 32.6186 104.079 32.7092 103.762 32.5014C103.465 32.3064 103.198 32.3537 102.896 32.4195C102.011 32.6129 101.254 32.3337 100.61 31.735C100.228 31.3795 100.202 30.9509 100.492 30.6011C100.778 30.2576 101.229 30.1942 101.63 30.4919C102.01 30.7744 102.392 30.9638 102.84 30.699C103.169 30.5048 103.171 30.1637 103.103 29.8363C103.016 29.4214 102.488 28.9912 102.03 28.9391C101.632 28.8933 101.258 29.0065 100.884 29.1188C100.264 29.305 99.6395 29.4438 98.9844 29.3475C97.6277 29.1469 96.5024 27.8709 96.5089 26.3967Z" fill="#DDB0F7"/>
</g>
<defs>
<filter id="filter0_f_303_3145" x="70" y="0" width="59" height="59" filterUnits="userSpaceOnUse" color-interpolation-filters="sRGB">
<feFlood flood-opacity="0" result="BackgroundImageFix"/>
<feBlend mode="normal" in="SourceGraphic" in2="BackgroundImageFix" result="shape"/>
<feGaussianBlur stdDeviation="10" result="effect1_foregroundBlur_303_3145"/>
</filter>
<filter id="filter1_f_303_3145" x="104" y="7" width="91" height="42" filterUnits="userSpaceOnUse" color-interpolation-filters="sRGB">
<feFlood flood-opacity="0" result="BackgroundImageFix"/>
<feBlend mode="normal" in="SourceGraphic" in2="BackgroundImageFix" result="shape"/>
<feGaussianBlur stdDeviation="8" result="effect1_foregroundBlur_303_3145"/>
</filter>
<filter id="filter2_d_303_3145" x="119.16" y="15.08" width="64.2712" height="23.04" filterUnits="userSpaceOnUse" color-interpolation-filters="sRGB">
<feFlood flood-opacity="0" result="BackgroundImageFix"/>
<feColorMatrix in="SourceAlpha" type="matrix" values="0 0 0 0 0 0 0 0 0 0 0 0 0 0 0 0 0 0 127 0" result="hardAlpha"/>
<feOffset/>
<feGaussianBlur stdDeviation="1.5"/>
<feComposite in2="hardAlpha" operator="out"/>
<feColorMatrix type="matrix" values="0 0 0 0 0.815686 0 0 0 0 0.592157 0 0 0 0 0.968627 0 0 0 1 0"/>
<feBlend mode="normal" in2="BackgroundImageFix" result="effect1_dropShadow_303_3145"/>
<feBlend mode="normal" in="SourceGraphic" in2="effect1_dropShadow_303_3145" result="shape"/>
</filter>
<filter id="filter3_d_303_3145" x="0.160034" y="14.2" width="80.4409" height="29.6001" filterUnits="userSpaceOnUse" color-interpolation-filters="sRGB">
<feFlood flood-opacity="0" result="BackgroundImageFix"/>
<feColorMatrix in="SourceAlpha" type="matrix" values="0 0 0 0 0 0 0 0 0 0 0 0 0 0 0 0 0 0 127 0" result="hardAlpha"/>
<feOffset/>
<feGaussianBlur stdDeviation="2"/>
<feComposite in2="hardAlpha" operator="out"/>
<feColorMatrix type="matrix" values="0 0 0 0 1 0 0 0 0 1 0 0 0 0 1 0 0 0 1 0"/>
<feBlend mode="normal" in2="BackgroundImageFix" result="effect1_dropShadow_303_3145"/>
<feBlend mode="normal" in="SourceGraphic" in2="effect1_dropShadow_303_3145" result="shape"/>
</filter>
<filter id="filter4_d_303_3145" x="87" y="17" width="25" height="25" filterUnits="userSpaceOnUse" color-interpolation-filters="sRGB">
<feFlood flood-opacity="0" result="BackgroundImageFix"/>
<feColorMatrix in="SourceAlpha" type="matrix" values="0 0 0 0 0 0 0 0 0 0 0 0 0 0 0 0 0 0 127 0" result="hardAlpha"/>
<feOffset/>
<feGaussianBlur stdDeviation="1.5"/>
<feComposite in2="hardAlpha" operator="out"/>
<feColorMatrix type="matrix" values="0 0 0 0 0.866667 0 0 0 0 0.690196 0 0 0 0 0.968627 0 0 0 1 0"/>
<feBlend mode="normal" in2="BackgroundImageFix" result="effect1_dropShadow_303_3145"/>
<feBlend mode="normal" in="SourceGraphic" in2="effect1_dropShadow_303_3145" result="shape"/>
</filter>
</defs>
</svg>
