<svg width="201" height="66" viewBox="0 0 201 66" fill="none" xmlns="http://www.w3.org/2000/svg">
<g filter="url(#filter0_di_65_325)">
<path d="M12.1625 13.2353L19.026 5.34375C19.216 5.12538 19.4912 5 19.7806 5H195C195.552 5 196 5.44772 196 6V60C196 60.5523 195.552 61 195 61H6C5.44772 61 5 60.5523 5 60V21.8446C5 21.6034 5.08717 21.3704 5.24546 21.1884L12.1625 13.2353Z" fill="#D0C6F7" fill-opacity="0.15" shape-rendering="crispEdges"/>
<path d="M18.6488 5.01562L11.7852 12.9072L4.86819 20.8602C4.63076 21.1332 4.5 21.4828 4.5 21.8446V60C4.5 60.8284 5.17158 61.5 6 61.5H195C195.828 61.5 196.5 60.8284 196.5 60V6C196.5 5.17157 195.828 4.5 195 4.5H19.7806C19.3465 4.5 18.9336 4.68807 18.6488 5.01562Z" stroke="url(#paint0_linear_65_325)" shape-rendering="crispEdges"/>
</g>
<defs>
<filter id="filter0_di_65_325" x="0" y="0" width="201" height="66" filterUnits="userSpaceOnUse" color-interpolation-filters="sRGB">
<feFlood flood-opacity="0" result="BackgroundImageFix"/>
<feColorMatrix in="SourceAlpha" type="matrix" values="0 0 0 0 0 0 0 0 0 0 0 0 0 0 0 0 0 0 127 0" result="hardAlpha"/>
<feOffset/>
<feGaussianBlur stdDeviation="2"/>
<feComposite in2="hardAlpha" operator="out"/>
<feColorMatrix type="matrix" values="0 0 0 0 0.815686 0 0 0 0 0.776471 0 0 0 0 0.968627 0 0 0 1 0"/>
<feBlend mode="normal" in2="BackgroundImageFix" result="effect1_dropShadow_65_325"/>
<feBlend mode="normal" in="SourceGraphic" in2="effect1_dropShadow_65_325" result="shape"/>
<feColorMatrix in="SourceAlpha" type="matrix" values="0 0 0 0 0 0 0 0 0 0 0 0 0 0 0 0 0 0 127 0" result="hardAlpha"/>
<feOffset/>
<feGaussianBlur stdDeviation="3"/>
<feComposite in2="hardAlpha" operator="arithmetic" k2="-1" k3="1"/>
<feColorMatrix type="matrix" values="0 0 0 0 0.815686 0 0 0 0 0.776471 0 0 0 0 0.968627 0 0 0 1 0"/>
<feBlend mode="normal" in2="shape" result="effect2_innerShadow_65_325"/>
</filter>
<linearGradient id="paint0_linear_65_325" x1="-1.5" y1="4.99999" x2="238.5" y2="61" gradientUnits="userSpaceOnUse">
<stop stop-color="#D0C6F7"/>
<stop offset="1" stop-color="#F8B4FC"/>
</linearGradient>
</defs>
</svg>
