<svg width="178" height="22" viewBox="0 0 178 22" fill="none" xmlns="http://www.w3.org/2000/svg">
<path d="M14.8 17V3.32H14.752L9.808 17H7.408L2.488 3.32H2.44V17H0.16V0.199999H3.544L8.584 14.216H8.632L13.696 0.199999H17.08V17H14.8ZM31.3544 15.512L28.5704 17.12H23.9384L21.1544 15.512V6.488L23.9384 4.88H28.5704L31.3544 6.488V15.512ZM23.4824 6.968V15.032H29.0264V6.968H23.4824ZM45.3934 6.488V17H43.0654V6.968H37.5214V17H35.1934V4.88H36.9454L37.5214 5.864L39.2254 4.88H42.6094L45.3934 6.488ZM58.7125 14.912V17H52.0165L49.2325 15.392V6.488L52.0165 4.88H55.9285L58.7125 6.488V11.816H51.5605V14.912H58.7125ZM51.5605 6.968V9.728H56.3845V6.968H51.5605ZM63.649 21.8L65.737 16.448L61.105 5H63.433L66.841 13.544H66.889L70.273 5H72.601L65.929 21.8H63.649ZM125.591 10.76V8.6H130.751V15.512L127.967 17.12H121.655L118.871 15.512V1.688L121.655 0.079999H127.967L130.751 1.688V4.4H128.351V2.24H121.271V14.96H128.351V10.76H125.591ZM136.674 12.08V15.032H141.498V12.08H136.674ZM137.13 17.12L134.346 15.512V11.6L137.13 9.992H141.498V7.088H135.546V5H141.042L143.826 6.608V17.12H143.202L141.498 16.136L139.794 17.12H137.13ZM163.822 6.488V17H161.494V6.968H156.91V17H154.582V6.968H149.998V17H147.67V4.88H149.422L149.998 5.864L151.702 4.88H154.126L156.358 6.176L158.614 4.88H161.038L163.822 6.488ZM177.142 14.912V17H170.446L167.662 15.392V6.488L170.446 4.88H174.358L177.142 6.488V11.816H169.99V14.912H177.142ZM169.99 6.968V9.728H174.814V6.968H169.99Z" fill="white"/>
</svg>
